{
.appVersion = "1342";
copyright = "Copyright 2020 Google LLC. All Rights Reserved.";
customParameters = (
{
name = description;
value = "This font is designed based on Nüshu Duben, with the design by Liu Zhao, the engineering by Eiso Chan, the quality assurance by Kushim Jiang, and Kwat Ulan as the design assistant, copywriting by Zhu Kui.";
},
{
name = trademark;
value = "Noto is a trademark of Google LLC.";
},
{
name = licenseURL;
value = "http://scripts.sil.org/OFL";
},
{
name = sampleText;
value = "   ";
},
{
name = license;
value = "This Font Software is licensed under the SIL Open Font License, Version 1.1. This Font Software is distributed on an \"AS IS\" BASIS, WITHOUT WARRANTIES OR CONDITIONS OF ANY KIND, either express or implied. See the SIL Open Font License for the specific language, permissions and limitations governing your use of this Font Software.";
},
{
name = vendorID;
value = GOOG;
},
{
name = panose;
value = (
2,
0,
6,
9,
0,
0,
0,
0,
0,
0
);
},
{
name = unicodeRanges;
value = (
0,
57,
59
);
},
{
name = fsType;
value = (
);
},
{
name = blueShift;
value = 12;
},
{
name = glyphOrder;
value = (
.notdef,
space,
comma,
hyphen,
period,
zero,
one,
two,
three,
four,
five,
six,
seven,
eight,
nine,
A,
B,
C,
D,
E,
F,
G,
H,
I,
J,
K,
L,
M,
N,
O,
P,
Q,
R,
S,
T,
U,
V,
W,
X,
Y,
Z,
a,
b,
c,
d,
e,
f,
g,
h,
i,
j,
k,
l,
m,
n,
o,
p,
q,
r,
s,
t,
u,
v,
w,
x,
y,
z,
ensp,
emsp,
uni3000,
uni4E00,
uni4E66,
uni4F20,
uni4F53,
uni5973,
uni7EDF,
u16FE1,
u1B170,
u1B171,
u1B172,
u1B173,
u1B174,
u1B175,
u1B176,
u1B177,
u1B178,
u1B179,
u1B17A,
u1B17B,
u1B17C,
u1B17D,
u1B17E,
u1B17F,
u1B180,
u1B181,
u1B182,
u1B183,
u1B184,
u1B185,
u1B186,
u1B187,
u1B188,
u1B189,
u1B18A,
u1B18B,
u1B18C,
u1B18D,
u1B18E,
u1B18F,
u1B190,
u1B191,
u1B192,
u1B193,
u1B194,
u1B195,
u1B196,
u1B197,
u1B198,
u1B199,
u1B19A,
u1B19B,
u1B19C,
u1B19D,
u1B19E,
u1B19F,
u1B1A0,
u1B1A1,
u1B1A2,
u1B1A3,
u1B1A4,
u1B1A5,
u1B1A6,
u1B1A7,
u1B1A8,
u1B1A9,
u1B1AA,
u1B1AB,
u1B1AC,
u1B1AD,
u1B1AE,
u1B1AF,
u1B1B0,
u1B1B1,

glyphs = (
{
glyphname = .notdef;
layers = (
{
hints = (
{
horizontal = 1;
place = "{0, 34}";
type = Stem;
},
{
horizontal = 1;
place = "{648, 34}";
type = Stem;
},
{
place = "{364, 34}";
type = Stem;
},
{
place = "{602, 34}";
type = Stem;
}
);
layerId = "ADFD292A-F9BB-471F-8DBA-A614A3A5AC29";
paths = (
{
closed = 1;
nodes = (
"364 0 LINE",
"636 0 LINE",
"636 682 LINE",
"364 682 LINE"
);
},
{
closed = 1;
nodes = (
"398 34 LINE",
"398 648 LINE",
"602 648 LINE",
"602 34 LINE"
);
}
);
vertWidth = 1200;
width = 1000;
}
);
note = .notdef;
},
{
glyphname = comma;
layers = (
{
hints = (
{
horizontal = 1;
place = "{-5, 101}";
type = Stem;
},
{
place = "{141, 49}";
type = Stem;
},
{
horizontal = 1;
place = "{-4, 21}";
target = up;
type = BottomGhost;
}
);
layerId = "ADFD292A-F9BB-471F-8DBA-A614A3A5AC29";
paths = (
{
closed = 1;
nodes = (
"70 -176 LINE",
"81.86 -169.92 OFFCURVE",
"93.38 -162.83 OFFCURVE",
"104.55 -154.74 CURVE SMOOTH",
"161.51 -112.7 OFFCURVE",
"190 -57.79 OFFCURVE",
"190 10 CURVE SMOOTH",
"189.92 22.35 OFFCURVE",
"188.55 34.04 OFFCURVE",
"185.88 45.06 CURVE SMOOTH",
"177.08 79.02 OFFCURVE",
"158.45 96 OFFCURVE",
"130 96 CURVE SMOOTH",
"123.84 96 OFFCURVE",
"117.87 95.09 OFFCURVE",
"112.1 93.28 CURVE SMOOTH",
"88.7 85.92 OFFCURVE",
"77 70.16 OFFCURVE",
"77 46 CURVE SMOOTH",
"77.1 39.61 OFFCURVE",
"78.12 33.31 OFFCURVE",
"80.03 27.1 CURVE SMOOTH",
"87.5 5.7 OFFCURVE",
"103.82 -5 OFFCURVE",
"129 -5 CURVE SMOOTH",
"133.7 -4.99 OFFCURVE",
"137.7 -4.66 OFFCURVE",
"141 -4 CURVE",
"140.98 -7.16 OFFCURVE",
"140.85 -10.64 OFFCURVE",
"140.63 -14.44 CURVE SMOOTH",
"136.8 -67.98 OFFCURVE",
"107.59 -109.16 OFFCURVE",
"53 -138 CURVE"
);
}
);
vertWidth = 1000;
width = 250;
}
);
note = comma;
unicode = 002C;
},
{
glyphname = hyphen;
layers = (
{
hints = (
{
horizontal = 1;
place = "{252, 49}";
type = Stem;
},
{
place = "{45, 246}";
type = Stem;
}
);
layerId = "ADFD292A-F9BB-471F-8DBA-A614A3A5AC29";
paths = (
{
closed = 1;
nodes = (
"45 252 LINE",
"291 252 LINE",
"291 301 LINE",
"45 301 LINE"
);
}
);
vertWidth = 1000;
width = 333;
}
);
note = hyphen;
unicode = 002D;
},
{
glyphname = period;
layers = (
{
hints = (
{
horizontal = 1;
place = "{-13, 21}";
target = up;
type = BottomGhost;
},
{
place = "{74, 102}";
type = Stem;
},
{
horizontal = 1;
place = "{-13, 109}";
type = Stem;
}
);
layerId = "ADFD292A-F9BB-471F-8DBA-A614A3A5AC29";
paths = (
{
closed = 1;
nodes = (
"131.49 -13 OFFCURVE",
"137.72 -11.82 OFFCURVE",
"143.69 -9.47 CURVE SMOOTH",
"165.23 -0.98 OFFCURVE",
"176 15.84 OFFCURVE",
"176 41 CURVE SMOOTH",
"175.88 48.99 OFFCURVE",
"174.44 56.76 OFFCURVE",
"171.68 64.3 CURVE SMOOTH",
"163.14 85.43 OFFCURVE",
"147.58 96 OFFCURVE",
"125 96 CURVE SMOOTH",
"118.98 95.88 OFFCURVE",
"112.86 94.74 OFFCURVE",
"106.63 92.59 CURVE SMOOTH",
"84.87 84.14 OFFCURVE",
"74 66.94 OFFCURVE",
"74 41 CURVE SMOOTH",
"74.13 33.1 OFFCURVE",
"75.62 25.4 OFFCURVE",
"78.47 17.91 CURVE SMOOTH",
"87.16 -2.7 OFFCURVE",
"102.67 -13 OFFCURVE",
"125 -13 CURVE SMOOTH"
);
}
);
vertWidth = 1000;
width = 250;
}
);
note = period;
unicode = 002E;
},
{
glyphname = zero;
layers = (
{
hints = (
{
horizontal = 1;
place = "{-13, 49}";
type = Stem;
},
{
horizontal = 1;
place = "{693, 49}";
type = Stem;
},
{
place = "{53, 58}";
type = Stem;
},
{
place = "{424, 58}";
type = Stem;
}
);
layerId = "ADFD292A-F9BB-471F-8DBA-A614A3A5AC29";
paths = (
{
closed = 1;
nodes = (
"298.41 -13 OFFCURVE",
"325.88 -6.47 OFFCURVE",
"350.42 6.6 CURVE SMOOTH",
"438.14 53.31 OFFCURVE",
"482 173.44 OFFCURVE",
"482 367 CURVE SMOOTH",
"481.92 446.14 OFFCURVE",
"473.87 513.78 OFFCURVE",
"457.86 569.93 CURVE SMOOTH",
"424.67 684.64 OFFCURVE",
"361.39 742 OFFCURVE",
"268 742 CURVE SMOOTH",
"239.18 741.85 OFFCURVE",
"212.64 735.99 OFFCURVE",
"188.39 724.41 CURVE SMOOTH",
"98.13 679.96 OFFCURVE",
"53 560.82 OFFCURVE",
"53 367 CURVE SMOOTH",
"53.08 287.26 OFFCURVE",
"61.06 219.04 OFFCURVE",
"76.94 162.35 CURVE SMOOTH",
"110.15 45.45 OFFCURVE",
"173.84 -13 OFFCURVE",
"268 -13 CURVE SMOOTH"
);
},
{
closed = 1;
nodes = (
"246.2 36.19 OFFCURVE",
"226.01 42.15 OFFCURVE",
"207.42 53.87 CURVE SMOOTH",
"143.14 96.05 OFFCURVE",
"111 200.43 OFFCURVE",
"111 367 CURVE SMOOTH",
"111.08 442.84 OFFCURVE",
"118.62 506.79 OFFCURVE",
"133.62 558.86 CURVE SMOOTH",
"159.78 648.29 OFFCURVE",
"204.58 693 OFFCURVE",
"268 693 CURVE SMOOTH",
"290.48 692.8 OFFCURVE",
"311.24 686.4 OFFCURVE",
"330.27 673.81 CURVE SMOOTH",
"392.75 630.84 OFFCURVE",
"424 528.57 OFFCURVE",
"424 367 CURVE SMOOTH",
"423.92 287.78 OFFCURVE",
"416 221.38 OFFCURVE",
"400.23 167.82 CURVE SMOOTH",
"373.97 79.94 OFFCURVE",
"329.89 36 OFFCURVE",
"268 36 CURVE SMOOTH"
);
}
);
vertWidth = 1000;
width = 535;
}
);
note = zero;
unicode = 0030;
},
{
glyphname = one;
layers = (
{
hints = (
{
horizontal = 1;
place = "{0, 51}";
type = Stem;
},
{
horizontal = 1;
place = "{644, 85}";
type = Stem;
},
{
place = "{257, 59}";
type = Stem;
},
{
place = "{130, 186}";
type = Stem;
}
);
layerId = "ADFD292A-F9BB-471F-8DBA-A614A3A5AC29";
paths = (
{
closed = 1;
nodes = (
"92 0 LINE",
"468 0 LINE",
"468 51 LINE",
"316 51 LINE",
"316 729 LINE",
"269 729 LINE",
"231.91 707.96 OFFCURVE",
"185.58 692.62 OFFCURVE",
"130 683 CURVE",
"130 644 LINE",
"257 644 LINE",
"257 51 LINE",
"92 51 LINE"
);
}
);
vertWidth = 1000;
width = 535;
}
);
note = one;
unicode = 0031;
},
{
glyphname = two;
layers = (
{
hints = (
{
horizontal = 1;
place = "{0, 52}";
type = Stem;
},
{
horizontal = 1;
place = "{693, 49}";
type = Stem;
},
{
place = "{390, 59}";
type = Stem;
}
);
layerId = "ADFD292A-F9BB-471F-8DBA-A614A3A5AC29";
paths = (
{
closed = 1;
nodes = (
"45 0 LINE",
"484 0 LINE",
"484 52 LINE",
"257 52 LINE SMOOTH",
"230.5 51.97 OFFCURVE",
"190.5 49.97 OFFCURVE",
"137 46 CURVE",
"190.44 95.91 OFFCURVE",
"236.24 142.06 OFFCURVE",
"274.39 184.46 CURVE SMOOTH",
"390.8 314.26 OFFCURVE",
"449 430.44 OFFCURVE",
"449 533 CURVE SMOOTH",
"448.84 577.11 OFFCURVE",
"439.78 615.74 OFFCURVE",
"421.81 648.89 CURVE SMOOTH",
"387.37 710.96 OFFCURVE",
"329.1 742 OFFCURVE",
"247 742 CURVE SMOOTH",
"243.5 741.99 OFFCURVE",
"239.68 741.9 OFFCURVE",
"235.56 741.75 CURVE SMOOTH",
"166.73 738.69 OFFCURVE",
"102.21 703.77 OFFCURVE",
"42 637 CURVE",
"79 602 LINE",
"127.85 662.03 OFFCURVE",
"181.85 692.36 OFFCURVE",
"241 693 CURVE SMOOTH",
"268.31 692.86 OFFCURVE",
"292.6 687.74 OFFCURVE",
"313.87 677.66 CURVE SMOOTH",
"364.62 652.69 OFFCURVE",
"390 603.81 OFFCURVE",
"390 531 CURVE SMOOTH",
"389.9 503.2 OFFCURVE",
"385.42 474.54 OFFCURVE",
"376.55 445 CURVE SMOOTH",
"342.31 333.42 OFFCURVE",
"231.8 197.08 OFFCURVE",
"45 36 CURVE"
);
}
);
vertWidth = 1000;
width = 535;
}
);
note = two;
unicode = 0032;
},
{
glyphname = three;
layers = (
{
hints = (
{
horizontal = 1;
place = "{-13, 50}";
type = Stem;
},
{
horizontal = 1;
place = "{357, 49}";
type = Stem;
},
{
horizontal = 1;
place = "{693, 49}";
type = Stem;
},
{
place = "{176, 142}";
type = Stem;
},
{
place = "{418, 60}";
type = Stem;
},
{
place = "{392, 60}";
type = Stem;
}
);
layerId = "ADFD292A-F9BB-471F-8DBA-A614A3A5AC29";
paths = (
{
closed = 1;
nodes = (
"308.75 -12.8 OFFCURVE",
"353.24 -0.29 OFFCURVE",
"391.47 24.54 CURVE SMOOTH",
"449.16 62.77 OFFCURVE",
"478 118.92 OFFCURVE",
"478 193 CURVE SMOOTH",
"477.83 225.91 OFFCURVE",
"470.45 256.14 OFFCURVE",
"455.85 283.71 CURVE SMOOTH",
"428.07 334.73 OFFCURVE",
"382.12 367.16 OFFCURVE",
"318 381 CURVE",
"318 386 LINE",
"328.98 389.71 OFFCURVE",
"339.76 394.18 OFFCURVE",
"350.32 399.39 CURVE SMOOTH",
"418.11 433.62 OFFCURVE",
"452 489.16 OFFCURVE",
"452 566 CURVE SMOOTH",
"451.78 606.17 OFFCURVE",
"440.81 641.04 OFFCURVE",
"419.09 670.61 CURVE SMOOTH",
"383.17 718.21 OFFCURVE",
"328.47 742 OFFCURVE",
"255 742 CURVE SMOOTH",
"185.28 742 OFFCURVE",
"120.28 713.67 OFFCURVE",
"60 657 CURVE",
"94 617 LINE",
"140.14 666.18 OFFCURVE",
"193.47 691.51 OFFCURVE",
"254 693 CURVE SMOOTH",
"280.03 692.55 OFFCURVE",
"303.51 687.31 OFFCURVE",
"324.42 677.3 CURVE SMOOTH",
"369.47 654.94 OFFCURVE",
"392 616.51 OFFCURVE",
"392 562 CURVE SMOOTH",
"391.95 551.71 OFFCURVE",
"391.11 541.53 OFFCURVE",
"389.48 531.45 CURVE SMOOTH",
"375.01 447.81 OFFCURVE",
"303.85 406 OFFCURVE",
"176 406 CURVE",
"176 357 LINE",
"189.19 356.98 OFFCURVE",
"202.2 356.58 OFFCURVE",
"215.04 355.8 CURVE SMOOTH",
"350.35 347.09 OFFCURVE",
"418 293.15 OFFCURVE",
"418 194 CURVE SMOOTH",
"417.8 159.86 OFFCURVE",
"409.18 129.69 OFFCURVE",
"392.15 103.5 CURVE SMOOTH",
"362.45 59.17 OFFCURVE",
"317.06 37 OFFCURVE",
"256 37 CURVE SMOOTH",
"184.01 37.36 OFFCURVE",
"120.01 67.02 OFFCURVE",
"64 126 CURVE",
"31 87 LINE",
"93.42 20.77 OFFCURVE",
"169.09 -12.57 OFFCURVE",
"258 -13 CURVE SMOOTH"
);
}
);
vertWidth = 1000;
width = 535;
}
);
note = three;
unicode = 0033;
},
{
glyphname = four;
layers = (
{
hints = (
{
horizontal = 1;
place = "{0, 21}";
target = up;
type = BottomGhost;
},
{
horizontal = 1;
place = "{208, 49}";
type = Stem;
},
{
horizontal = 1;
place = "{647, 82}";
type = Stem;
},
{
place = "{342, 56}";
type = Stem;
},
{
place = "{342, 159}";
type = Stem;
}
);
layerId = "ADFD292A-F9BB-471F-8DBA-A614A3A5AC29";
paths = (
{
closed = 1;
nodes = (
"86 257 LINE",
"284 546 LINE SMOOTH",
"304.67 578.55 OFFCURVE",
"324 612.22 OFFCURVE",
"342 647 CURVE",
"347 647 LINE",
"343.72 609.21 OFFCURVE",
"342.05 568.88 OFFCURVE",
"342 526 CURVE SMOOTH",
"342 257 LINE"
);
},
{
closed = 1;
nodes = (
"342 0 LINE",
"398 0 LINE",
"398 208 LINE",
"501 208 LINE",
"501 257 LINE",
"398 257 LINE",
"398 729 LINE",
"341 729 LINE",
"19 245 LINE",
"19 208 LINE",
"342 208 LINE"
);
}
);
vertWidth = 1000;
width = 535;
}
);
note = four;
unicode = 0034;
},
{
glyphname = five;
layers = (
{
hints = (
{
horizontal = 1;
place = "{-13, 50}";
type = Stem;
},
{
horizontal = 1;
place = "{419, 49}";
type = Stem;
},
{
horizontal = 1;
place = "{678, 51}";
type = Stem;
},
{
place = "{421, 60}";
type = Stem;
}
);
layerId = "ADFD292A-F9BB-471F-8DBA-A614A3A5AC29";
paths = (
{
closed = 1;
nodes = (
"303.48 -12.76 OFFCURVE",
"348.92 2.52 OFFCURVE",
"389.34 32.84 CURVE SMOOTH",
"450.45 79.51 OFFCURVE",
"481 146.57 OFFCURVE",
"481 234 CURVE SMOOTH",
"480.83 289.48 OFFCURVE",
"469.57 336.31 OFFCURVE",
"447.22 374.5 CURVE SMOOTH",
"409.93 436.83 OFFCURVE",
"349.19 468 OFFCURVE",
"265 468 CURVE SMOOTH",
"223.05 467.81 OFFCURVE",
"182.38 456.14 OFFCURVE",
"143 433 CURVE",
"164 678 LINE",
"445 678 LINE",
"445 729 LINE",
"112 729 LINE",
"87 396 LINE",
"125 373 LINE",
"126.6 374.09 OFFCURVE",
"128.5 375.37 OFFCURVE",
"130.68 376.84 CURVE SMOOTH",
"172.75 404.95 OFFCURVE",
"213.86 419 OFFCURVE",
"254 419 CURVE SMOOTH",
"286.61 418.83 OFFCURVE",
"315.62 411.58 OFFCURVE",
"341.03 397.24 CURVE SMOOTH",
"394.34 366.23 OFFCURVE",
"421 311.15 OFFCURVE",
"421 232 CURVE SMOOTH",
"420.78 183.05 OFFCURVE",
"408.01 140.79 OFFCURVE",
"382.69 105.21 CURVE SMOOTH",
"349.59 59.74 OFFCURVE",
"305.69 37 OFFCURVE",
"251 37 CURVE SMOOTH",
"240.63 37.03 OFFCURVE",
"230.22 37.57 OFFCURVE",
"219.76 38.61 CURVE SMOOTH",
"160.99 44.86 OFFCURVE",
"107.73 72.99 OFFCURVE",
"60 123 CURVE",
"28 82 LINE",
"30.05 80 OFFCURVE",
"32.39 77.75 OFFCURVE",
"35.03 75.24 CURVE SMOOTH",
"97.25 16.41 OFFCURVE",
"169.91 -13 OFFCURVE",
"253 -13 CURVE SMOOTH"
);
}
);
vertWidth = 1000;
width = 535;
}
);
note = five;
unicode = 0035;
},
{
glyphname = six;
layers = (
{
hints = (
{
horizontal = 1;
place = "{-13, 49}";
type = Stem;
},
{
horizontal = 1;
place = "{402, 47}";
type = Stem;
},
{
horizontal = 1;
place = "{692, 50}";
type = Stem;
},
{
place = "{59, 58}";
type = Stem;
},
{
place = "{433, 57}";
type = Stem;
},
{
place = "{59, 57}";
type = Stem;
}
);
layerId = "ADFD292A-F9BB-471F-8DBA-A614A3A5AC29";
paths = (
{
closed = 1;
nodes = (
"304.85 401.89 OFFCURVE",
"324.03 398.72 OFFCURVE",
"341.55 392.48 CURVE SMOOTH",
"402.51 369.82 OFFCURVE",
"433 312.32 OFFCURVE",
"433 220 CURVE SMOOTH",
"432.82 176.6 OFFCURVE",
"423.31 138.37 OFFCURVE",
"404.48 105.3 CURVE SMOOTH",
"377.54 59.1 OFFCURVE",
"340.71 36 OFFCURVE",
"294 36 CURVE SMOOTH",
"275.56 36.11 OFFCURVE",
"258.08 39.05 OFFCURVE",
"241.55 44.8 CURVE SMOOTH",
"166.47 72.15 OFFCURVE",
"124.95 156.55 OFFCURVE",
"117 298 CURVE",
"121.06 303.48 OFFCURVE",
"125.46 309.1 OFFCURVE",
"130.19 314.89 CURVE SMOOTH",
"178.38 372.97 OFFCURVE",
"229.64 402 OFFCURVE",
"284 402 CURVE SMOOTH"
);
},
{
closed = 1;
nodes = (
"338.41 -12.71 OFFCURVE",
"379.13 3.63 OFFCURVE",
"415.18 36.02 CURVE SMOOTH",
"465.06 81.77 OFFCURVE",
"490 143.1 OFFCURVE",
"490 220 CURVE SMOOTH",
"489.9 260.38 OFFCURVE",
"484.46 296.21 OFFCURVE",
"473.7 327.51 CURVE SMOOTH",
"445.14 408.5 OFFCURVE",
"384.58 449 OFFCURVE",
"292 449 CURVE SMOOTH",
"288.35 448.98 OFFCURVE",
"284.35 448.84 OFFCURVE",
"280 448.58 CURVE SMOOTH",
"218.48 444.3 OFFCURVE",
"163.81 412.77 OFFCURVE",
"116 354 CURVE",
"117.01 430.32 OFFCURVE",
"126.43 494.61 OFFCURVE",
"144.27 546.88 CURVE SMOOTH",
"177.8 643.62 OFFCURVE",
"237.04 692 OFFCURVE",
"322 692 CURVE SMOOTH",
"369.32 691.65 OFFCURVE",
"408.99 672.31 OFFCURVE",
"441 634 CURVE",
"476 672 LINE",
"433.93 718.13 OFFCURVE",
"382.26 741.46 OFFCURVE",
"321 742 CURVE SMOOTH",
"276.97 741.83 OFFCURVE",
"237.19 731.23 OFFCURVE",
"201.65 710.21 CURVE SMOOTH",
"106.55 652.81 OFFCURVE",
"59 530.74 OFFCURVE",
"59 344 CURVE SMOOTH",
"59.13 252.65 OFFCURVE",
"73.28 176.87 OFFCURVE",
"101.44 116.67 CURVE SMOOTH",
"142.44 30.22 OFFCURVE",
"206.29 -13 OFFCURVE",
"293 -13 CURVE SMOOTH"
);
}
);
vertWidth = 1000;
width = 535;
}
);
note = six;
unicode = 0036;
},
{
glyphname = seven;
layers = (
{
hints = (
{
horizontal = 1;
place = "{0, 21}";
target = up;
type = BottomGhost;
},
{
horizontal = 1;
place = "{678, 51}";
type = Stem;
},
{
place = "{205, 63}";
type = Stem;
}
);
layerId = "ADFD292A-F9BB-471F-8DBA-A614A3A5AC29";
paths = (
{
closed = 1;
nodes = (
"268 0 LINE",
"273.02 129.05 OFFCURVE",
"284.78 234.19 OFFCURVE",
"303.28 315.4 CURVE SMOOTH",
"333.31 446.15 OFFCURVE",
"394.88 572.35 OFFCURVE",
"488 694 CURVE",
"488 729 LINE",
"48 729 LINE",
"48 678 LINE",
"417 678 LINE",
"367.3 608.64 OFFCURVE",
"327.46 539.57 OFFCURVE",
"297.49 470.77 CURVE SMOOTH",
"243.65 346.41 OFFCURVE",
"212.82 189.49 OFFCURVE",
"205 0 CURVE"
);
}
);
vertWidth = 1000;
width = 535;
}
);
note = seven;
unicode = 0037;
},
{
glyphname = eight;
layers = (
{
hints = (
{
horizontal = 1;
place = "{-13, 47}";
type = Stem;
},
{
horizontal = 1;
place = "{692, 47}";
type = Stem;
},
{
place = "{431, 58}";
type = Stem;
},
{
place = "{84, 56}";
type = Stem;
},
{
place = "{411, 54}";
type = Stem;
},
{
place = "{45, 55}";
type = Stem;
}
);
layerId = "ADFD292A-F9BB-471F-8DBA-A614A3A5AC29";
paths = (
{
closed = 1;
nodes = (
"326.05 -12.79 OFFCURVE",
"373.46 1.1 OFFCURVE",
"413.22 28.67 CURVE SMOOTH",
"463.74 64.41 OFFCURVE",
"489 112.18 OFFCURVE",
"489 172 CURVE SMOOTH",
"488.94 186.47 OFFCURVE",
"487.56 200.68 OFFCURVE",
"484.89 214.61 CURVE SMOOTH",
"473.25 272.12 OFFCURVE",
"433.29 321.24 OFFCURVE",
"365 362 CURVE",
"365 367 LINE",
"371.14 371.99 OFFCURVE",
"377.57 377.68 OFFCURVE",
"384.29 384.08 CURVE SMOOTH",
"438.09 436.08 OFFCURVE",
"465 490.72 OFFCURVE",
"465 548 CURVE SMOOTH",
"464.82 588.84 OFFCURVE",
"455.19 624.94 OFFCURVE",
"436.13 656.3 CURVE SMOOTH",
"401.8 711.43 OFFCURVE",
"347.09 739 OFFCURVE",
"272 739 CURVE SMOOTH",
"229.08 738.78 OFFCURVE",
"191.02 727.33 OFFCURVE",
"157.82 704.64 CURVE SMOOTH",
"108.61 670.23 OFFCURVE",
"84 621.68 OFFCURVE",
"84 559 CURVE SMOOTH",
"84.49 493.8 OFFCURVE",
"117.82 438.47 OFFCURVE",
"184 393 CURVE",
"184 389 LINE",
"170.56 381.71 OFFCURVE",
"157.36 373.24 OFFCURVE",
"144.39 363.58 CURVE SMOOTH",
"78.13 313.49 OFFCURVE",
"45 252.63 OFFCURVE",
"45 181 CURVE SMOOTH",
"45.27 135.58 OFFCURVE",
"60.29 95.58 OFFCURVE",
"90.06 60.98 CURVE SMOOTH",
"133.47 11.66 OFFCURVE",
"193.78 -13 OFFCURVE",
"271 -13 CURVE SMOOTH"
);
},
{
closed = 1;
nodes = (
"287.51 396.66 OFFCURVE",
"260.39 408.72 OFFCURVE",
"240.65 419.19 CURVE SMOOTH",
"173.55 455.1 OFFCURVE",
"140 501.71 OFFCURVE",
"140 559 CURVE SMOOTH",
"140.19 586.03 OFFCURVE",
"146.82 610.54 OFFCURVE",
"159.89 632.52 CURVE SMOOTH",
"184.31 672.18 OFFCURVE",
"221.34 692 OFFCURVE",
"271 692 CURVE SMOOTH",
"302.34 691.79 OFFCURVE",
"329.84 683.55 OFFCURVE",
"353.5 667.29 CURVE SMOOTH",
"391.83 640.03 OFFCURVE",
"411 599.6 OFFCURVE",
"411 546 CURVE SMOOTH",
"410.62 486.86 OFFCURVE",
"380.96 432.53 OFFCURVE",
"322 383 CURVE"
);
},
{
closed = 1;
nodes = (
"231.01 34 OFFCURVE",
"196.03 43.86 OFFCURVE",
"166.08 63.59 CURVE SMOOTH",
"122.03 92.6 OFFCURVE",
"100 132.74 OFFCURVE",
"100 184 CURVE SMOOTH",
"100.03 189.65 OFFCURVE",
"100.32 195.6 OFFCURVE",
"100.86 201.85 CURVE SMOOTH",
"107.42 269.05 OFFCURVE",
"146.8 324.1 OFFCURVE",
"219 367 CURVE",
"273.48 345.7 OFFCURVE",
"312.59 328.34 OFFCURVE",
"336.34 314.9 CURVE SMOOTH",
"399.45 278.85 OFFCURVE",
"431 231.55 OFFCURVE",
"431 173 CURVE SMOOTH",
"430.79 145.62 OFFCURVE",
"423.23 120.65 OFFCURVE",
"408.32 98.1 CURVE SMOOTH",
"379.12 55.37 OFFCURVE",
"333.34 34 OFFCURVE",
"271 34 CURVE SMOOTH"
);
}
);
vertWidth = 1000;
width = 535;
}
);
note = eight;
unicode = 0038;
},
{
glyphname = nine;
layers = (
{
hints = (
{
horizontal = 1;
place = "{-13, 50}";
type = Stem;
},
{
horizontal = 1;
place = "{280, 47}";
type = Stem;
},
{
horizontal = 1;
place = "{694, 48}";
type = Stem;
},
{
place = "{46, 58}";
type = Stem;
},
{
place = "{420, 58}";
type = Stem;
},
{
place = "{421, 57}";
type = Stem;
}
);
layerId = "ADFD292A-F9BB-471F-8DBA-A614A3A5AC29";
paths = (
{
closed = 1;
nodes = (
"104.18 552.26 OFFCURVE",
"113.46 590.45 OFFCURVE",
"131.85 623.58 CURVE SMOOTH",
"158.54 670.53 OFFCURVE",
"195.25 694 OFFCURVE",
"242 694 CURVE SMOOTH",
"264.09 693.87 OFFCURVE",
"284.66 689.95 OFFCURVE",
"303.71 682.22 CURVE SMOOTH",
"376.14 651.69 OFFCURVE",
"414.91 568.95 OFFCURVE",
"420 434 CURVE",
"419.61 433.46 OFFCURVE",
"418.99 432.58 OFFCURVE",
"418.13 431.37 CURVE SMOOTH",
"368.09 361.79 OFFCURVE",
"312.05 327 OFFCURVE",
"250 327 CURVE SMOOTH",
"226.6 327.14 OFFCURVE",
"205.4 331.41 OFFCURVE",
"186.41 339.81 CURVE SMOOTH",
"131.47 365.13 OFFCURVE",
"104 421.53 OFFCURVE",
"104 509 CURVE SMOOTH"
);
},
{
closed = 1;
nodes = (
"265.87 -12.81 OFFCURVE",
"305.5 -1.05 OFFCURVE",
"340.88 22.26 CURVE SMOOTH",
"432.29 83.72 OFFCURVE",
"478 210.97 OFFCURVE",
"478 404 CURVE SMOOTH",
"477.86 489.66 OFFCURVE",
"463.87 560.92 OFFCURVE",
"436.01 617.77 CURVE SMOOTH",
"394.84 700.59 OFFCURVE",
"330.51 742 OFFCURVE",
"243 742 CURVE SMOOTH",
"197.52 741.71 OFFCURVE",
"156.79 725.48 OFFCURVE",
"120.82 693.3 CURVE SMOOTH",
"70.94 647.74 OFFCURVE",
"46 586.31 OFFCURVE",
"46 509 CURVE SMOOTH",
"46.12 463.5 OFFCURVE",
"53.25 423.73 OFFCURVE",
"67.37 389.71 CURVE SMOOTH",
"98.44 316.57 OFFCURVE",
"156.99 280 OFFCURVE",
"243 280 CURVE SMOOTH",
"307.73 280.42 OFFCURVE",
"367.07 312.75 OFFCURVE",
"421 377 CURVE",
"418.93 294.17 OFFCURVE",
"407.65 225.41 OFFCURVE",
"387.17 170.71 CURVE SMOOTH",
"353.31 81.57 OFFCURVE",
"298.58 37 OFFCURVE",
"223 37 CURVE SMOOTH",
"172.42 37.32 OFFCURVE",
"130.09 56.65 OFFCURVE",
"96 95 CURVE",
"61 57 LINE",
"105.24 10.84 OFFCURVE",
"158.9 -12.49 OFFCURVE",
"222 -13 CURVE SMOOTH"
);
}
);
vertWidth = 1000;
width = 535;
}
);
note = nine;
unicode = 0039;
},
{
glyphname = A;
layers = (
{
hints = (
{
horizontal = 1;
place = "{0, 21}";
target = up;
type = BottomGhost;
},
{
horizontal = 1;
place = "{245, 48}";
type = Stem;
},
{
horizontal = 1;
place = "{675, 54}";
type = Stem;
},
{
place = "{8, 572}";
type = Stem;
}
);
layerId = "ADFD292A-F9BB-471F-8DBA-A614A3A5AC29";
paths = (
{
closed = 1;
nodes = (
"212 425 LINE SMOOTH",
"243.61 517.68 OFFCURVE",
"269.94 601.01 OFFCURVE",
"291 675 CURVE",
"295 675 LINE",
"323.08 580.01 OFFCURVE",
"349.74 496.68 OFFCURVE",
"375 425 CURVE SMOOTH",
"419 293 LINE",
"167 293 LINE"
);
},
{
closed = 1;
nodes = (
"8 0 LINE",
"68 0 LINE",
"151 245 LINE",
"435 245 LINE",
"516 0 LINE",
"580 0 LINE",
"325 729 LINE",
"263 729 LINE"
);
}
);
vertWidth = 1000;
width = 587;
}
);
note = A;
unicode = 0041;
},
{
glyphname = B;
layers = (
{
hints = (
{
horizontal = 1;
place = "{0, 50}";
type = Stem;
},
{
horizontal = 1;
place = "{363, 48}";
type = Stem;
},
{
horizontal = 1;
place = "{680, 49}";
type = Stem;
},
{
place = "{106, 60}";
type = Stem;
},
{
place = "{535, 59}";
type = Stem;
},
{
place = "{490, 60}";
type = Stem;
}
);
layerId = "ADFD292A-F9BB-471F-8DBA-A614A3A5AC29";
paths = (
{
closed = 1;
nodes = (
"106 0 LINE",
"322 0 LINE SMOOTH",
"376.95 0.11 OFFCURVE",
"424.9 8.13 OFFCURVE",
"465.85 24.06 CURVE SMOOTH",
"551.28 57.92 OFFCURVE",
"594 120.9 OFFCURVE",
"594 213 CURVE SMOOTH",
"593.9 235.07 OFFCURVE",
"590.78 255.77 OFFCURVE",
"584.65 275.12 CURVE SMOOTH",
"564.21 337.18 OFFCURVE",
"515.66 374.81 OFFCURVE",
"439 388 CURVE",
"439 393 LINE",
"453.31 397.48 OFFCURVE",
"466.82 403.68 OFFCURVE",
"479.51 411.63 CURVE SMOOTH",
"526.5 441.94 OFFCURVE",
"550 488.73 OFFCURVE",
"550 552 CURVE SMOOTH",
"549.91 571.09 OFFCURVE",
"547.5 589.07 OFFCURVE",
"542.77 605.95 CURVE SMOOTH",
"518.74 687.98 OFFCURVE",
"440.15 729 OFFCURVE",
"307 729 CURVE SMOOTH",
"106 729 LINE"
);
},
{
closed = 1;
nodes = (
"166 411 LINE",
"166 680 LINE",
"294 680 LINE SMOOTH",
"329.88 679.94 OFFCURVE",
"360.68 677.02 OFFCURVE",
"386.4 671.24 CURVE SMOOTH",
"455.47 655.24 OFFCURVE",
"490 613.16 OFFCURVE",
"490 545 CURVE SMOOTH",
"489.38 456.49 OFFCURVE",
"422.05 411.82 OFFCURVE",
"288 411 CURVE SMOOTH"
);
},
{
closed = 1;
nodes = (
"166 50 LINE",
"166 363 LINE",
"308 363 LINE SMOOTH",
"458.06 362.56 OFFCURVE",
"533.72 312.56 OFFCURVE",
"535 213 CURVE SMOOTH",
"534.98 208.39 OFFCURVE",
"534.81 203.53 OFFCURVE",
"534.5 198.43 CURVE SMOOTH",
"527.58 99.48 OFFCURVE",
"452.08 50 OFFCURVE",
"308 50 CURVE SMOOTH"
);
}
);
vertWidth = 1000;
width = 642;
}
);
note = B;
unicode = 0042;
},
{
glyphname = C;
layers = (
{
hints = (
{
horizontal = 1;
place = "{-13, 54}";
type = Stem;
},
{
horizontal = 1;
place = "{688, 54}";
type = Stem;
},
{
place = "{60, 63}";
type = Stem;
}
);
layerId = "ADFD292A-F9BB-471F-8DBA-A614A3A5AC29";
paths = (
{
closed = 1;
nodes = (
"453.02 -12.68 OFFCURVE",
"525.69 21.99 OFFCURVE",
"586 91 CURVE",
"552 129 LINE",
"498.75 70.96 OFFCURVE",
"438.42 41.63 OFFCURVE",
"371 41 CURVE SMOOTH",
"312.86 41.25 OFFCURVE",
"263.11 59.16 OFFCURVE",
"221.72 94.74 CURVE SMOOTH",
"155.9 152.42 OFFCURVE",
"123 243.18 OFFCURVE",
"123 367 CURVE SMOOTH",
"123.16 448.29 OFFCURVE",
"139.1 516.57 OFFCURVE",
"170.8 571.84 CURVE SMOOTH",
"215.87 649.28 OFFCURVE",
"283.61 688 OFFCURVE",
"374 688 CURVE SMOOTH",
"435.65 687.66 OFFCURVE",
"488.32 663.33 OFFCURVE",
"532 615 CURVE",
"566 654 LINE",
"563.39 657.04 OFFCURVE",
"560.4 660.37 OFFCURVE",
"557.03 663.98 CURVE SMOOTH",
"507.53 715.99 OFFCURVE",
"446.52 742 OFFCURVE",
"374 742 CURVE SMOOTH",
"294.14 741.73 OFFCURVE",
"226.59 716.3 OFFCURVE",
"171.35 665.69 CURVE SMOOTH",
"97.12 596.71 OFFCURVE",
"60 496.48 OFFCURVE",
"60 365 CURVE SMOOTH",
"60.21 257.97 OFFCURVE",
"85.67 170.12 OFFCURVE",
"136.39 101.43 CURVE SMOOTH",
"193.41 25.14 OFFCURVE",
"270.61 -13 OFFCURVE",
"368 -13 CURVE SMOOTH"
);
}
);
vertWidth = 1000;
width = 627;
}
);
note = C;
unicode = 0043;
},
{
glyphname = D;
layers = (
{
hints = (
{
horizontal = 1;
place = "{0, 51}";
type = Stem;
},
{
horizontal = 1;
place = "{679, 50}";
type = Stem;
},
{
place = "{106, 60}";
type = Stem;
},
{
place = "{549, 63}";
type = Stem;
}
);
layerId = "ADFD292A-F9BB-471F-8DBA-A614A3A5AC29";
paths = (
{
closed = 1;
nodes = (
"106 0 LINE",
"279 0 LINE SMOOTH",
"354.71 0 OFFCURVE",
"418.39 16.35 OFFCURVE",
"470.04 49.04 CURVE SMOOTH",
"564.68 108.95 OFFCURVE",
"612 214.93 OFFCURVE",
"612 367 CURVE SMOOTH",
"611.88 438.68 OFFCURVE",
"600.54 500.91 OFFCURVE",
"577.98 553.69 CURVE SMOOTH",
"527.3 670.56 OFFCURVE",
"427.3 729 OFFCURVE",
"278 729 CURVE SMOOTH",
"106 729 LINE"
);
},
{
closed = 1;
nodes = (
"166 51 LINE",
"166 679 LINE",
"272 679 LINE SMOOTH",
"316.91 678.88 OFFCURVE",
"356.98 672.04 OFFCURVE",
"392.22 658.47 CURVE SMOOTH",
"496.74 617.32 OFFCURVE",
"549 520.16 OFFCURVE",
"549 367 CURVE SMOOTH",
"548.91 313.87 OFFCURVE",
"542.16 266.51 OFFCURVE",
"528.75 224.93 CURVE SMOOTH",
"490.69 108.98 OFFCURVE",
"405.11 51 OFFCURVE",
"272 51 CURVE SMOOTH"
);
}
);
vertWidth = 1000;
width = 672;
}
);
note = D;
unicode = 0044;
},
{
glyphname = E;
layers = (
{
hints = (
{
horizontal = 1;
place = "{0, 52}";
type = Stem;
},
{
horizontal = 1;
place = "{361, 51}";
type = Stem;
},
{
horizontal = 1;
place = "{678, 51}";
type = Stem;
},
{
place = "{106, 60}";
type = Stem;
}
);
layerId = "ADFD292A-F9BB-471F-8DBA-A614A3A5AC29";
paths = (
{
closed = 1;
nodes = (
"106 0 LINE",
"520 0 LINE",
"520 52 LINE",
"166 52 LINE",
"166 361 LINE",
"455 361 LINE",
"455 412 LINE",
"166 412 LINE",
"166 678 LINE",
"509 678 LINE",
"509 729 LINE",
"106 729 LINE"
);
}
);
vertWidth = 1000;
width = 573;
}
);
note = E;
unicode = 0045;
},
{
glyphname = F;
layers = (
{
hints = (
{
horizontal = 1;
place = "{0, 21}";
target = up;
type = BottomGhost;
},
{
horizontal = 1;
place = "{346, 51}";
type = Stem;
},
{
horizontal = 1;
place = "{678, 51}";
type = Stem;
},
{
place = "{106, 60}";
type = Stem;
}
);
layerId = "ADFD292A-F9BB-471F-8DBA-A614A3A5AC29";
paths = (
{
closed = 1;
nodes = (
"106 0 LINE",
"166 0 LINE",
"166 346 LINE",
"455 346 LINE",
"455 397 LINE",
"166 397 LINE",
"166 678 LINE",
"508 678 LINE",
"508 729 LINE",
"106 729 LINE"
);
}
);
vertWidth = 1000;
width = 532;
}
);
note = F;
unicode = 0046;
},
{
glyphname = G;
layers = (
{
hints = (
{
horizontal = 1;
place = "{-13, 54}";
type = Stem;
},
{
horizontal = 1;
place = "{312, 51}";
type = Stem;
},
{
horizontal = 1;
place = "{688, 54}";
type = Stem;
},
{
place = "{60, 63}";
type = Stem;
},
{
place = "{537, 58}";
type = Stem;
}
);
layerId = "ADFD292A-F9BB-471F-8DBA-A614A3A5AC29";
paths = (
{
closed = 1;
nodes = (
"466.46 -11.26 OFFCURVE",
"539.46 16.41 OFFCURVE",
"595 70 CURVE",
"595 363 LINE",
"368 363 LINE",
"368 312 LINE",
"537 312 LINE",
"537 93 LINE",
"535.6 91.63 OFFCURVE",
"533.83 89.97 OFFCURVE",
"531.68 88 CURVE SMOOTH",
"496.19 56.66 OFFCURVE",
"446.3 41 OFFCURVE",
"382 41 CURVE SMOOTH",
"322.38 41.22 OFFCURVE",
"271.46 57.78 OFFCURVE",
"229.23 90.68 CURVE SMOOTH",
"158.41 146.91 OFFCURVE",
"123 239.02 OFFCURVE",
"123 367 CURVE SMOOTH",
"123.17 447.74 OFFCURVE",
"139.56 515.62 OFFCURVE",
"172.17 570.65 CURVE SMOOTH",
"219.22 648.89 OFFCURVE",
"290.5 688 OFFCURVE",
"386 688 CURVE SMOOTH",
"451.01 687.67 OFFCURVE",
"506.34 663.34 OFFCURVE",
"552 615 CURVE",
"587 654 LINE",
"531.26 712.25 OFFCURVE",
"463.92 741.58 OFFCURVE",
"385 742 CURVE SMOOTH",
"301.62 741.74 OFFCURVE",
"231.29 716 OFFCURVE",
"174.02 664.78 CURVE SMOOTH",
"98.01 595.84 OFFCURVE",
"60 495.92 OFFCURVE",
"60 365 CURVE SMOOTH",
"60.21 259.55 OFFCURVE",
"85.23 172.8 OFFCURVE",
"135.08 104.74 CURVE SMOOTH",
"193.27 26.25 OFFCURVE",
"273.58 -13 OFFCURVE",
"376 -13 CURVE SMOOTH"
);
}
);
vertWidth = 1000;
width = 673;
}
);
note = G;
unicode = 0047;
},
{
glyphname = H;
layers = (
{
hints = (
{
horizontal = 1;
place = "{0, 21}";
target = up;
type = BottomGhost;
},
{
horizontal = 1;
place = "{361, 52}";
type = Stem;
},
{
horizontal = 1;
place = "{729, -20}";
target = down;
type = TopGhost;
},
{
place = "{106, 60}";
type = Stem;
},
{
place = "{545, 60}";
type = Stem;
}
);
layerId = "ADFD292A-F9BB-471F-8DBA-A614A3A5AC29";
paths = (
{
closed = 1;
nodes = (
"106 0 LINE",
"166 0 LINE",
"166 361 LINE",
"545 361 LINE",
"545 0 LINE",
"605 0 LINE",
"605 729 LINE",
"545 729 LINE",
"545 413 LINE",
"166 413 LINE",
"166 729 LINE",
"106 729 LINE"
);
}
);
vertWidth = 1000;
width = 710;
}
);
note = H;
unicode = 0048;
},
{
glyphname = I;
layers = (
{
hints = (
{
horizontal = 1;
place = "{0, 21}";
target = up;
type = BottomGhost;
},
{
horizontal = 1;
place = "{729, -20}";
target = down;
type = TopGhost;
},
{
place = "{106, 60}";
type = Stem;
}
);
layerId = "ADFD292A-F9BB-471F-8DBA-A614A3A5AC29";
paths = (
{
closed = 1;
nodes = (
"106 0 LINE",
"166 0 LINE",
"166 729 LINE",
"106 729 LINE"
);
}
);
vertWidth = 1000;
width = 272;
}
);
note = I;
unicode = 0049;
},
{
glyphname = J;
layers = (
{
hints = (
{
horizontal = 1;
place = "{-13, 54}";
type = Stem;
},
{
horizontal = 1;
place = "{729, -20}";
target = down;
type = TopGhost;
},
{
place = "{353, 60}";
type = Stem;
}
);
layerId = "ADFD292A-F9BB-471F-8DBA-A614A3A5AC29";
paths = (
{
closed = 1;
nodes = (
"255.89 -12.88 OFFCURVE",
"281.96 -8.41 OFFCURVE",
"305.23 0.43 CURVE SMOOTH",
"377.08 28.64 OFFCURVE",
"413 95.84 OFFCURVE",
"413 202 CURVE SMOOTH",
"413 729 LINE",
"353 729 LINE",
"353 208 LINE SMOOTH",
"352.95 186.74 OFFCURVE",
"351.5 167.3 OFFCURVE",
"348.65 149.66 CURVE SMOOTH",
"336.41 77.22 OFFCURVE",
"295.2 41 OFFCURVE",
"225 41 CURVE SMOOTH",
"220.11 41.02 OFFCURVE",
"215.03 41.21 OFFCURVE",
"209.75 41.55 CURVE SMOOTH",
"158.89 45.36 OFFCURVE",
"117.98 73.51 OFFCURVE",
"87 126 CURVE",
"42 96 LINE",
"81.95 24.1 OFFCURVE",
"143.61 -12.23 OFFCURVE",
"227 -13 CURVE SMOOTH"
);
}
);
vertWidth = 1000;
width = 517;
}
);
note = J;
unicode = 004A;
},
{
glyphname = K;
layers = (
{
hints = (
{
horizontal = 1;
place = "{0, 21}";
target = up;
type = BottomGhost;
},
{
horizontal = 1;
place = "{729, -20}";
target = down;
type = TopGhost;
},
{
place = "{106, 60}";
type = Stem;
}
);
layerId = "ADFD292A-F9BB-471F-8DBA-A614A3A5AC29";
paths = (
{
closed = 1;
nodes = (
"106 0 LINE",
"166 0 LINE",
"166 246 LINE",
"309 411 LINE",
"545 0 LINE",
"614 0 LINE",
"349 458 LINE",
"581 729 LINE",
"510 729 LINE",
"168 333 LINE",
"166 333 LINE",
"166 729 LINE",
"106 729 LINE"
);
}
);
vertWidth = 1000;
width = 623;
}
);
note = K;
unicode = 004B;
},
{
glyphname = L;
layers = (
{
hints = (
{
horizontal = 1;
place = "{0, 52}";
type = Stem;
},
{
horizontal = 1;
place = "{729, -20}";
target = down;
type = TopGhost;
},
{
place = "{106, 60}";
type = Stem;
}
);
layerId = "ADFD292A-F9BB-471F-8DBA-A614A3A5AC29";
paths = (
{
closed = 1;
nodes = (
"106 0 LINE",
"498 0 LINE",
"498 52 LINE",
"166 52 LINE",
"166 729 LINE",
"106 729 LINE"
);
}
);
vertWidth = 1000;
width = 522;
}
);
note = L;
unicode = 004C;
},
{
glyphname = M;
layers = (
{
hints = (
{
horizontal = 1;
place = "{0, 21}";
target = up;
type = BottomGhost;
},
{
horizontal = 1;
place = "{78, 72}";
type = Stem;
},
{
horizontal = 1;
place = "{663, 66}";
type = Stem;
},
{
place = "{106, 55}";
type = Stem;
},
{
place = "{624, 57}";
type = Stem;
}
);
layerId = "ADFD292A-F9BB-471F-8DBA-A614A3A5AC29";
paths = (
{
closed = 1;
nodes = (
"106 0 LINE",
"161 0 LINE",
"161 462 LINE SMOOTH",
"160.97 501.04 OFFCURVE",
"158.64 568.04 OFFCURVE",
"154 663 CURVE",
"158 663 LINE",
"215 500 LINE",
"369 78 LINE",
"417 78 LINE",
"570 500 LINE",
"627 663 LINE",
"631 663 LINE",
"626.36 568.74 OFFCURVE",
"624.03 501.74 OFFCURVE",
"624 462 CURVE SMOOTH",
"624 0 LINE",
"681 0 LINE",
"681 729 LINE",
"601 729 LINE",
"451 310 LINE SMOOTH",
"446.72 297.38 OFFCURVE",
"440.26 278.02 OFFCURVE",
"431.63 251.92 CURVE SMOOTH",
"416.61 206.47 OFFCURVE",
"405.07 172.5 OFFCURVE",
"397 150 CURVE",
"393 150 LINE",
"386.75 167.45 OFFCURVE",
"377.25 194.12 OFFCURVE",
"364.5 230 CURVE SMOOTH",
"351.83 265.67 OFFCURVE",
"342.33 292.33 OFFCURVE",
"336 310 CURVE SMOOTH",
"186 729 LINE",
"106 729 LINE"
);
}
);
vertWidth = 1000;
width = 787;
}
);
note = M;
unicode = 004D;
},
{
glyphname = N;
layers = (
{
hints = (
{
horizontal = 1;
place = "{0, 81}";
type = Stem;
},
{
horizontal = 1;
place = "{648, 81}";
type = Stem;
},
{
place = "{106, 57}";
type = Stem;
},
{
place = "{544, 57}";
type = Stem;
}
);
layerId = "ADFD292A-F9BB-471F-8DBA-A614A3A5AC29";
paths = (
{
closed = 1;
nodes = (
"106 0 LINE",
"163 0 LINE",
"163 437 LINE SMOOTH",
"162.99 452.77 OFFCURVE",
"160.32 523.11 OFFCURVE",
"155 648 CURVE",
"160 648 LINE",
"242 502 LINE",
"539 0 LINE",
"601 0 LINE",
"601 729 LINE",
"544 729 LINE",
"544 297 LINE SMOOTH",
"544.02 249.21 OFFCURVE",
"546.69 177.21 OFFCURVE",
"552 81 CURVE",
"547 81 LINE",
"466 228 LINE",
"168 729 LINE",
"106 729 LINE"
);
}
);
vertWidth = 1000;
width = 707;
}
);
note = N;
unicode = 004E;
},
{
glyphname = O;
layers = (
{
hints = (
{
horizontal = 1;
place = "{-13, 54}";
type = Stem;
},
{
horizontal = 1;
place = "{688, 54}";
type = Stem;
},
{
place = "{60, 63}";
type = Stem;
},
{
place = "{603, 62}";
type = Stem;
}
);
layerId = "ADFD292A-F9BB-471F-8DBA-A614A3A5AC29";
paths = (
{
closed = 1;
nodes = (
"439.47 -12.71 OFFCURVE",
"505.11 13.75 OFFCURVE",
"558.93 66.39 CURVE SMOOTH",
"629.64 136.59 OFFCURVE",
"665 236.79 OFFCURVE",
"665 367 CURVE SMOOTH",
"664.8 472.25 OFFCURVE",
"640.28 558.8 OFFCURVE",
"591.46 626.67 CURVE SMOOTH",
"535.46 703.56 OFFCURVE",
"458.98 742 OFFCURVE",
"362 742 CURVE SMOOTH",
"285.52 741.72 OFFCURVE",
"220.55 716.07 OFFCURVE",
"167.08 665.06 CURVE SMOOTH",
"95.69 595.95 OFFCURVE",
"60 496.59 OFFCURVE",
"60 367 CURVE SMOOTH",
"60.21 258.39 OFFCURVE",
"86.06 169.25 OFFCURVE",
"137.55 99.57 CURVE SMOOTH",
"193.67 24.52 OFFCURVE",
"268.49 -13 OFFCURVE",
"362 -13 CURVE SMOOTH"
);
},
{
closed = 1;
nodes = (
"305.39 41.28 OFFCURVE",
"256.73 60.4 OFFCURVE",
"216.02 98.39 CURVE SMOOTH",
"154 157.39 OFFCURVE",
"123 246.93 OFFCURVE",
"123 367 CURVE SMOOTH",
"123.16 450.79 OFFCURVE",
"139.5 520.78 OFFCURVE",
"172.02 576.97 CURVE SMOOTH",
"215.48 650.99 OFFCURVE",
"278.81 688 OFFCURVE",
"362 688 CURVE SMOOTH",
"417.83 687.74 OFFCURVE",
"465.94 670.04 OFFCURVE",
"506.33 634.88 CURVE SMOOTH",
"570.78 577.67 OFFCURVE",
"603 488.37 OFFCURVE",
"603 367 CURVE SMOOTH",
"602.83 280.63 OFFCURVE",
"585.45 208.49 OFFCURVE",
"550.86 150.59 CURVE SMOOTH",
"506.59 77.53 OFFCURVE",
"443.64 41 OFFCURVE",
"362 41 CURVE SMOOTH"
);
}
);
vertWidth = 1000;
width = 726;
}
);
note = O;
unicode = 004F;
},
{
glyphname = P;
layers = (
{
hints = (
{
horizontal = 1;
place = "{0, 21}";
target = up;
type = BottomGhost;
},
{
horizontal = 1;
place = "{308, 50}";
type = Stem;
},
{
horizontal = 1;
place = "{679, 50}";
type = Stem;
},
{
place = "{106, 60}";
type = Stem;
},
{
place = "{500, 61}";
type = Stem;
}
);
layerId = "ADFD292A-F9BB-471F-8DBA-A614A3A5AC29";
paths = (
{
closed = 1;
nodes = (
"106 0 LINE",
"166 0 LINE",
"166 308 LINE",
"299 308 LINE SMOOTH",
"339.05 308.08 OFFCURVE",
"375.23 312.42 OFFCURVE",
"407.54 321.02 CURVE SMOOTH",
"509.84 348.88 OFFCURVE",
"561 416.54 OFFCURVE",
"561 524 CURVE SMOOTH",
"560.93 546.05 OFFCURVE",
"558.69 566.62 OFFCURVE",
"554.27 585.69 CURVE SMOOTH",
"531.29 681.23 OFFCURVE",
"444.86 729 OFFCURVE",
"295 729 CURVE SMOOTH",
"106 729 LINE"
);
},
{
closed = 1;
nodes = (
"166 358 LINE",
"166 679 LINE",
"283 679 LINE SMOOTH",
"336.47 678.92 OFFCURVE",
"379.17 673.46 OFFCURVE",
"411.11 662.62 CURVE SMOOTH",
"470.37 641.97 OFFCURVE",
"500 595.77 OFFCURVE",
"500 524 CURVE SMOOTH",
"499.9 498.67 OFFCURVE",
"496.52 476.09 OFFCURVE",
"489.86 456.28 CURVE SMOOTH",
"466.95 390.76 OFFCURVE",
"399.33 358 OFFCURVE",
"287 358 CURVE SMOOTH"
);
}
);
vertWidth = 1000;
width = 612;
}
);
note = P;
unicode = 0050;
},
{
glyphname = Q;
layers = (
{
hints = (
{
horizontal = 1;
place = "{-174, 53}";
type = Stem;
},
{
horizontal = 1;
place = "{-11, 49}";
type = Stem;
},
{
horizontal = 1;
place = "{688, 54}";
type = Stem;
},
{
place = "{60, 63}";
type = Stem;
},
{
place = "{603, 62}";
type = Stem;
}
);
layerId = "ADFD292A-F9BB-471F-8DBA-A614A3A5AC29";
paths = (
{
closed = 1;
nodes = (
"305.46 38.28 OFFCURVE",
"256.86 57.51 OFFCURVE",
"216.2 95.7 CURVE SMOOTH",
"154.07 155.19 OFFCURVE",
"123 245.63 OFFCURVE",
"123 367 CURVE SMOOTH",
"123.16 450.79 OFFCURVE",
"139.5 520.78 OFFCURVE",
"172.02 576.97 CURVE SMOOTH",
"215.48 650.99 OFFCURVE",
"278.81 688 OFFCURVE",
"362 688 CURVE SMOOTH",
"417.83 687.74 OFFCURVE",
"465.94 670.04 OFFCURVE",
"506.33 634.88 CURVE SMOOTH",
"570.78 577.67 OFFCURVE",
"603 488.37 OFFCURVE",
"603 367 CURVE SMOOTH",
"602.83 279.96 OFFCURVE",
"585.52 207.26 OFFCURVE",
"551.08 148.9 CURVE SMOOTH",
"506.84 74.97 OFFCURVE",
"443.81 38 OFFCURVE",
"362 38 CURVE SMOOTH"
);
},
{
closed = 1;
nodes = (
"614.78 -173.88 OFFCURVE",
"645.78 -169.54 OFFCURVE",
"671 -161 CURVE",
"658 -111 LINE",
"638.16 -117.51 OFFCURVE",
"613.49 -120.84 OFFCURVE",
"584 -121 CURVE SMOOTH",
"572.76 -120.96 OFFCURVE",
"561.48 -120.27 OFFCURVE",
"550.17 -118.93 CURVE SMOOTH",
"476.28 -109.6 OFFCURVE",
"425.23 -73.63 OFFCURVE",
"397 -11 CURVE",
"460.64 -3.8 OFFCURVE",
"514.92 22.35 OFFCURVE",
"559.85 67.45 CURVE SMOOTH",
"629.95 137.81 OFFCURVE",
"665 237.66 OFFCURVE",
"665 367 CURVE SMOOTH",
"664.8 472.25 OFFCURVE",
"640.28 558.8 OFFCURVE",
"591.46 626.67 CURVE SMOOTH",
"535.46 703.56 OFFCURVE",
"458.98 742 OFFCURVE",
"362 742 CURVE SMOOTH",
"285.52 741.72 OFFCURVE",
"220.55 716.07 OFFCURVE",
"167.08 665.06 CURVE SMOOTH",
"95.69 595.95 OFFCURVE",
"60 496.59 OFFCURVE",
"60 367 CURVE SMOOTH",
"60.18 270.86 OFFCURVE",
"80.75 189.42 OFFCURVE",
"121.71 122.69 CURVE SMOOTH",
"171.51 42.54 OFFCURVE",
"241.27 -2.02 OFFCURVE",
"331 -11 CURVE",
"339.28 -31.79 OFFCURVE",
"349.87 -51.32 OFFCURVE",
"362.77 -69.59 CURVE SMOOTH",
"412.79 -139.2 OFFCURVE",
"484.53 -174 OFFCURVE",
"578 -174 CURVE SMOOTH"
);
}
);
vertWidth = 1000;
width = 726;
}
);
note = Q;
unicode = 0051;
},
{
glyphname = R;
layers = (
{
hints = (
{
horizontal = 1;
place = "{0, 21}";
target = up;
type = BottomGhost;
},
{
horizontal = 1;
place = "{329, 50}";
type = Stem;
},
{
horizontal = 1;
place = "{679, 50}";
type = Stem;
},
{
place = "{106, 60}";
type = Stem;
},
{
place = "{501, 61}";
type = Stem;
}
);
layerId = "ADFD292A-F9BB-471F-8DBA-A614A3A5AC29";
paths = (
{
closed = 1;
nodes = (
"106 0 LINE",
"166 0 LINE",
"166 329 LINE",
"315 329 LINE",
"509 0 LINE",
"577 0 LINE",
"380 334 LINE",
"402.47 337.52 OFFCURVE",
"423.45 343.1 OFFCURVE",
"442.95 350.75 CURVE SMOOTH",
"522.31 382.61 OFFCURVE",
"562 443.7 OFFCURVE",
"562 534 CURVE SMOOTH",
"561.27 662.83 OFFCURVE",
"480.27 727.83 OFFCURVE",
"319 729 CURVE SMOOTH",
"106 729 LINE"
);
},
{
closed = 1;
nodes = (
"166 379 LINE",
"166 679 LINE",
"305 679 LINE SMOOTH",
"332.77 678.95 OFFCURVE",
"357.67 676.97 OFFCURVE",
"379.69 673.07 CURVE SMOOTH",
"460.56 658.25 OFFCURVE",
"501 611.9 OFFCURVE",
"501 534 CURVE SMOOTH",
"500.3 431.74 OFFCURVE",
"434.97 380.07 OFFCURVE",
"305 379 CURVE SMOOTH"
);
}
);
vertWidth = 1000;
width = 608;
}
);
note = R;
unicode = 0052;
},
{
glyphname = S;
layers = (
{
hints = (
{
horizontal = 1;
place = "{-13, 54}";
type = Stem;
},
{
horizontal = 1;
place = "{688, 54}";
type = Stem;
},
{
place = "{88, 61}";
type = Stem;
},
{
place = "{474, 61}";
type = Stem;
}
);
layerId = "ADFD292A-F9BB-471F-8DBA-A614A3A5AC29";
paths = (
{
closed = 1;
nodes = (
"359.71 -12.79 OFFCURVE",
"411.41 1.92 OFFCURVE",
"454.09 31.16 CURVE SMOOTH",
"508.03 68.82 OFFCURVE",
"535 120.1 OFFCURVE",
"535 185 CURVE SMOOTH",
"534.83 220.68 OFFCURVE",
"527.27 252.03 OFFCURVE",
"512.3 279.05 CURVE SMOOTH",
"490.93 316.48 OFFCURVE",
"447.5 349.8 OFFCURVE",
"382 379 CURVE SMOOTH",
"273 427 LINE SMOOTH",
"257.1 433.9 OFFCURVE",
"244.53 439.69 OFFCURVE",
"235.29 444.35 CURVE SMOOTH",
"177.76 473.7 OFFCURVE",
"149 513.58 OFFCURVE",
"149 564 CURVE SMOOTH",
"149.19 586.99 OFFCURVE",
"155.06 607.86 OFFCURVE",
"166.61 626.61 CURVE SMOOTH",
"192.87 667.54 OFFCURVE",
"238.67 688 OFFCURVE",
"304 688 CURVE SMOOTH",
"370.58 687.69 OFFCURVE",
"427.91 663.35 OFFCURVE",
"476 615 CURVE",
"510 654 LINE",
"508.73 655.36 OFFCURVE",
"507.14 657.05 OFFCURVE",
"505.22 659.05 CURVE SMOOTH",
"451.5 714.35 OFFCURVE",
"384.42 742 OFFCURVE",
"304 742 CURVE SMOOTH",
"252.35 741.81 OFFCURVE",
"207.29 729.54 OFFCURVE",
"168.8 705.21 CURVE SMOOTH",
"114.93 670.45 OFFCURVE",
"88 621.72 OFFCURVE",
"88 559 CURVE SMOOTH",
"88.15 532.3 OFFCURVE",
"93.51 507.63 OFFCURVE",
"104.08 484.98 CURVE SMOOTH",
"124.25 443.23 OFFCURVE",
"168.23 407.23 OFFCURVE",
"236 377 CURVE SMOOTH",
"345 329 LINE SMOOTH",
"373.98 316.11 OFFCURVE",
"395.67 305.18 OFFCURVE",
"410.06 296.21 CURVE SMOOTH",
"452.69 269.23 OFFCURVE",
"474 230.83 OFFCURVE",
"474 181 CURVE SMOOTH",
"473.81 154.52 OFFCURVE",
"467 130.6 OFFCURVE",
"453.57 109.24 CURVE SMOOTH",
"423.94 63.74 OFFCURVE",
"372.41 41 OFFCURVE",
"299 41 CURVE SMOOTH",
"218.78 43.37 OFFCURVE",
"148.44 75.71 OFFCURVE",
"88 138 CURVE",
"51 96 LINE",
"115.78 23.86 OFFCURVE",
"198.44 -12.48 OFFCURVE",
"299 -13 CURVE SMOOTH"
);
}
);
vertWidth = 1000;
width = 580;
}
);
note = S;
unicode = 0053;
},
{
glyphname = T;
layers = (
{
hints = (
{
horizontal = 1;
place = "{0, 21}";
target = up;
type = BottomGhost;
},
{
horizontal = 1;
place = "{678, 51}";
type = Stem;
},
{
place = "{261, 61}";
type = Stem;
}
);
layerId = "ADFD292A-F9BB-471F-8DBA-A614A3A5AC29";
paths = (
{
closed = 1;
nodes = (
"261 0 LINE",
"322 0 LINE",
"322 678 LINE",
"552 678 LINE",
"552 729 LINE",
"32 729 LINE",
"32 678 LINE",
"261 678 LINE"
);
}
);
vertWidth = 1000;
width = 584;
}
);
note = T;
unicode = 0054;
},
{
glyphname = U;
layers = (
{
hints = (
{
horizontal = 1;
place = "{-13, 54}";
type = Stem;
},
{
horizontal = 1;
place = "{729, -20}";
target = down;
type = TopGhost;
},
{
place = "{103, 60}";
type = Stem;
},
{
place = "{545, 57}";
type = Stem;
}
);
layerId = "ADFD292A-F9BB-471F-8DBA-A614A3A5AC29";
paths = (
{
closed = 1;
nodes = (
"375.92 -12.94 OFFCURVE",
"398.63 -10.61 OFFCURVE",
"420.16 -6.02 CURVE SMOOTH",
"541.39 20.68 OFFCURVE",
"602 117.68 OFFCURVE",
"602 285 CURVE SMOOTH",
"602 729 LINE",
"545 729 LINE",
"545 288 LINE SMOOTH",
"544.96 263.52 OFFCURVE",
"543.41 240.45 OFFCURVE",
"540.36 218.79 CURVE SMOOTH",
"523.11 100.27 OFFCURVE",
"460.32 41 OFFCURVE",
"352 41 CURVE SMOOTH",
"342.82 41 OFFCURVE",
"333.95 41.47 OFFCURVE",
"325.37 42.41 CURVE SMOOTH",
"217.12 54.28 OFFCURVE",
"163 136.14 OFFCURVE",
"163 288 CURVE SMOOTH",
"163 729 LINE",
"103 729 LINE",
"103 285 LINE SMOOTH",
"103.08 240.53 OFFCURVE",
"107.57 200.53 OFFCURVE",
"116.49 165.01 CURVE SMOOTH",
"146.94 46.34 OFFCURVE",
"225.45 -13 OFFCURVE",
"352 -13 CURVE SMOOTH"
);
}
);
vertWidth = 1000;
width = 705;
}
);
note = U;
unicode = 0055;
},
{
glyphname = V;
layers = (
{
hints = (
{
horizontal = 1;
place = "{0, 66}";
type = Stem;
},
{
horizontal = 1;
place = "{729, -20}";
target = down;
type = TopGhost;
},
{
place = "{4, 542}";
type = Stem;
}
);
layerId = "ADFD292A-F9BB-471F-8DBA-A614A3A5AC29";
paths = (
{
closed = 1;
nodes = (
"243 0 LINE",
"309 0 LINE",
"546 729 LINE",
"485 729 LINE",
"355 310 LINE SMOOTH",
"348.17 288.51 OFFCURVE",
"338.67 257.92 OFFCURVE",
"326.52 218.25 CURVE SMOOTH",
"306.75 153.65 OFFCURVE",
"290.57 102.9 OFFCURVE",
"278 66 CURVE",
"274 66 LINE",
"272.9 69.33 OFFCURVE",
"247.9 150.66 OFFCURVE",
"199 310 CURVE SMOOTH",
"68 729 LINE",
"4 729 LINE"
);
}
);
vertWidth = 1000;
width = 550;
}
);
note = V;
unicode = 0056;
},
{
glyphname = W;
layers = (
{
hints = (
{
horizontal = 1;
place = "{0, 69}";
type = Stem;
},
{
horizontal = 1;
place = "{652, 77}";
type = Stem;
},
{
place = "{30, 795}";
type = Stem;
},
{
horizontal = 1;
place = "{729, -20}";
target = down;
type = TopGhost;
}
);
layerId = "ADFD292A-F9BB-471F-8DBA-A614A3A5AC29";
paths = (
{
closed = 1;
nodes = (
"193 0 LINE",
"261 0 LINE",
"386 487 LINE SMOOTH",
"389.92 504.45 OFFCURVE",
"396.14 529.81 OFFCURVE",
"404.64 563.09 CURVE SMOOTH",
"414.55 601.77 OFFCURVE",
"421.67 631.4 OFFCURVE",
"426 652 CURVE",
"430 652 LINE",
"433.11 638.39 OFFCURVE",
"437.84 618.28 OFFCURVE",
"444.18 591.68 CURVE SMOOTH",
"454.98 546.45 OFFCURVE",
"462.92 511.56 OFFCURVE",
"468 487 CURVE",
"597 0 LINE",
"665 0 LINE",
"825 729 LINE",
"767 729 LINE",
"678 307 LINE SMOOTH",
"665.7 246.25 OFFCURVE",
"650.37 166.92 OFFCURVE",
"632 69 CURVE",
"627 69 LINE",
"621.56 91.92 OFFCURVE",
"613.45 126.47 OFFCURVE",
"602.67 172.67 CURVE SMOOTH",
"588.73 232.41 OFFCURVE",
"578.17 277.19 OFFCURVE",
"571 307 CURVE SMOOTH",
"459 729 LINE",
"400 729 LINE",
"289 307 LINE SMOOTH",
"263.83 202.33 OFFCURVE",
"245.16 123 OFFCURVE",
"233 69 CURVE",
"229 69 LINE",
"209.66 165.69 OFFCURVE",
"193.33 245.02 OFFCURVE",
"180 307 CURVE SMOOTH",
"92 729 LINE",
"30 729 LINE"
);
}
);
vertWidth = 1000;
width = 857;
}
);
note = W;
unicode = 0057;
},
{
glyphname = X;
layers = (
{
hints = (
{
horizontal = 1;
place = "{0, 21}";
target = up;
type = BottomGhost;
},
{
horizontal = 1;
place = "{729, -20}";
target = down;
type = TopGhost;
},
{
place = "{19, 504}";
type = Stem;
}
);
layerId = "ADFD292A-F9BB-471F-8DBA-A614A3A5AC29";
paths = (
{
closed = 1;
nodes = (
"19 0 LINE",
"81 0 LINE",
"203 218 LINE SMOOTH",
"228.03 264.11 OFFCURVE",
"248.36 302.78 OFFCURVE",
"264 334 CURVE",
"268 334 LINE",
"282.24 309.89 OFFCURVE",
"304.57 271.22 OFFCURVE",
"335 218 CURVE SMOOTH",
"458 0 LINE",
"523 0 LINE",
"305 374 LINE",
"508 729 LINE",
"446 729 LINE",
"331 521 LINE SMOOTH",
"324.2 509.14 OFFCURVE",
"314.71 491.52 OFFCURVE",
"302.54 468.15 CURVE SMOOTH",
"292.1 448.02 OFFCURVE",
"283.58 431.97 OFFCURVE",
"277 420 CURVE",
"273 420 LINE",
"265.23 432.96 OFFCURVE",
"254.93 450.61 OFFCURVE",
"242.1 472.95 CURVE SMOOTH",
"230.06 493.94 OFFCURVE",
"220.69 509.96 OFFCURVE",
"214 521 CURVE SMOOTH",
"99 729 LINE",
"33 729 LINE",
"236 377 LINE"
);
}
);
vertWidth = 1000;
width = 541;
}
);
note = X;
unicode = 0058;
},
{
glyphname = Y;
layers = (
{
hints = (
{
horizontal = 1;
place = "{0, 21}";
target = up;
type = BottomGhost;
},
{
horizontal = 1;
place = "{729, -20}";
target = down;
type = TopGhost;
},
{
place = "{221, 60}";
type = Stem;
}
);
layerId = "ADFD292A-F9BB-471F-8DBA-A614A3A5AC29";
paths = (
{
closed = 1;
nodes = (
"221 0 LINE",
"281 0 LINE",
"281 293 LINE",
"500 729 LINE",
"438 729 LINE",
"331 506 LINE SMOOTH",
"317.64 475.29 OFFCURVE",
"291.64 422.63 OFFCURVE",
"253 348 CURVE",
"249 348 LINE",
"239.11 367.81 OFFCURVE",
"224.91 397.23 OFFCURVE",
"206.41 436.28 CURVE SMOOTH",
"191.82 467.1 OFFCURVE",
"180.68 490.34 OFFCURVE",
"173 506 CURVE SMOOTH",
"66 729 LINE",
"2 729 LINE",
"221 293 LINE"
);
}
);
vertWidth = 1000;
width = 502;
}
);
note = Y;
unicode = 0059;
},
{
glyphname = Z;
layers = (
{
hints = (
{
horizontal = 1;
place = "{0, 52}";
type = Stem;
},
{
horizontal = 1;
place = "{678, 51}";
type = Stem;
},
{
place = "{54, 491}";
type = Stem;
}
);
layerId = "ADFD292A-F9BB-471F-8DBA-A614A3A5AC29";
paths = (
{
closed = 1;
nodes = (
"54 0 LINE",
"545 0 LINE",
"545 52 LINE",
"129 52 LINE",
"540 694 LINE",
"540 729 LINE",
"91 729 LINE",
"91 678 LINE",
"466 678 LINE",
"54 35 LINE"
);
}
);
vertWidth = 1000;
width = 597;
}
);
note = Z;
unicode = 005A;
},
{
glyphname = a;
layers = (
{
hints = (
{
horizontal = 1;
place = "{-13, 49}";
type = Stem;
},
{
horizontal = 1;
place = "{496, 51}";
type = Stem;
},
{
place = "{63, 58}";
type = Stem;
},
{
place = "{409, 52}";
type = Stem;
},
{
horizontal = 1;
place = "{0, 21}";
target = up;
type = BottomGhost;
},
{
place = "{403, 58}";
type = Stem;
}
);
layerId = "ADFD292A-F9BB-471F-8DBA-A614A3A5AC29";
paths = (
{
closed = 1;
nodes = (
"275.41 -12.66 OFFCURVE",
"337.41 14.34 OFFCURVE",
"404 68 CURVE",
"406 68 LINE",
"412 0 LINE",
"461 0 LINE",
"461 338 LINE SMOOTH",
"460.96 354.91 OFFCURVE",
"460 371.23 OFFCURVE",
"458.11 386.96 CURVE SMOOTH",
"444.71 493.66 OFFCURVE",
"388.34 547 OFFCURVE",
"289 547 CURVE SMOOTH",
"223.06 546.69 OFFCURVE",
"155.73 523.35 OFFCURVE",
"87 477 CURVE",
"113 435 LINE",
"166.6 475.33 OFFCURVE",
"222.6 495.67 OFFCURVE",
"281 496 CURVE SMOOTH",
"284.38 495.98 OFFCURVE",
"288.04 495.87 OFFCURVE",
"291.97 495.66 CURVE SMOOTH",
"368.58 490.84 OFFCURVE",
"405.59 437.29 OFFCURVE",
"403 335 CURVE",
"309.38 324.18 OFFCURVE",
"236.45 308.36 OFFCURVE",
"184.19 287.54 CURVE SMOOTH",
"103.39 254.97 OFFCURVE",
"63 203.79 OFFCURVE",
"63 134 CURVE SMOOTH",
"63.17 104.19 OFFCURVE",
"69.52 77.96 OFFCURVE",
"82.04 55.31 CURVE SMOOTH",
"108.14 9.77 OFFCURVE",
"153.46 -13 OFFCURVE",
"218 -13 CURVE SMOOTH"
);
},
{
closed = 1;
nodes = (
"219.3 36.06 OFFCURVE",
"208.86 37.04 OFFCURVE",
"198.69 38.93 CURVE SMOOTH",
"146.9 49.27 OFFCURVE",
"121 81.96 OFFCURVE",
"121 137 CURVE SMOOTH",
"121.17 157.71 OFFCURVE",
"126.08 176.31 OFFCURVE",
"135.75 192.79 CURVE SMOOTH",
"165.97 242.02 OFFCURVE",
"255.05 275.09 OFFCURVE",
"403 292 CURVE",
"403 119 LINE",
"400.04 116.43 OFFCURVE",
"396.8 113.64 OFFCURVE",
"393.26 110.64 CURVE SMOOTH",
"334.33 60.88 OFFCURVE",
"279.91 36 OFFCURVE",
"230 36 CURVE SMOOTH"
);
}
);
vertWidth = 1000;
width = 547;
}
);
note = a;
unicode = 0061;
},
{
glyphname = b;
layers = (
{
hints = (
{
horizontal = 1;
place = "{-13, 51}";
type = Stem;
},
{
horizontal = 1;
place = "{496, 51}";
type = Stem;
},
{
place = "{100, 58}";
type = Stem;
},
{
place = "{487, 62}";
type = Stem;
},
{
horizontal = 1;
place = "{0, 21}";
target = up;
type = BottomGhost;
}
);
layerId = "ADFD292A-F9BB-471F-8DBA-A614A3A5AC29";
paths = (
{
closed = 1;
nodes = (
"367.59 -12.73 OFFCURVE",
"415.11 5.24 OFFCURVE",
"456.56 40.91 CURVE SMOOTH",
"518.18 94.9 OFFCURVE",
"549 172.93 OFFCURVE",
"549 275 CURVE SMOOTH",
"548.89 329.36 OFFCURVE",
"541.03 376.86 OFFCURVE",
"525.42 417.52 CURVE SMOOTH",
"491.65 503.84 OFFCURVE",
"428.18 547 OFFCURVE",
"335 547 CURVE SMOOTH",
"279.68 546.65 OFFCURVE",
"219.68 519.31 OFFCURVE",
"155 465 CURVE",
"158 567 LINE",
"158 795 LINE",
"100 795 LINE",
"100 0 LINE",
"147 0 LINE",
"154 54 LINE",
"156 54 LINE",
"209.15 9.85 OFFCURVE",
"261.81 -12.48 OFFCURVE",
"314 -13 CURVE SMOOTH"
);
},
{
closed = 1;
nodes = (
"258.17 38.29 OFFCURVE",
"207.83 59.96 OFFCURVE",
"158 103 CURVE",
"158 411 LINE",
"219.37 467.01 OFFCURVE",
"274.71 495.34 OFFCURVE",
"324 496 CURVE SMOOTH",
"330.59 495.97 OFFCURVE",
"337.33 495.65 OFFCURVE",
"344.23 495.05 CURVE SMOOTH",
"439.41 485.78 OFFCURVE",
"487 412.43 OFFCURVE",
"487 275 CURVE SMOOTH",
"486.83 215.93 OFFCURVE",
"474.76 165.44 OFFCURVE",
"450.78 123.54 CURVE SMOOTH",
"417.52 66.51 OFFCURVE",
"370.26 38 OFFCURVE",
"309 38 CURVE SMOOTH"
);
}
);
vertWidth = 1000;
width = 603;
}
);
note = b;
unicode = 0062;
},
{
glyphname = c;
layers = (
{
hints = (
{
horizontal = 1;
place = "{-13, 50}";
type = Stem;
},
{
horizontal = 1;
place = "{496, 51}";
type = Stem;
},
{
place = "{56, 61}";
type = Stem;
}
);
layerId = "ADFD292A-F9BB-471F-8DBA-A614A3A5AC29";
paths = (
{
closed = 1;
nodes = (
"359.52 -12.7 OFFCURVE",
"416.52 10.3 OFFCURVE",
"471 56 CURVE",
"442 96 LINE",
"397.96 57.13 OFFCURVE",
"351.62 37.46 OFFCURVE",
"303 37 CURVE SMOOTH",
"261.39 37.24 OFFCURVE",
"224.99 49.75 OFFCURVE",
"193.78 74.53 CURVE SMOOTH",
"142.6 116.2 OFFCURVE",
"117 180.03 OFFCURVE",
"117 266 CURVE SMOOTH",
"117.2 324.36 OFFCURVE",
"131.24 374.52 OFFCURVE",
"159.12 416.46 CURVE SMOOTH",
"195.03 469.48 OFFCURVE",
"243.33 496 OFFCURVE",
"304 496 CURVE SMOOTH",
"346.54 495.68 OFFCURVE",
"387.2 477.68 OFFCURVE",
"426 442 CURVE",
"459 482 LINE",
"410.68 524.91 OFFCURVE",
"358.68 546.58 OFFCURVE",
"303 547 CURVE SMOOTH",
"245.91 546.75 OFFCURVE",
"195.54 528.99 OFFCURVE",
"151.89 493.71 CURVE SMOOTH",
"87.96 441.17 OFFCURVE",
"56 365.26 OFFCURVE",
"56 266 CURVE SMOOTH",
"56.21 191.7 OFFCURVE",
"74.02 129.78 OFFCURVE",
"109.46 80.23 CURVE SMOOTH",
"154.66 18.08 OFFCURVE",
"218.18 -13 OFFCURVE",
"300 -13 CURVE SMOOTH"
);
}
);
vertWidth = 1000;
width = 499;
}
);
note = c;
unicode = 0063;
},
{
glyphname = d;
layers = (
{
hints = (
{
horizontal = 1;
place = "{-13, 51}";
type = Stem;
},
{
horizontal = 1;
place = "{496, 51}";
type = Stem;
},
{
place = "{56, 62}";
type = Stem;
},
{
place = "{447, 58}";
type = Stem;
},
{
horizontal = 1;
place = "{0, 21}";
target = up;
type = BottomGhost;
}
);
layerId = "ADFD292A-F9BB-471F-8DBA-A614A3A5AC29";
paths = (
{
closed = 1;
nodes = (
"337.24 -12.62 OFFCURVE",
"394.24 14.04 OFFCURVE",
"448 67 CURVE",
"451 67 LINE",
"457 0 LINE",
"505 0 LINE",
"505 795 LINE",
"447 795 LINE",
"447 578 LINE",
"451 482 LINE",
"445.23 486.54 OFFCURVE",
"439.44 490.96 OFFCURVE",
"433.64 495.26 CURVE SMOOTH",
"386.78 529.75 OFFCURVE",
"339.57 547 OFFCURVE",
"292 547 CURVE SMOOTH",
"236.54 546.72 OFFCURVE",
"187.41 527.43 OFFCURVE",
"144.63 489.13 CURVE SMOOTH",
"85.55 435.31 OFFCURVE",
"56 360.94 OFFCURVE",
"56 266 CURVE SMOOTH",
"56.14 200.17 OFFCURVE",
"67.76 144.36 OFFCURVE",
"90.83 98.59 CURVE SMOOTH",
"129.01 24.2 OFFCURVE",
"191.06 -13 OFFCURVE",
"277 -13 CURVE SMOOTH"
);
},
{
closed = 1;
nodes = (
"254.34 38.2 OFFCURVE",
"225.4 46.5 OFFCURVE",
"200.2 62.91 CURVE SMOOTH",
"145.4 99.73 OFFCURVE",
"118 167.42 OFFCURVE",
"118 266 CURVE SMOOTH",
"118.2 323.77 OFFCURVE",
"132.23 374.01 OFFCURVE",
"160.08 416.73 CURVE SMOOTH",
"195.17 469.58 OFFCURVE",
"241.15 496 OFFCURVE",
"298 496 CURVE SMOOTH",
"348.35 495.76 OFFCURVE",
"398.02 473.76 OFFCURVE",
"447 430 CURVE",
"447 122 LINE",
"393.42 66.69 OFFCURVE",
"340.08 38.69 OFFCURVE",
"287 38 CURVE SMOOTH"
);
}
);
vertWidth = 1000;
width = 605;
}
);
note = d;
unicode = 0064;
},
{
glyphname = e;
layers = (
{
hints = (
{
horizontal = 1;
place = "{-13, 49}";
type = Stem;
},
{
horizontal = 1;
place = "{257, 46}";
type = Stem;
},
{
horizontal = 1;
place = "{497, 50}";
type = Stem;
},
{
place = "{56, 59}";
type = Stem;
},
{
place = "{443, 53}";
type = Stem;
}
);
layerId = "ADFD292A-F9BB-471F-8DBA-A614A3A5AC29";
paths = (
{
closed = 1;
nodes = (
"362.12 -13 OFFCURVE",
"418.79 4.33 OFFCURVE",
"474 39 CURVE",
"452 82 LINE",
"408.46 51.73 OFFCURVE",
"361.12 36.39 OFFCURVE",
"310 36 CURVE SMOOTH",
"266.84 36.23 OFFCURVE",
"228.91 48.71 OFFCURVE",
"196.22 73.43 CURVE SMOOTH",
"143.96 113.91 OFFCURVE",
"116.89 175.1 OFFCURVE",
"115 257 CURVE",
"493 257 LINE",
"495 270 OFFCURVE",
"496 284 OFFCURVE",
"496 299 CURVE SMOOTH",
"495.87 352.24 OFFCURVE",
"486.96 398.25 OFFCURVE",
"469.26 437.03 CURVE SMOOTH",
"435.13 510.34 OFFCURVE",
"375.37 547 OFFCURVE",
"290 547 CURVE SMOOTH",
"235.68 546.7 OFFCURVE",
"186.99 526.91 OFFCURVE",
"143.92 487.6 CURVE SMOOTH",
"85.3 433.2 OFFCURVE",
"56 359.33 OFFCURVE",
"56 266 CURVE SMOOTH",
"56.23 189.16 OFFCURVE",
"76.56 125.25 OFFCURVE",
"116.98 74.27 CURVE SMOOTH",
"163.87 16.09 OFFCURVE",
"226.21 -13 OFFCURVE",
"304 -13 CURVE SMOOTH"
);
},
{
closed = 1;
nodes = (
"115 303 LINE",
"119.43 350.06 OFFCURVE",
"133.42 390.55 OFFCURVE",
"156.99 424.48 CURVE SMOOTH",
"191.29 472.83 OFFCURVE",
"235.96 497 OFFCURVE",
"291 497 CURVE SMOOTH",
"311.27 496.89 OFFCURVE",
"330.12 493.7 OFFCURVE",
"347.56 487.43 CURVE SMOOTH",
"411.19 463.57 OFFCURVE",
"443 402.09 OFFCURVE",
"443 303 CURVE"
);
}
);
vertWidth = 1000;
width = 538;
}
);
note = e;
unicode = 0065;
},
{
glyphname = f;
layers = (
{
hints = (
{
horizontal = 1;
place = "{0, 21}";
target = up;
type = BottomGhost;
},
{
horizontal = 1;
place = "{484, 49}";
type = Stem;
},
{
horizontal = 1;
place = "{759, 49}";
type = Stem;
},
{
place = "{109, 58}";
type = Stem;
},
{
place = "{109, 179}";
type = Stem;
}
);
layerId = "ADFD292A-F9BB-471F-8DBA-A614A3A5AC29";
paths = (
{
closed = 1;
nodes = (
"109 0 LINE",
"167 0 LINE",
"167 484 LINE",
"288 484 LINE",
"288 533 LINE",
"167 533 LINE",
"167 642 LINE SMOOTH",
"167.44 718.72 OFFCURVE",
"194.77 757.72 OFFCURVE",
"249 759 CURVE SMOOTH",
"269 759 OFFCURVE",
"290 754 OFFCURVE",
"312 744 CURVE",
"326 791 LINE",
"298 802.08 OFFCURVE",
"271.33 807.75 OFFCURVE",
"246 808 CURVE SMOOTH",
"239.2 807.97 OFFCURVE",
"232.3 807.61 OFFCURVE",
"225.29 806.92 CURVE SMOOTH",
"147.76 798.49 OFFCURVE",
"109 744.51 OFFCURVE",
"109 645 CURVE SMOOTH",
"109 533 LINE",
"35 528 LINE",
"35 484 LINE",
"109 484 LINE"
);
}
);
vertWidth = 1000;
width = 298;
}
);
note = f;
unicode = 0066;
},
{
glyphname = g;
layers = (
{
hints = (
{
horizontal = 1;
place = "{-254, 44}";
type = Stem;
},
{
horizontal = 1;
place = "{-3, 53}";
type = Stem;
},
{
horizontal = 1;
place = "{169, 44}";
type = Stem;
},
{
horizontal = 1;
place = "{485, 48}";
type = Stem;
},
{
place = "{87, 54}";
type = Stem;
},
{
place = "{401, 56}";
type = Stem;
},
{
place = "{473, 58}";
type = Stem;
},
{
horizontal = 1;
place = "{500, 33}";
type = Stem;
},
{
place = "{78, 58}";
type = Stem;
},
{
horizontal = 1;
place = "{500, 47}";
type = Stem;
},
{
place = "{55, 55}";
type = Stem;
},
{
horizontal = 1;
place = "{-3, 21}";
target = up;
type = BottomGhost;
}
);
layerId = "ADFD292A-F9BB-471F-8DBA-A614A3A5AC29";
paths = (
{
closed = 1;
nodes = (
"346.74 -253.79 OFFCURVE",
"407.14 -236.54 OFFCURVE",
"456.2 -202.26 CURVE SMOOTH",
"506.07 -166.82 OFFCURVE",
"531 -123.73 OFFCURVE",
"531 -73 CURVE SMOOTH",
"530.94 -62.41 OFFCURVE",
"529.98 -52.2 OFFCURVE",
"528.13 -42.39 CURVE SMOOTH",
"515.6 19.2 OFFCURVE",
"457.23 50 OFFCURVE",
"353 50 CURVE SMOOTH",
"241 50 LINE SMOOTH",
"175.86 50.5 OFFCURVE",
"142.53 72.83 OFFCURVE",
"141 117 CURVE SMOOTH",
"141.41 142.85 OFFCURVE",
"155.41 167.52 OFFCURVE",
"183 191 CURVE",
"208.05 176.66 OFFCURVE",
"236.72 169.32 OFFCURVE",
"269 169 CURVE SMOOTH",
"312.1 169.23 OFFCURVE",
"350.43 181.56 OFFCURVE",
"383.97 205.99 CURVE SMOOTH",
"432.65 242.26 OFFCURVE",
"457 292.6 OFFCURVE",
"457 357 CURVE SMOOTH",
"456.65 409.72 OFFCURVE",
"438.32 452.38 OFFCURVE",
"402 485 CURVE",
"522 485 LINE",
"522 533 LINE",
"340 533 LINE",
"317.51 542.14 OFFCURVE",
"293.85 546.8 OFFCURVE",
"269 547 CURVE SMOOTH",
"225.3 546.77 OFFCURVE",
"186.29 534.19 OFFCURVE",
"151.99 509.26 CURVE SMOOTH",
"102.67 472.62 OFFCURVE",
"78 422.2 OFFCURVE",
"78 358 CURVE SMOOTH",
"78.05 349.29 OFFCURVE",
"78.73 340.26 OFFCURVE",
"80.04 330.93 CURVE SMOOTH",
"87.35 282.51 OFFCURVE",
"109.34 243.2 OFFCURVE",
"146 213 CURVE",
"146 209 LINE",
"107.15 179.58 OFFCURVE",
"87.49 146.58 OFFCURVE",
"87 110 CURVE SMOOTH",
"87.44 72.34 OFFCURVE",
"103.44 43.67 OFFCURVE",
"135 24 CURVE",
"135 19 LINE",
"131.89 16.88 OFFCURVE",
"128.51 14.48 OFFCURVE",
"124.86 11.78 CURVE SMOOTH",
"78.29 -23.28 OFFCURVE",
"55 -63.2 OFFCURVE",
"55 -108 CURVE SMOOTH",
"55.23 -135.84 OFFCURVE",
"63.6 -160.8 OFFCURVE",
"80.1 -182.87 CURVE SMOOTH",
"116.82 -230.29 OFFCURVE",
"181.78 -254 OFFCURVE",
"275 -254 CURVE SMOOTH"
);
},
{
closed = 1;
nodes = (
"242.77 213.22 OFFCURVE",
"218.49 220.76 OFFCURVE",
"196.16 235.63 CURVE SMOOTH",
"156.05 263.22 OFFCURVE",
"136 304.01 OFFCURVE",
"136 358 CURVE SMOOTH",
"136.19 389.43 OFFCURVE",
"143.74 417.2 OFFCURVE",
"158.63 441.29 CURVE SMOOTH",
"183.65 480.43 OFFCURVE",
"220.44 500 OFFCURVE",
"269 500 CURVE SMOOTH",
"294.16 499.81 OFFCURVE",
"317.33 493.4 OFFCURVE",
"338.5 480.79 CURVE SMOOTH",
"380.17 455.07 OFFCURVE",
"401 414.14 OFFCURVE",
"401 358 CURVE SMOOTH",
"400.79 324.72 OFFCURVE",
"392.02 295.17 OFFCURVE",
"374.7 269.38 CURVE SMOOTH",
"348.68 231.8 OFFCURVE",
"313.45 213 OFFCURVE",
"269 213 CURVE SMOOTH"
);
},
{
closed = 1;
nodes = (
"246.34 -209.9 OFFCURVE",
"215.03 -205.19 OFFCURVE",
"188.08 -195.87 CURVE SMOOTH",
"136.03 -177.35 OFFCURVE",
"110 -145.72 OFFCURVE",
"110 -101 CURVE SMOOTH",
"110.42 -60.65 OFFCURVE",
"132.42 -24.99 OFFCURVE",
"176 6 CURVE",
"202.62 0.18 OFFCURVE",
"224.96 -2.82 OFFCURVE",
"243 -3 CURVE SMOOTH",
"352 -3 LINE SMOOTH",
"365.51 -3.03 OFFCURVE",
"378.1 -3.69 OFFCURVE",
"389.76 -4.98 CURVE SMOOTH",
"445.25 -11.49 OFFCURVE",
"473 -36.83 OFFCURVE",
"473 -81 CURVE SMOOTH",
"472.69 -105.29 OFFCURVE",
"462.64 -128.38 OFFCURVE",
"442.85 -150.27 CURVE SMOOTH",
"405.66 -190.09 OFFCURVE",
"352.05 -210 OFFCURVE",
"282 -210 CURVE SMOOTH"
);
}
);
vertWidth = 1000;
width = 543;
}
);
note = g;
unicode = 0067;
},
{
glyphname = h;
layers = (
{
hints = (
{
horizontal = 1;
place = "{0, 21}";
target = up;
type = BottomGhost;
},
{
horizontal = 1;
place = "{495, 52}";
type = Stem;
},
{
place = "{100, 58}";
type = Stem;
},
{
place = "{443, 58}";
type = Stem;
}
);
layerId = "ADFD292A-F9BB-471F-8DBA-A614A3A5AC29";
paths = (
{
closed = 1;
nodes = (
"100 0 LINE",
"158 0 LINE",
"158 399 LINE",
"172.04 413.46 OFFCURVE",
"184.95 426 OFFCURVE",
"196.73 436.63 CURVE SMOOTH",
"240.25 475.54 OFFCURVE",
"283.34 495 OFFCURVE",
"326 495 CURVE SMOOTH",
"340.72 495 OFFCURVE",
"353.91 493.35 OFFCURVE",
"365.59 490.05 CURVE SMOOTH",
"417.2 475.45 OFFCURVE",
"443 423.1 OFFCURVE",
"443 333 CURVE SMOOTH",
"443 0 LINE",
"501 0 LINE",
"501 341 LINE SMOOTH",
"500.98 349.96 OFFCURVE",
"500.75 358.96 OFFCURVE",
"500.29 367.99 CURVE SMOOTH",
"493.78 487.33 OFFCURVE",
"440.01 547 OFFCURVE",
"339 547 CURVE SMOOTH",
"329.5 546.95 OFFCURVE",
"319.8 546.18 OFFCURVE",
"309.89 544.7 CURVE SMOOTH",
"262.89 537.16 OFFCURVE",
"211.92 505.92 OFFCURVE",
"157 451 CURVE",
"158 567 LINE",
"158 795 LINE",
"100 795 LINE"
);
}
);
vertWidth = 1000;
width = 589;
}
);
note = h;
unicode = 0068;
},
{
glyphname = i;
layers = (
{
hints = (
{
horizontal = 1;
place = "{0, 21}";
target = up;
type = BottomGhost;
},
{
horizontal = 1;
place = "{533, -20}";
target = down;
type = TopGhost;
},
{
horizontal = 1;
place = "{658, 95}";
type = Stem;
},
{
place = "{100, 58}";
type = Stem;
},
{
place = "{83, 93}";
type = Stem;
}
);
layerId = "ADFD292A-F9BB-471F-8DBA-A614A3A5AC29";
paths = (
{
closed = 1;
nodes = (
"100 0 LINE",
"158 0 LINE",
"158 533 LINE",
"100 533 LINE"
);
},
{
closed = 1;
nodes = (
"134.37 658.09 OFFCURVE",
"138.92 658.71 OFFCURVE",
"143.63 659.87 CURVE SMOOTH",
"165.21 666.08 OFFCURVE",
"176 681.79 OFFCURVE",
"176 707 CURVE SMOOTH",
"175.91 711.99 OFFCURVE",
"175.18 717.07 OFFCURVE",
"173.81 722.23 CURVE SMOOTH",
"167.52 742.75 OFFCURVE",
"152.92 753 OFFCURVE",
"130 753 CURVE SMOOTH",
"125.25 752.92 OFFCURVE",
"120.36 752.28 OFFCURVE",
"115.35 751.08 CURVE SMOOTH",
"93.78 745.11 OFFCURVE",
"83 730.42 OFFCURVE",
"83 707 CURVE SMOOTH",
"83.09 701.38 OFFCURVE",
"83.89 695.74 OFFCURVE",
"85.39 690.08 CURVE SMOOTH",
"91.86 668.7 OFFCURVE",
"106.73 658 OFFCURVE",
"130 658 CURVE SMOOTH"
);
}
);
vertWidth = 1000;
width = 257;
}
);
note = i;
unicode = 0069;
},
{
glyphname = j;
layers = (
{
hints = (
{
horizontal = 1;
place = "{-251, 49}";
type = Stem;
},
{
horizontal = 1;
place = "{533, -20}";
target = down;
type = TopGhost;
},
{
horizontal = 1;
place = "{658, 95}";
type = Stem;
},
{
place = "{100, 59}";
type = Stem;
},
{
horizontal = 1;
place = "{-237, 21}";
target = up;
type = BottomGhost;
},
{
place = "{82, 92}";
type = Stem;
}
);
layerId = "ADFD292A-F9BB-471F-8DBA-A614A3A5AC29";
paths = (
{
closed = 1;
nodes = (
"115.92 -250.34 OFFCURVE",
"157.92 -196.68 OFFCURVE",
"159 -90 CURVE SMOOTH",
"159 533 LINE",
"100 533 LINE",
"100 -88 LINE SMOOTH",
"99.96 -108.1 OFFCURVE",
"98.82 -125.13 OFFCURVE",
"96.58 -139.1 CURVE SMOOTH",
"89.47 -181.04 OFFCURVE",
"67.28 -202 OFFCURVE",
"30 -202 CURVE SMOOTH",
"14.16 -201.84 OFFCURVE",
"-4.17 -198.17 OFFCURVE",
"-25 -191 CURVE",
"-38 -237 LINE",
"-18.18 -246.11 OFFCURVE",
"5.48 -250.78 OFFCURVE",
"33 -251 CURVE SMOOTH"
);
},
{
closed = 1;
nodes = (
"132.38 658 OFFCURVE",
"136.56 658.49 OFFCURVE",
"140.54 659.48 CURVE SMOOTH",
"162.85 665.03 OFFCURVE",
"174 680.87 OFFCURVE",
"174 707 CURVE SMOOTH",
"173.92 711.42 OFFCURVE",
"173.37 715.97 OFFCURVE",
"172.33 720.66 CURVE SMOOTH",
"166.76 742.22 OFFCURVE",
"151.98 753 OFFCURVE",
"128 753 CURVE SMOOTH",
"123.72 752.93 OFFCURVE",
"119.29 752.39 OFFCURVE",
"114.7 751.41 CURVE SMOOTH",
"92.9 745.92 OFFCURVE",
"82 731.11 OFFCURVE",
"82 707 CURVE SMOOTH",
"82.08 701.96 OFFCURVE",
"82.7 696.83 OFFCURVE",
"83.85 691.63 CURVE SMOOTH",
"89.62 669.21 OFFCURVE",
"104.33 658 OFFCURVE",
"128 658 CURVE SMOOTH"
);
}
);
vertWidth = 1000;
width = 258;
}
);
note = j;
unicode = 006A;
},
{
glyphname = k;
layers = (
{
hints = (
{
horizontal = 1;
place = "{0, 21}";
target = up;
type = BottomGhost;
},
{
horizontal = 1;
place = "{533, -20}";
target = down;
type = TopGhost;
},
{
place = "{100, 58}";
type = Stem;
}
);
layerId = "ADFD292A-F9BB-471F-8DBA-A614A3A5AC29";
paths = (
{
closed = 1;
nodes = (
"100 0 LINE",
"158 0 LINE",
"158 144 LINE",
"273 280 LINE",
"445 0 LINE",
"509 0 LINE",
"307 322 LINE",
"481 533 LINE",
"415 533 LINE",
"160 219 LINE",
"158 219 LINE",
"158 795 LINE",
"100 795 LINE"
);
}
);
vertWidth = 1000;
width = 521;
}
);
note = k;
unicode = 006B;
},
{
glyphname = l;
layers = (
{
hints = (
{
horizontal = 1;
place = "{-13, 50}";
type = Stem;
},
{
place = "{100, 58}";
type = Stem;
}
);
layerId = "ADFD292A-F9BB-471F-8DBA-A614A3A5AC29";
paths = (
{
closed = 1;
nodes = (
"183.05 -12.9 OFFCURVE",
"196.05 -10.9 OFFCURVE",
"210 -7 CURVE",
"201 39 LINE",
"194.51 37.87 OFFCURVE",
"188.17 37.2 OFFCURVE",
"182 37 CURVE SMOOTH",
"166.77 37.68 OFFCURVE",
"158.77 49.68 OFFCURVE",
"158 73 CURVE SMOOTH",
"158 795 LINE",
"100 795 LINE",
"100 79 LINE SMOOTH",
"100.49 19.01 OFFCURVE",
"124.16 -11.66 OFFCURVE",
"171 -13 CURVE SMOOTH"
);
}
);
vertWidth = 1000;
width = 267;
}
);
note = l;
unicode = 006C;
},
{
glyphname = m;
layers = (
{
hints = (
{
horizontal = 1;
place = "{0, 21}";
target = up;
type = BottomGhost;
},
{
horizontal = 1;
place = "{495, 52}";
type = Stem;
},
{
place = "{754, 58}";
type = Stem;
},
{
horizontal = 1;
place = "{533, -20}";
target = down;
type = TopGhost;
}
);
layerId = "ADFD292A-F9BB-471F-8DBA-A614A3A5AC29";
paths = (
{
closed = 1;
nodes = (
"100 0 LINE",
"158 0 LINE",
"158 399 LINE",
"213.57 462.17 OFFCURVE",
"264.91 494.17 OFFCURVE",
"312 495 CURVE SMOOTH",
"321.37 494.95 OFFCURVE",
"330.48 494.16 OFFCURVE",
"339.31 492.65 CURVE SMOOTH",
"397.77 481.78 OFFCURVE",
"427 428.57 OFFCURVE",
"427 333 CURVE SMOOTH",
"427 0 LINE",
"485 0 LINE",
"485 399 LINE",
"541.53 462.17 OFFCURVE",
"592.86 494.17 OFFCURVE",
"639 495 CURVE SMOOTH",
"644.89 494.97 OFFCURVE",
"650.89 494.64 OFFCURVE",
"656.99 494.01 CURVE SMOOTH",
"721.66 486.55 OFFCURVE",
"754 432.88 OFFCURVE",
"754 333 CURVE SMOOTH",
"754 0 LINE",
"812 0 LINE",
"812 341 LINE SMOOTH",
"811.49 477.01 OFFCURVE",
"758.15 545.67 OFFCURVE",
"652 547 CURVE SMOOTH",
"598.77 546.59 OFFCURVE",
"538.77 510.59 OFFCURVE",
"472 439 CURVE",
"450.76 510.12 OFFCURVE",
"401.76 546.12 OFFCURVE",
"325 547 CURVE SMOOTH",
"270.66 546.55 OFFCURVE",
"214.66 514.88 OFFCURVE",
"157 452 CURVE",
"155 452 LINE",
"148 533 LINE",
"100 533 LINE"
);
}
);
vertWidth = 1000;
width = 904;
}
);
note = m;
unicode = 006D;
},
{
glyphname = n;
layers = (
{
hints = (
{
horizontal = 1;
place = "{0, 21}";
target = up;
type = BottomGhost;
},
{
horizontal = 1;
place = "{495, 52}";
type = Stem;
},
{
place = "{100, 58}";
type = Stem;
},
{
place = "{443, 58}";
type = Stem;
},
{
horizontal = 1;
place = "{533, -20}";
target = down;
type = TopGhost;
}
);
layerId = "ADFD292A-F9BB-471F-8DBA-A614A3A5AC29";
paths = (
{
closed = 1;
nodes = (
"100 0 LINE",
"158 0 LINE",
"158 399 LINE",
"172.04 413.46 OFFCURVE",
"184.95 426 OFFCURVE",
"196.73 436.63 CURVE SMOOTH",
"240.25 475.54 OFFCURVE",
"283.34 495 OFFCURVE",
"326 495 CURVE SMOOTH",
"340.72 495 OFFCURVE",
"353.91 493.35 OFFCURVE",
"365.59 490.05 CURVE SMOOTH",
"417.2 475.45 OFFCURVE",
"443 423.1 OFFCURVE",
"443 333 CURVE SMOOTH",
"443 0 LINE",
"501 0 LINE",
"501 341 LINE SMOOTH",
"500.98 349.96 OFFCURVE",
"500.75 358.96 OFFCURVE",
"500.29 367.99 CURVE SMOOTH",
"493.78 487.33 OFFCURVE",
"440.01 547 OFFCURVE",
"339 547 CURVE SMOOTH",
"329.12 546.95 OFFCURVE",
"319.05 546.12 OFFCURVE",
"308.77 544.52 CURVE SMOOTH",
"262.59 536.82 OFFCURVE",
"212.01 505.98 OFFCURVE",
"157 452 CURVE",
"155 452 LINE",
"148 533 LINE",
"100 533 LINE"
);
}
);
vertWidth = 1000;
width = 593;
}
);
note = n;
unicode = 006E;
},
{
glyphname = o;
layers = (
{
hints = (
{
horizontal = 1;
place = "{-13, 50}";
type = Stem;
},
{
horizontal = 1;
place = "{496, 51}";
type = Stem;
},
{
place = "{56, 61}";
type = Stem;
},
{
place = "{478, 60}";
type = Stem;
}
);
layerId = "ADFD292A-F9BB-471F-8DBA-A614A3A5AC29";
paths = (
{
closed = 1;
nodes = (
"352.19 -12.75 OFFCURVE",
"400.97 4.52 OFFCURVE",
"443.32 38.82 CURVE SMOOTH",
"506.44 90.85 OFFCURVE",
"538 166.57 OFFCURVE",
"538 266 CURVE SMOOTH",
"537.76 345.47 OFFCURVE",
"516.63 411.21 OFFCURVE",
"474.6 463.21 CURVE SMOOTH",
"428.71 519.07 OFFCURVE",
"369.51 547 OFFCURVE",
"297 547 CURVE SMOOTH",
"241.75 546.75 OFFCURVE",
"192.92 529.28 OFFCURVE",
"150.52 494.58 CURVE SMOOTH",
"87.51 442.12 OFFCURVE",
"56 365.92 OFFCURVE",
"56 266 CURVE SMOOTH",
"56.24 187.65 OFFCURVE",
"77.05 122.74 OFFCURVE",
"118.44 71.25 CURVE SMOOTH",
"164.35 15.08 OFFCURVE",
"223.87 -13 OFFCURVE",
"297 -13 CURVE SMOOTH"
);
},
{
closed = 1;
nodes = (
"256.77 37.27 OFFCURVE",
"221.19 50.62 OFFCURVE",
"190.27 77.06 CURVE SMOOTH",
"141.42 119.88 OFFCURVE",
"117 182.86 OFFCURVE",
"117 266 CURVE SMOOTH",
"117.19 323.4 OFFCURVE",
"129.99 372.77 OFFCURVE",
"155.41 414.13 CURVE SMOOTH",
"189.62 468.71 OFFCURVE",
"236.81 496 OFFCURVE",
"297 496 CURVE SMOOTH",
"337.97 496 OFFCURVE",
"373.86 482.36 OFFCURVE",
"404.67 455.08 CURVE SMOOTH",
"453.56 411.79 OFFCURVE",
"478 348.76 OFFCURVE",
"478 266 CURVE SMOOTH",
"477.81 208.46 OFFCURVE",
"464.77 159.05 OFFCURVE",
"438.87 117.77 CURVE SMOOTH",
"404.43 63.93 OFFCURVE",
"357.14 37 OFFCURVE",
"297 37 CURVE SMOOTH"
);
}
);
vertWidth = 1000;
width = 594;
}
);
note = o;
unicode = 006F;
},
{
glyphname = p;
layers = (
{
hints = (
{
horizontal = 1;
place = "{-238, 21}";
target = up;
type = BottomGhost;
},
{
horizontal = 1;
place = "{-13, 51}";
type = Stem;
},
{
horizontal = 1;
place = "{496, 51}";
type = Stem;
},
{
place = "{100, 58}";
type = Stem;
},
{
place = "{487, 62}";
type = Stem;
},
{
horizontal = 1;
place = "{533, -20}";
target = down;
type = TopGhost;
}
);
layerId = "ADFD292A-F9BB-471F-8DBA-A614A3A5AC29";
paths = (
{
closed = 1;
nodes = (
"100 -238 LINE",
"158 -238 LINE",
"158 -46 LINE",
"157 52 LINE",
"212.33 9.2 OFFCURVE",
"264.67 -12.47 OFFCURVE",
"314 -13 CURVE SMOOTH",
"367.59 -12.73 OFFCURVE",
"415.11 5.24 OFFCURVE",
"456.56 40.91 CURVE SMOOTH",
"518.18 94.9 OFFCURVE",
"549 172.93 OFFCURVE",
"549 275 CURVE SMOOTH",
"548.89 329.36 OFFCURVE",
"541.03 376.86 OFFCURVE",
"525.42 417.52 CURVE SMOOTH",
"491.65 503.84 OFFCURVE",
"428.18 547 OFFCURVE",
"335 547 CURVE SMOOTH",
"285.09 546.66 OFFCURVE",
"225.76 520.33 OFFCURVE",
"157 468 CURVE",
"155 468 LINE",
"148 533 LINE",
"100 533 LINE"
);
},
{
closed = 1;
nodes = (
"259.97 38.28 OFFCURVE",
"209.64 59.95 OFFCURVE",
"158 103 CURVE",
"158 411 LINE",
"221.37 467.01 OFFCURVE",
"276.7 495.34 OFFCURVE",
"324 496 CURVE SMOOTH",
"330.59 495.97 OFFCURVE",
"337.33 495.65 OFFCURVE",
"344.23 495.05 CURVE SMOOTH",
"439.41 485.78 OFFCURVE",
"487 412.43 OFFCURVE",
"487 275 CURVE SMOOTH",
"486.83 215.93 OFFCURVE",
"474.76 165.44 OFFCURVE",
"450.78 123.54 CURVE SMOOTH",
"417.52 66.51 OFFCURVE",
"370.26 38 OFFCURVE",
"309 38 CURVE SMOOTH"
);
}
);
vertWidth = 1000;
width = 605;
}
);
note = p;
unicode = 0070;
},
{
glyphname = q;
layers = (
{
hints = (
{
horizontal = 1;
place = "{-238, 21}";
target = up;
type = BottomGhost;
},
{
horizontal = 1;
place = "{-13, 51}";
type = Stem;
},
{
horizontal = 1;
place = "{533, -20}";
target = down;
type = TopGhost;
},
{
place = "{56, 62}";
type = Stem;
},
{
place = "{447, 58}";
type = Stem;
},
{
place = "{454.5, 50.5}";
type = Stem;
},
{
horizontal = 1;
place = "{496, 51}";
type = Stem;
}
);
layerId = "ADFD292A-F9BB-471F-8DBA-A614A3A5AC29";
paths = (
{
closed = 1;
nodes = (
"447 -238 LINE",
"505 -238 LINE",
"505 533 LINE",
"458 533 LINE",
"451 483 LINE",
"449 483 LINE",
"445.84 485.57 OFFCURVE",
"442.43 488.29 OFFCURVE",
"438.77 491.17 CURVE SMOOTH",
"390.99 528.39 OFFCURVE",
"342.07 547 OFFCURVE",
"292 547 CURVE SMOOTH",
"236.54 546.72 OFFCURVE",
"187.41 527.43 OFFCURVE",
"144.63 489.13 CURVE SMOOTH",
"85.55 435.31 OFFCURVE",
"56 360.94 OFFCURVE",
"56 266 CURVE SMOOTH",
"56.14 200.17 OFFCURVE",
"67.76 144.36 OFFCURVE",
"90.83 98.59 CURVE SMOOTH",
"129.01 24.2 OFFCURVE",
"191.06 -13 OFFCURVE",
"277 -13 CURVE SMOOTH",
"336.72 -12.64 OFFCURVE",
"394.72 14.69 OFFCURVE",
"451 69 CURVE",
"447 -35 LINE"
);
},
{
closed = 1;
nodes = (
"254.34 38.2 OFFCURVE",
"225.4 46.5 OFFCURVE",
"200.2 62.91 CURVE SMOOTH",
"145.4 99.73 OFFCURVE",
"118 167.42 OFFCURVE",
"118 266 CURVE SMOOTH",
"118.2 323.77 OFFCURVE",
"132.23 374.01 OFFCURVE",
"160.08 416.73 CURVE SMOOTH",
"195.17 469.58 OFFCURVE",
"241.15 496 OFFCURVE",
"298 496 CURVE SMOOTH",
"348.35 495.76 OFFCURVE",
"398.02 473.76 OFFCURVE",
"447 430 CURVE",
"447 122 LINE",
"393.42 66.69 OFFCURVE",
"340.08 38.69 OFFCURVE",
"287 38 CURVE SMOOTH"
);
}
);
vertWidth = 1000;
width = 605;
}
);
note = q;
unicode = 0071;
},
{
glyphname = r;
layers = (
{
hints = (
{
horizontal = 1;
place = "{0, 21}";
target = up;
type = BottomGhost;
},
{
horizontal = 1;
place = "{492, 55}";
type = Stem;
},
{
place = "{100, 58}";
type = Stem;
},
{
horizontal = 1;
place = "{535, -20}";
target = down;
type = TopGhost;
},
{
horizontal = 1;
place = "{533, -20}";
target = down;
type = TopGhost;
}
);
layerId = "ADFD292A-F9BB-471F-8DBA-A614A3A5AC29";
paths = (
{
closed = 1;
nodes = (
"100 0 LINE",
"158 0 LINE",
"158 358 LINE",
"164.27 373.77 OFFCURVE",
"171.27 388.63 OFFCURVE",
"179.03 402.58 CURVE SMOOTH",
"212.71 462.2 OFFCURVE",
"253.37 492 OFFCURVE",
"301 492 CURVE SMOOTH",
"317.57 491.93 OFFCURVE",
"333.9 488.93 OFFCURVE",
"350 483 CURVE",
"362 535 LINE",
"347.18 542.67 OFFCURVE",
"329.18 546.67 OFFCURVE",
"308 547 CURVE SMOOTH",
"303.11 547 OFFCURVE",
"298.24 546.71 OFFCURVE",
"293.39 546.14 CURVE SMOOTH",
"239.19 539.73 OFFCURVE",
"193.72 502.35 OFFCURVE",
"157 434 CURVE",
"155 434 LINE",
"148 533 LINE",
"100 533 LINE"
);
}
);
vertWidth = 1000;
width = 359;
}
);
note = r;
unicode = 0072;
},
{
glyphname = s;
layers = (
{
hints = (
{
horizontal = 1;
place = "{-13, 48}";
type = Stem;
},
{
horizontal = 1;
place = "{498, 49}";
type = Stem;
},
{
place = "{64, 58}";
type = Stem;
},
{
place = "{356, 58}";
type = Stem;
}
);
layerId = "ADFD292A-F9BB-471F-8DBA-A614A3A5AC29";
paths = (
{
closed = 1;
nodes = (
"275.86 -12.82 OFFCURVE",
"314.24 -2.9 OFFCURVE",
"346.15 16.73 CURVE SMOOTH",
"391.38 45.3 OFFCURVE",
"414 86.06 OFFCURVE",
"414 139 CURVE SMOOTH",
"413.65 182.8 OFFCURVE",
"395.99 218.41 OFFCURVE",
"361.02 245.81 CURVE SMOOTH",
"341.32 260.72 OFFCURVE",
"301.65 279.45 OFFCURVE",
"242 302 CURVE SMOOTH",
"218.4 310.76 OFFCURVE",
"200.64 317.91 OFFCURVE",
"188.74 323.46 CURVE SMOOTH",
"144.25 344.45 OFFCURVE",
"122 371.96 OFFCURVE",
"122 406 CURVE SMOOTH",
"122.12 417.49 OFFCURVE",
"124.26 428.65 OFFCURVE",
"128.41 439.5 CURVE SMOOTH",
"144.32 478.5 OFFCURVE",
"180.85 498 OFFCURVE",
"238 498 CURVE SMOOTH",
"278.19 497.74 OFFCURVE",
"319.85 481.74 OFFCURVE",
"363 450 CURVE",
"394 490 LINE",
"347.79 527.59 OFFCURVE",
"296.12 546.59 OFFCURVE",
"239 547 CURVE SMOOTH",
"197.15 546.82 OFFCURVE",
"161.15 537.91 OFFCURVE",
"131.02 520.27 CURVE SMOOTH",
"86.34 493.39 OFFCURVE",
"64 454.3 OFFCURVE",
"64 403 CURVE SMOOTH",
"64.27 371.31 OFFCURVE",
"74.79 343.86 OFFCURVE",
"95.56 320.66 CURVE SMOOTH",
"117.78 296.74 OFFCURVE",
"161.59 273.19 OFFCURVE",
"227 250 CURVE SMOOTH",
"240.68 245.13 OFFCURVE",
"252.7 240.54 OFFCURVE",
"263.09 236.22 CURVE SMOOTH",
"325.03 210.19 OFFCURVE",
"356 176.79 OFFCURVE",
"356 136 CURVE SMOOTH",
"355.86 121.29 OFFCURVE",
"352.87 107.32 OFFCURVE",
"347.02 94.08 CURVE SMOOTH",
"328.66 54.7 OFFCURVE",
"290.99 35 OFFCURVE",
"234 35 CURVE SMOOTH",
"230.89 35.01 OFFCURVE",
"227.47 35.08 OFFCURVE",
"223.73 35.2 CURVE SMOOTH",
"169.99 37.26 OFFCURVE",
"117.41 59.53 OFFCURVE",
"66 102 CURVE",
"35 60 LINE",
"94.47 11.74 OFFCURVE",
"159.8 -12.59 OFFCURVE",
"231 -13 CURVE SMOOTH"
);
}
);
vertWidth = 1000;
width = 452;
}
);
note = s;
unicode = 0073;
},
{
glyphname = t;
layers = (
{
hints = (
{
horizontal = 1;
place = "{-13, 50}";
type = Stem;
},
{
horizontal = 1;
place = "{484, 49}";
type = Stem;
},
{
place = "{118.5, 52.5}";
type = Stem;
},
{
place = "{113, 58}";
type = Stem;
}
);
layerId = "ADFD292A-F9BB-471F-8DBA-A614A3A5AC29";
paths = (
{
closed = 1;
nodes = (
"271.73 -12.82 OFFCURVE",
"301.4 -6.15 OFFCURVE",
"339 7 CURVE",
"325 53 LINE",
"302.66 42.61 OFFCURVE",
"281 37.28 OFFCURVE",
"260 37 CURVE SMOOTH",
"246.67 37.09 OFFCURVE",
"234.59 38.76 OFFCURVE",
"223.76 42.02 CURVE SMOOTH",
"188.59 53.4 OFFCURVE",
"171 88.72 OFFCURVE",
"171 148 CURVE SMOOTH",
"171 484 LINE",
"324 484 LINE",
"324 533 LINE",
"171 533 LINE",
"171 687 LINE",
"122 687 LINE",
"115 533 LINE",
"30 528 LINE",
"30 484 LINE",
"113 484 LINE",
"113 152 LINE SMOOTH",
"113.04 134.45 OFFCURVE",
"114.1 118.13 OFFCURVE",
"116.19 103.04 CURVE SMOOTH",
"127.4 25.68 OFFCURVE",
"172 -13 OFFCURVE",
"250 -13 CURVE SMOOTH"
);
}
);
vertWidth = 1000;
width = 352;
}
);
note = t;
unicode = 0074;
},
{
glyphname = u;
layers = (
{
hints = (
{
horizontal = 1;
place = "{-13, 52}";
type = Stem;
},
{
horizontal = 1;
place = "{533, -20}";
target = down;
type = TopGhost;
},
{
place = "{92, 58}";
type = Stem;
},
{
place = "{432, 58}";
type = Stem;
},
{
horizontal = 1;
place = "{0, 21}";
target = up;
type = BottomGhost;
}
);
layerId = "ADFD292A-F9BB-471F-8DBA-A614A3A5AC29";
paths = (
{
closed = 1;
nodes = (
"259.17 -12.97 OFFCURVE",
"265.6 -12.65 OFFCURVE",
"272.27 -12.04 CURVE SMOOTH",
"326.34 -6.59 OFFCURVE",
"379.92 26.76 OFFCURVE",
"433 88 CURVE",
"436 88 LINE",
"441 0 LINE",
"490 0 LINE",
"490 533 LINE",
"432 533 LINE",
"432 143 LINE",
"418.52 126.88 OFFCURVE",
"405.82 112.79 OFFCURVE",
"393.89 100.73 CURVE SMOOTH",
"352.74 59.58 OFFCURVE",
"310.12 39 OFFCURVE",
"266 39 CURVE SMOOTH",
"251.57 39.08 OFFCURVE",
"238.25 40.77 OFFCURVE",
"226.06 44.07 CURVE SMOOTH",
"175.35 58.66 OFFCURVE",
"150 110.3 OFFCURVE",
"150 199 CURVE SMOOTH",
"150 533 LINE",
"92 533 LINE",
"92 192 LINE SMOOTH",
"92.04 172.95 OFFCURVE",
"93.05 154.95 OFFCURVE",
"95.03 138 CURVE SMOOTH",
"107.34 37.33 OFFCURVE",
"159.99 -13 OFFCURVE",
"253 -13 CURVE SMOOTH"
);
}
);
vertWidth = 1000;
width = 590;
}
);
note = u;
unicode = 0075;
},
{
glyphname = v;
layers = (
{
hints = (
{
horizontal = 1;
place = "{0, 52}";
type = Stem;
},
{
horizontal = 1;
place = "{533, -20}";
target = down;
type = TopGhost;
},
{
place = "{13, 463}";
type = Stem;
}
);
layerId = "ADFD292A-F9BB-471F-8DBA-A614A3A5AC29";
paths = (
{
closed = 1;
nodes = (
"211 0 LINE",
"280 0 LINE",
"476 533 LINE",
"417 533 LINE",
"301 206 LINE SMOOTH",
"288.72 168.48 OFFCURVE",
"271.06 117.15 OFFCURVE",
"248 52 CURVE",
"244 52 LINE",
"230.28 88.64 OFFCURVE",
"212.61 139.98 OFFCURVE",
"191 206 CURVE SMOOTH",
"76 533 LINE",
"13 533 LINE"
);
}
);
vertWidth = 1000;
width = 489;
}
);
note = v;
unicode = 0076;
},
{
glyphname = w;
layers = (
{
hints = (
{
horizontal = 1;
place = "{0, 52}";
type = Stem;
},
{
horizontal = 1;
place = "{474, 59}";
type = Stem;
},
{
place = "{26, 714}";
type = Stem;
}
);
layerId = "ADFD292A-F9BB-471F-8DBA-A614A3A5AC29";
paths = (
{
closed = 1;
nodes = (
"182 0 LINE",
"252 0 LINE",
"339 319 LINE",
"351.68 357.92 OFFCURVE",
"365.35 409.59 OFFCURVE",
"380 474 CURVE",
"385 474 LINE",
"389.62 457.6 OFFCURVE",
"395.93 433.32 OFFCURVE",
"403.91 401.15 CURVE SMOOTH",
"412.68 365.7 OFFCURVE",
"419.71 338.98 OFFCURVE",
"425 321 CURVE SMOOTH",
"515 0 LINE",
"590 0 LINE",
"740 533 LINE",
"683 533 LINE",
"592 197 LINE SMOOTH",
"588.97 185.13 OFFCURVE",
"584.45 167.48 OFFCURVE",
"578.44 144.07 CURVE SMOOTH",
"567.96 103.29 OFFCURVE",
"560.15 72.6 OFFCURVE",
"555 52 CURVE",
"551 52 LINE",
"540.3 88.73 OFFCURVE",
"527.3 137.06 OFFCURVE",
"512 197 CURVE SMOOTH",
"417 533 LINE",
"353 533 LINE",
"258 197 LINE SMOOTH",
"237.96 119.91 OFFCURVE",
"225.3 71.58 OFFCURVE",
"220 52 CURVE",
"215 52 LINE",
"214.52 54.32 OFFCURVE",
"203.18 102.65 OFFCURVE",
"181 197 CURVE",
"88 533 LINE",
"26 533 LINE"
);
}
);
vertWidth = 1000;
width = 766;
}
);
note = w;
unicode = 0077;
},
{
glyphname = x;
layers = (
{
hints = (
{
horizontal = 1;
place = "{0, 21}";
target = up;
type = BottomGhost;
},
{
horizontal = 1;
place = "{533, -20}";
target = down;
type = TopGhost;
},
{
place = "{15, 430}";
type = Stem;
}
);
layerId = "ADFD292A-F9BB-471F-8DBA-A614A3A5AC29";
paths = (
{
closed = 1;
nodes = (
"15 0 LINE",
"77 0 LINE",
"163 141 LINE SMOOTH",
"169.49 151.22 OFFCURVE",
"179.11 166.8 OFFCURVE",
"191.86 187.76 CURVE SMOOTH",
"205.61 210.39 OFFCURVE",
"215.99 227.14 OFFCURVE",
"223 238 CURVE",
"228 238 LINE",
"251.03 205.47 OFFCURVE",
"271.37 173.14 OFFCURVE",
"289 141 CURVE",
"380 0 LINE",
"445 0 LINE",
"265 273 LINE",
"430 533 LINE",
"369 533 LINE",
"290 402 LINE SMOOTH",
"259.53 351.19 OFFCURVE",
"241.86 321.86 OFFCURVE",
"237 314 CURVE",
"233 314 LINE",
"211.75 344.85 OFFCURVE",
"192.75 374.18 OFFCURVE",
"176 402 CURVE SMOOTH",
"94 533 LINE",
"30 533 LINE",
"195 279 LINE"
);
}
);
vertWidth = 1000;
width = 460;
}
);
note = x;
unicode = 0078;
},
{
glyphname = y;
layers = (
{
hints = (
{
horizontal = 1;
place = "{-240, 52}";
type = Stem;
},
{
horizontal = 1;
place = "{533, -20}";
target = down;
type = TopGhost;
},
{
place = "{13, 464}";
type = Stem;
}
);
layerId = "ADFD292A-F9BB-471F-8DBA-A614A3A5AC29";
paths = (
{
closed = 1;
nodes = (
"166.88 -239.22 OFFCURVE",
"228.22 -179.88 OFFCURVE",
"269 -62 CURVE SMOOTH",
"477 533 LINE",
"418 533 LINE",
"309 207 LINE SMOOTH",
"304.75 193.95 OFFCURVE",
"297.99 172.75 OFFCURVE",
"288.73 143.4 CURVE SMOOTH",
"276.31 104.01 OFFCURVE",
"267.07 75.21 OFFCURVE",
"261 57 CURVE",
"256 57 LINE",
"250.45 71.03 OFFCURVE",
"231.79 121.03 OFFCURVE",
"200 207 CURVE SMOOTH",
"76 533 LINE",
"13 533 LINE",
"231 -8 LINE",
"217 -53 LINE SMOOTH",
"186.59 -141.86 OFFCURVE",
"142.26 -186.86 OFFCURVE",
"84 -188 CURVE SMOOTH",
"70.23 -187.83 OFFCURVE",
"55.89 -185.17 OFFCURVE",
"41 -180 CURVE",
"28 -229 LINE",
"43.64 -236.09 OFFCURVE",
"62.64 -239.76 OFFCURVE",
"85 -240 CURVE SMOOTH"
);
}
);
vertWidth = 1000;
width = 490;
}
);
note = y;
unicode = 0079;
},
{
glyphname = z;
layers = (
{
hints = (
{
horizontal = 1;
place = "{0, 50}";
type = Stem;
},
{
horizontal = 1;
place = "{484, 49}";
type = Stem;
},
{
place = "{32, 392}";
type = Stem;
}
);
layerId = "ADFD292A-F9BB-471F-8DBA-A614A3A5AC29";
paths = (
{
closed = 1;
nodes = (
"32 0 LINE",
"424 0 LINE",
"424 50 LINE",
"107 50 LINE",
"414 502 LINE",
"414 533 LINE",
"65 533 LINE",
"65 484 LINE",
"339 484 LINE",
"32 31 LINE"
);
}
);
vertWidth = 1000;
width = 453;
}
);
note = z;
unicode = 007A;
},
{
glyphname = uni4E00;
layers = (
{
hints = (
{
horizontal = 1;
place = "{364, 53}";
type = Stem;
},
{
place = "{49, 906}";
type = Stem;
}
);
layerId = "ADFD292A-F9BB-471F-8DBA-A614A3A5AC29";
paths = (
{
closed = 1;
nodes = (
"49 417 LINE",
"49 364 LINE",
"955 364 LINE",
"955 417 LINE"
);
}
);
vertWidth = 1000;
width = 1000;
}
);
note = uni4E00;
unicode = 4E00;
},
{
glyphname = uni4E66;
layers = (
{
hints = (
{
horizontal = 1;
place = "{36, 40}";
type = Stem;
},
{
horizontal = 1;
place = "{338, 46}";
type = Stem;
},
{
horizontal = 1;
place = "{606, 47}";
type = Stem;
},
{
place = "{438, 48}";
type = Stem;
},
{
place = "{744, 47}";
type = Stem;
},
{
place = "{884, 52}";
type = Stem;
}
);
layerId = "ADFD292A-F9BB-471F-8DBA-A614A3A5AC29";
paths = (
{
closed = 1;
nodes = (
"943 659 LINE",
"900.31 698.24 OFFCURVE",
"840.98 743.24 OFFCURVE",
"765 794 CURVE",
"735 763 LINE",
"811.1 711.34 OFFCURVE",
"870.1 664.67 OFFCURVE",
"912 623 CURVE"
);
},
{
closed = 1;
nodes = (
"486 606 LINE",
"744 606 LINE",
"744 384 LINE",
"486 384 LINE"
);
},
{
closed = 1;
nodes = (
"791 384 LINE",
"791 653 LINE",
"486 653 LINE",
"486 829 LINE",
"438 829 LINE",
"438 653 LINE",
"136 653 LINE",
"136 606 LINE",
"438 606 LINE",
"438 384 LINE",
"64 384 LINE",
"64 338 LINE",
"438 338 LINE",
"438 -74 LINE",
"486 -74 LINE",
"486 338 LINE",
"884 338 LINE",
"883.25 328.49 OFFCURVE",
"882.48 318.98 OFFCURVE",
"881.69 309.5 CURVE SMOOTH",
"870.49 176.66 OFFCURVE",
"855.6 101.82 OFFCURVE",
"837 85 CURVE SMOOTH",
"829.66 79.38 OFFCURVE",
"816 76.38 OFFCURVE",
"796 76 CURVE SMOOTH",
"739.61 76 OFFCURVE",
"689.61 78.33 OFFCURVE",
"646 83 CURVE",
"654.71 69.09 OFFCURVE",
"660.38 53.43 OFFCURVE",
"663 36 CURVE",
"736.33 32.35 OFFCURVE",
"785.67 31.35 OFFCURVE",
"811 33 CURVE SMOOTH",
"840.05 34.1 OFFCURVE",
"861.72 41.77 OFFCURVE",
"876 56 CURVE SMOOTH",
"880.19 60.22 OFFCURVE",
"884.3 65.83 OFFCURVE",
"888.32 72.82 CURVE SMOOTH",
"906.16 105.87 OFFCURVE",
"921.38 201.26 OFFCURVE",
"934 359 CURVE SMOOTH",
"935.25 375 OFFCURVE",
"935.92 383.33 OFFCURVE",
"936 384 CURVE"
);
}
);
vertWidth = 1000;
width = 1000;
}
);
note = uni4E66;
unicode = 4E66;
},
{
glyphname = uni4F20;
layers = (
{
hints = (
{
horizontal = 1;
place = "{475, 46}";
type = Stem;
},
{
horizontal = 1;
place = "{665, 45}";
type = Stem;
},
{
place = "{173, 47}";
type = Stem;
},
{
horizontal = 1;
place = "{290, 46}";
type = Stem;
},
{
horizontal = 1;
place = "{318, 18}";
type = Stem;
}
);
layerId = "ADFD292A-F9BB-471F-8DBA-A614A3A5AC29";
paths = (
{
closed = 1;
nodes = (
"282 829 LINE",
"272.55 803.93 OFFCURVE",
"262 778.52 OFFCURVE",
"250.33 752.79 CURVE SMOOTH",
"187.59 614.97 OFFCURVE",
"111.47 503.04 OFFCURVE",
"22 417 CURVE",
"36.05 402.51 OFFCURVE",
"46.05 388.18 OFFCURVE",
"52 374 CURVE",
"91.05 412.28 OFFCURVE",
"131.38 461.95 OFFCURVE",
"173 523 CURVE",
"173 -72 LINE",
"220 -72 LINE",
"220 596 LINE",
"262.9 668.32 OFFCURVE",
"298.9 741.65 OFFCURVE",
"328 816 CURVE"
);
},
{
closed = 1;
nodes = (
"946 475 LINE",
"946 521 LINE",
"549 521 LINE",
"564.26 568.89 OFFCURVE",
"577.93 616.89 OFFCURVE",
"590 665 CURVE",
"904 665 LINE",
"904 710 LINE",
"603 710 LINE",
"620.98 775.34 OFFCURVE",
"631.32 813.34 OFFCURVE",
"634 824 CURVE",
"587 831 LINE",
"580.42 803.29 OFFCURVE",
"569.75 762.95 OFFCURVE",
"555 710 CURVE",
"347 710 LINE",
"347 665 LINE",
"543 665 LINE",
"537.09 643.23 OFFCURVE",
"523.09 595.23 OFFCURVE",
"501 521 CURVE",
"291 521 LINE",
"291 475 LINE",
"488 475 LINE",
"467.03 408.32 OFFCURVE",
"446.36 346.65 OFFCURVE",
"426 290 CURVE",
"792 290 LINE",
"734.23 219.97 OFFCURVE",
"676.89 153.63 OFFCURVE",
"620 91 CURVE",
"604.38 102.91 OFFCURVE",
"570.04 126.57 OFFCURVE",
"517 162 CURVE",
"481 132 LINE",
"493.95 123.68 OFFCURVE",
"507.67 114.49 OFFCURVE",
"522.17 104.44 CURVE SMOOTH",
"612.35 41.71 OFFCURVE",
"682.96 -17.11 OFFCURVE",
"734 -72 CURVE",
"771 -36 LINE",
"740.38 -5.48 OFFCURVE",
"702.05 27.85 OFFCURVE",
"656 64 CURVE",
"731.33 147.3 OFFCURVE",
"804.66 231.96 OFFCURVE",
"876 318 CURVE",
"841 339 LINE",
"833 336 LINE",
"493 336 LINE",
"512.29 396.82 OFFCURVE",
"526.62 443.16 OFFCURVE",
"536 475 CURVE"
);
}
);
vertWidth = 1000;
width = 1000;
}
);
note = uni4F20;
unicode = 4F20;
},
{
glyphname = uni4F53;
layers = (
{
hints = (
{
horizontal = 1;
place = "{123, 45}";
type = Stem;
},
{
horizontal = 1;
place = "{571, 46}";
type = Stem;
},
{
place = "{173, 46}";
type = Stem;
},
{
place = "{589, 47}";
type = Stem;
}
);
layerId = "ADFD292A-F9BB-471F-8DBA-A614A3A5AC29";
paths = (
{
closed = 1;
nodes = (
"269 829 LINE",
"263.43 812.32 OFFCURVE",
"257.39 795.32 OFFCURVE",
"250.88 777.99 CURVE SMOOTH",
"194.58 628.66 OFFCURVE",
"125.28 508.33 OFFCURVE",
"43 417 CURVE",
"57.37 399.26 OFFCURVE",
"67.37 384.92 OFFCURVE",
"73 374 CURVE",
"110.95 418.74 OFFCURVE",
"144.28 465.07 OFFCURVE",
"173 513 CURVE",
"173 -72 LINE",
"219 -72 LINE",
"219 594 LINE",
"257.03 668.06 OFFCURVE",
"288.7 742.4 OFFCURVE",
"314 817 CURVE"
);
},
{
closed = 1;
nodes = (
"948 571 LINE",
"948 617 LINE",
"636 617 LINE",
"636 831 LINE",
"589 831 LINE",
"589 617 LINE",
"290 617 LINE",
"290 571 LINE",
"551 571 LINE",
"532.41 520.81 OFFCURVE",
"510.3 471.04 OFFCURVE",
"484.65 421.69 CURVE SMOOTH",
"415.74 289.6 OFFCURVE",
"340.85 192.71 OFFCURVE",
"260 131 CURVE",
"274.45 121.01 OFFCURVE",
"286.11 109.35 OFFCURVE",
"295 96 CURVE",
"321.51 118.06 OFFCURVE",
"348.32 144.96 OFFCURVE",
"375.42 176.7 CURVE SMOOTH",
"463.49 280.63 OFFCURVE",
"534.69 408.4 OFFCURVE",
"589 560 CURVE",
"589 168 LINE",
"405 168 LINE",
"405 123 LINE",
"589 123 LINE",
"589 -69 LINE",
"636 -69 LINE",
"636 123 LINE",
"812 123 LINE",
"812 168 LINE",
"636 168 LINE",
"636 561 LINE",
"652.68 512.66 OFFCURVE",
"672.25 464.82 OFFCURVE",
"694.72 417.47 CURVE SMOOTH",
"762.9 274.38 OFFCURVE",
"839.66 167.89 OFFCURVE",
"925 98 CURVE",
"939.96 115.86 OFFCURVE",
"952.29 128.86 OFFCURVE",
"962 137 CURVE",
"930.84 160.11 OFFCURVE",
"899.38 190.18 OFFCURVE",
"867.62 227.22 CURVE SMOOTH",
"786.1 323.04 OFFCURVE",
"722.23 437.63 OFFCURVE",
"676 571 CURVE"
);
}
);
vertWidth = 1000;
width = 1000;
}
);
note = uni4F53;
unicode = 4F53;
},
{
glyphname = uni5973;
layers = (
{
hints = (
{
horizontal = 1;
place = "{534, 50}";
type = Stem;
},
{
place = "{52, 888}";
type = Stem;
}
);
layerId = "ADFD292A-F9BB-471F-8DBA-A614A3A5AC29";
paths = (
{
closed = 1;
nodes = (
"684 534 LINE",
"649.83 386.6 OFFCURVE",
"593.5 271.93 OFFCURVE",
"515 190 CURVE",
"416.86 234.82 OFFCURVE",
"333.52 270.15 OFFCURVE",
"265 296 CURVE",
"303.27 368.24 OFFCURVE",
"340.6 447.57 OFFCURVE",
"377 534 CURVE"
);
},
{
closed = 1;
nodes = (
"940 534 LINE",
"940 584 LINE",
"398 584 LINE",
"438.47 683.51 OFFCURVE",
"468.47 768.17 OFFCURVE",
"488 838 CURVE",
"437 846 LINE",
"416.29 770.92 OFFCURVE",
"384.96 683.58 OFFCURVE",
"343 584 CURVE",
"64 584 LINE",
"64 534 LINE",
"323 534 LINE",
"276.51 429.48 OFFCURVE",
"233.17 342.48 OFFCURVE",
"193 273 CURVE",
"292.38 236.09 OFFCURVE",
"386.38 196.75 OFFCURVE",
"475 155 CURVE",
"378.55 73.59 OFFCURVE",
"237.55 17.59 OFFCURVE",
"52 -13 CURVE",
"65.41 -29.09 OFFCURVE",
"74.74 -45.09 OFFCURVE",
"80 -61 CURVE",
"273.81 -27.09 OFFCURVE",
"422.81 36.58 OFFCURVE",
"527 130 CURVE",
"666.64 62.16 OFFCURVE",
"779.64 -5.18 OFFCURVE",
"866 -72 CURVE",
"909 -32 LINE",
"818.56 33.67 OFFCURVE",
"703.9 100 OFFCURVE",
"565 167 CURVE",
"645.32 255.12 OFFCURVE",
"702.65 377.45 OFFCURVE",
"737 534 CURVE"
);
}
);
vertWidth = 1000;
width = 1000;
}
);
note = uni5973;
unicode = 5973;
},
{
glyphname = uni7EDF;
layers = (
{
hints = (
{
horizontal = 1;
place = "{-50, 43}";
type = Stem;
},
{
horizontal = 1;
place = "{635, 45}";
type = Stem;
},
{
place = "{521, 48}";
type = Stem;
},
{
place = "{708, 47}";
type = Stem;
},
{
place = "{906, 42}";
type = Stem;
}
);
layerId = "ADFD292A-F9BB-471F-8DBA-A614A3A5AC29";
paths = (
{
closed = 1;
nodes = (
"712 701 LINE",
"693.45 747.86 OFFCURVE",
"671.79 792.19 OFFCURVE",
"647 834 CURVE",
"603 821 LINE",
"630.51 771.53 OFFCURVE",
"651.51 725.87 OFFCURVE",
"666 684 CURVE"
);
},
{
closed = 1;
nodes = (
"937 358 LINE",
"901.4 417.88 OFFCURVE",
"850.74 489.88 OFFCURVE",
"785 574 CURVE",
"747 555 LINE",
"766.02 530.81 OFFCURVE",
"792.35 494.81 OFFCURVE",
"826 447 CURVE",
"502 419 LINE",
"557.36 485.99 OFFCURVE",
"611.36 557.99 OFFCURVE",
"664 635 CURVE",
"941 635 LINE",
"941 680 LINE",
"414 680 LINE",
"414 635 LINE",
"606 635 LINE",
"602.74 630.31 OFFCURVE",
"599.04 625.03 OFFCURVE",
"594.88 619.15 CURVE SMOOTH",
"525.84 521.62 OFFCURVE",
"478.55 460.57 OFFCURVE",
"453 436 CURVE SMOOTH",
"442.07 424.19 OFFCURVE",
"423.07 414.86 OFFCURVE",
"396 408 CURVE",
"406.25 388.82 OFFCURVE",
"412.58 372.49 OFFCURVE",
"415 359 CURVE",
"416.5 359.55 OFFCURVE",
"418.31 360.17 OFFCURVE",
"420.42 360.87 CURVE SMOOTH",
"441.65 367.55 OFFCURVE",
"585.18 383.25 OFFCURVE",
"851 408 CURVE",
"870 379 OFFCURVE",
"885 354 OFFCURVE",
"896 333 CURVE"
);
},
{
closed = 1;
nodes = (
"147 264 LINE",
"225.98 350.65 OFFCURVE",
"305.98 460.98 OFFCURVE",
"387 595 CURVE",
"342 620 LINE",
"320.16 580.54 OFFCURVE",
"297.16 542.87 OFFCURVE",
"273 507 CURVE",
"120 489 LINE",
"184.54 576.2 OFFCURVE",
"246.21 682.87 OFFCURVE",
"305 809 CURVE",
"255 833 LINE",
"243.48 803.33 OFFCURVE",
"229.43 771.29 OFFCURVE",
"212.86 736.87 CURVE SMOOTH",
"171.72 651.75 OFFCURVE",
"135.1 587.13 OFFCURVE",
"103 543 CURVE SMOOTH",
"76.49 504.44 OFFCURVE",
"56.83 483.11 OFFCURVE",
"44 479 CURVE",
"49.57 467.53 OFFCURVE",
"55.23 450.53 OFFCURVE",
"61 428 CURVE",
"72.93 433.9 OFFCURVE",
"133.6 445.23 OFFCURVE",
"243 462 CURVE",
"195.11 391.26 OFFCURVE",
"155.78 339.59 OFFCURVE",
"125 307 CURVE",
"91.45 266.01 OFFCURVE",
"66.78 243.34 OFFCURVE",
"51 239 CURVE",
"58.07 220.45 OFFCURVE",
"63.4 204.12 OFFCURVE",
"67 190 CURVE",
"68.63 191.05 OFFCURVE",
"70.61 192.23 OFFCURVE",
"72.94 193.53 CURVE SMOOTH",
"89.49 202.2 OFFCURVE",
"187.51 225.69 OFFCURVE",
"367 264 CURVE",
"365.14 270.19 OFFCURVE",
"364.14 284.19 OFFCURVE",
"364 306 CURVE"
);
},
{
closed = 1;
nodes = (
"364 126 LINE",
"214.54 86.74 OFFCURVE",
"109.21 59.74 OFFCURVE",
"48 45 CURVE",
"59 -3 LINE",
"205.65 37.93 OFFCURVE",
"309.31 66.59 OFFCURVE",
"370 83 CURVE"
);
},
{
closed = 1;
nodes = (
"521 354 LINE",
"517.69 237.3 OFFCURVE",
"503.8 153.5 OFFCURVE",
"479.35 102.61 CURVE SMOOTH",
"450.63 43.8 OFFCURVE",
"396.51 0.6 OFFCURVE",
"317 -27 CURVE",
"329.83 -36.75 OFFCURVE",
"340.17 -49.09 OFFCURVE",
"348 -64 CURVE",
"429.58 -33.19 OFFCURVE",
"486.69 13.63 OFFCURVE",
"519.35 76.45 CURVE SMOOTH",
"548.02 133.02 OFFCURVE",
"564.57 225.54 OFFCURVE",
"569 354 CURVE"
);
},
{
closed = 1;
nodes = (
"785 -7 LINE SMOOTH",
"777.79 -6.96 OFFCURVE",
"771.96 -6.46 OFFCURVE",
"767.5 -5.51 CURVE SMOOTH",
"759.17 -3.33 OFFCURVE",
"755.01 5.17 OFFCURVE",
"755.01 20 CURVE SMOOTH",
"755.01 356 LINE",
"708.01 356 LINE",
"708.01 20 LINE SMOOTH",
"708.1 0.16 OFFCURVE",
"710.56 -15.02 OFFCURVE",
"715.4 -25.55 CURVE SMOOTH",
"723.56 -41.85 OFFCURVE",
"745.1 -50 OFFCURVE",
"780.01 -50 CURVE SMOOTH",
"879.01 -50 LINE SMOOTH",
"898.03 -49.81 OFFCURVE",
"912.46 -44.65 OFFCURVE",
"922.29 -34.51 CURVE SMOOTH",
"936.97 -17.9 OFFCURVE",
"945.54 28.94 OFFCURVE",
"948.01 106 CURVE",
"930.89 110.13 OFFCURVE",
"916.89 116.46 OFFCURVE",
"906.01 125 CURVE",
"904.49 68.02 OFFCURVE",
"901.84 31.49 OFFCURVE",
"898.05 15.41 CURVE SMOOTH",
"894.31 0.47 OFFCURVE",
"886.3 -7 OFFCURVE",
"874.01 -7 CURVE SMOOTH"
);
}
);
vertWidth = 1000;
width = 1000;
}
);
note = uni7EDF;
unicode = 7EDF;
},
{
glyphname = u16FE1;
layers = (
{
hints = (
{
horizontal = 1;
place = "{342, 91}";
type = Stem;
},
{
horizontal = 1;
place = "{665, 91}";
type = Stem;
},
{
place = "{78, 83}";
type = Stem;
},
{
place = "{360, 83}";
type = Stem;
},
{
place = "{576, 58}";
type = Stem;
},
{
place = "{549, 57}";
type = Stem;
}
);
layerId = "ADFD292A-F9BB-471F-8DBA-A614A3A5AC29";
paths = (
{
closed = 1;
nodes = (
"404 250 LINE",
"550 426 OFFCURVE",
"626.67 677 OFFCURVE",
"634 1003 CURVE",
"576 1000 LINE",
"573.33 858 OFFCURVE",
"554.5 725.83 OFFCURVE",
"519.5 603.5 CURVE SMOOTH",
"484.5 481.17 OFFCURVE",
"436.67 384.33 OFFCURVE",
"376 313 CURVE",
"403 280 LINE",
"254 690 LINE",
"199 670 LINE",
"352 260 LINE"
);
},
{
closed = 1;
nodes = (
"132.67 342 OFFCURVE",
"142.67 346.33 OFFCURVE",
"150 355 CURVE SMOOTH",
"157.33 363.67 OFFCURVE",
"161 374.33 OFFCURVE",
"161 387 CURVE SMOOTH",
"161 401 OFFCURVE",
"157.33 412.17 OFFCURVE",
"150 420.5 CURVE SMOOTH",
"142.67 428.83 OFFCURVE",
"132.67 433 OFFCURVE",
"120 433 CURVE SMOOTH",
"108 433 OFFCURVE",
"98 428.67 OFFCURVE",
"90 420 CURVE SMOOTH",
"82 411.33 OFFCURVE",
"78 400.33 OFFCURVE",
"78 387 CURVE SMOOTH",
"78 374.33 OFFCURVE",
"82 363.67 OFFCURVE",
"90 355 CURVE SMOOTH",
"98 346.33 OFFCURVE",
"108 342 OFFCURVE",
"120 342 CURVE SMOOTH"
);
},
{
closed = 1;
nodes = (
"353 -120 LINE",
"521.67 33.33 OFFCURVE",
"606 182.33 OFFCURVE",
"606 327 CURVE SMOOTH",
"606 404.33 OFFCURVE",
"587.33 486.33 OFFCURVE",
"550 573 CURVE",
"512 508 LINE",
"536.67 443.33 OFFCURVE",
"549 382 OFFCURVE",
"549 324 CURVE SMOOTH",
"549 266.67 OFFCURVE",
"528.33 203 OFFCURVE",
"487 133 CURVE SMOOTH",
"445.67 63 OFFCURVE",
"388.33 -6 OFFCURVE",
"315 -74 CURVE"
);
},
{
closed = 1;
nodes = (
"360 697.33 OFFCURVE",
"364 686.67 OFFCURVE",
"372 678 CURVE SMOOTH",
"380 669.33 OFFCURVE",
"389.67 665 OFFCURVE",
"401 665 CURVE SMOOTH",
"413.67 665 OFFCURVE",
"423.83 669.33 OFFCURVE",
"431.5 678 CURVE SMOOTH",
"439.17 686.67 OFFCURVE",
"443 697.33 OFFCURVE",
"443 710 CURVE SMOOTH",
"443 724 OFFCURVE",
"439.33 735.17 OFFCURVE",
"432 743.5 CURVE SMOOTH",
"424.67 751.83 OFFCURVE",
"414.33 756 OFFCURVE",
"401 756 CURVE SMOOTH",
"389.67 756 OFFCURVE",
"380 751.67 OFFCURVE",
"372 743 CURVE SMOOTH",
"364 734.33 OFFCURVE",
"360 723.33 OFFCURVE",
"360 710 CURVE SMOOTH"
);
}
);
vertWidth = 1000;
width = 769;
}
);
note = u16FE1;
unicode = 16FE1;
},
{
glyphname = u1B170;
layers = (
{
hints = (
{
place = "{538, 58}";
type = Stem;
}
);
layerId = "ADFD292A-F9BB-471F-8DBA-A614A3A5AC29";
paths = (
{
closed = 1;
nodes = (
"173 -120 LINE",
"322.35 31.57 OFFCURVE",
"429.35 198.24 OFFCURVE",
"494 380 CURVE SMOOTH",
"557.8 560.78 OFFCURVE",
"591.8 768.45 OFFCURVE",
"596 1003 CURVE",
"538 1000 LINE",
"533.9 779.15 OFFCURVE",
"500.57 579.48 OFFCURVE",
"438 401 CURVE SMOOTH",
"375.33 223.48 OFFCURVE",
"273.66 64.15 OFFCURVE",
"133 -77 CURVE"
);
}
);
vertWidth = 1000;
width = 769;
}
);
note = u1B170;
unicode = 1B170;
},
{
glyphname = u1B171;
layers = (
{
hints = (
{
place = "{548, 60}";
type = Stem;
}
);
layerId = "ADFD292A-F9BB-471F-8DBA-A614A3A5AC29";
paths = (
{
closed = 1;
nodes = (
"185 213 LINE",
"317.66 310.98 OFFCURVE",
"418.33 422.64 OFFCURVE",
"487 548 CURVE SMOOTH",
"554.28 672.02 OFFCURVE",
"594.61 821.35 OFFCURVE",
"608 996 CURVE",
"548 1000 LINE",
"535 835 OFFCURVE",
"498 695 OFFCURVE",
"437 580 CURVE SMOOTH",
"375 465 OFFCURVE",
"280 360 OFFCURVE",
"152 265 CURVE"
);
},
{
closed = 1;
nodes = (
"137 -120 LINE",
"286.94 -16.22 OFFCURVE",
"406.28 89.78 OFFCURVE",
"495 198 CURVE",
"450 236 LINE",
"360.61 131.9 OFFCURVE",
"244.95 29.9 OFFCURVE",
"103 -70 CURVE"
);
}
);
vertWidth = 1000;
width = 769;
}
);
note = u1B171;
unicode = 1B171;
},
{
glyphname = u1B172;
layers = (
{
hints = (
{
place = "{421, 57}";
type = Stem;
},
{
place = "{592, 54}";
type = Stem;
}
);
layerId = "ADFD292A-F9BB-471F-8DBA-A614A3A5AC29";
paths = (
{
closed = 1;
nodes = (
"151 220 LINE",
"233.68 273.5 OFFCURVE",
"302.34 324.5 OFFCURVE",
"357 373 CURVE SMOOTH",
"412 422 OFFCURVE",
"461 477 OFFCURVE",
"504 538 CURVE SMOOTH",
"544.91 597.62 OFFCURVE",
"577.24 665.29 OFFCURVE",
"601 741 CURVE SMOOTH",
"624 815 OFFCURVE",
"639 900 OFFCURVE",
"646 996 CURVE",
"592 1000 LINE",
"585.11 910.32 OFFCURVE",
"570.44 828.98 OFFCURVE",
"548 756 CURVE SMOOTH",
"525.65 684.25 OFFCURVE",
"494.65 619.92 OFFCURVE",
"455 563 CURVE SMOOTH",
"412.63 503.24 OFFCURVE",
"365.96 451.57 OFFCURVE",
"315 408 CURVE SMOOTH",
"259.38 360.86 OFFCURVE",
"194.38 314.53 OFFCURVE",
"120 269 CURVE"
);
},
{
closed = 1;
nodes = (
"307 -120 LINE",
"366.73 -57.06 OFFCURVE",
"410.07 4.94 OFFCURVE",
"437 66 CURVE SMOOTH",
"464.06 127.5 OFFCURVE",
"477.73 193.83 OFFCURVE",
"478 265 CURVE SMOOTH",
"477.82 388.75 OFFCURVE",
"430.49 562.75 OFFCURVE",
"336 787 CURVE",
"284 765 LINE",
"335.01 640.02 OFFCURVE",
"370.34 541.68 OFFCURVE",
"390 470 CURVE SMOOTH",
"410.46 394.66 OFFCURVE",
"420.8 326.33 OFFCURVE",
"421 265 CURVE SMOOTH",
"421 202 OFFCURVE",
"409 143 OFFCURVE",
"385 88 CURVE SMOOTH",
"360 33 OFFCURVE",
"321 -23 OFFCURVE",
"268 -80 CURVE"
);
}
);
vertWidth = 1000;
width = 769;
}
);
note = u1B172;
unicode = 1B172;
},
{
glyphname = u1B173;
layers = (
{
hints = (
{
place = "{423, 58}";
type = Stem;
}
);
layerId = "ADFD292A-F9BB-471F-8DBA-A614A3A5AC29";
paths = (
{
closed = 1;
nodes = (
"122 -120 LINE",
"191.44 -49.44 OFFCURVE",
"250.11 26.9 OFFCURVE",
"298 109 CURVE SMOOTH",
"345.05 190.28 OFFCURVE",
"381.05 278.94 OFFCURVE",
"406 375 CURVE SMOOTH",
"430.8 470.4 OFFCURVE",
"448.8 566.07 OFFCURVE",
"460 662 CURVE SMOOTH",
"470.95 756.9 OFFCURVE",
"477.95 869.23 OFFCURVE",
"481 999 CURVE",
"423 1000 LINE",
"420.02 905.08 OFFCURVE",
"416.02 822.75 OFFCURVE",
"411 753 CURVE SMOOTH",
"406.31 688.85 OFFCURVE",
"396.65 613.18 OFFCURVE",
"382 526 CURVE SMOOTH",
"367.15 444.13 OFFCURVE",
"348.15 370.8 OFFCURVE",
"325 306 CURVE SMOOTH",
"300.84 241.78 OFFCURVE",
"268.5 176.44 OFFCURVE",
"228 110 CURVE SMOOTH",
"186 41 OFFCURVE",
"136 -22 OFFCURVE",
"78 -79 CURVE"
);
},
{
closed = 1;
nodes = (
"369 352 LINE",
"410.01 297.56 OFFCURVE",
"452.67 229.56 OFFCURVE",
"497 148 CURVE SMOOTH",
"538.23 71.88 OFFCURVE",
"575.89 -6.79 OFFCURVE",
"610 -88 CURVE",
"663 -66 LINE",
"574.73 135.42 OFFCURVE",
"483.4 297.42 OFFCURVE",
"389 420 CURVE"
);
}
);
vertWidth = 1000;
width = 769;
}
);
note = u1B173;
unicode = 1B173;
},
{
glyphname = u1B174;
layers = (
{
hints = (
{
place = "{246, 57}";
type = Stem;
},
{
place = "{489, 53}";
type = Stem;
}
);
layerId = "ADFD292A-F9BB-471F-8DBA-A614A3A5AC29";
paths = (
{
closed = 1;
nodes = (
"162 -120 LINE",
"255.63 52.65 OFFCURVE",
"302.63 221.98 OFFCURVE",
"303 388 CURVE SMOOTH",
"302.85 525.6 OFFCURVE",
"270.18 669.94 OFFCURVE",
"205 821 CURVE",
"152 798 LINE",
"214.36 655.14 OFFCURVE",
"245.69 518.48 OFFCURVE",
"246 388 CURVE SMOOTH",
"245.81 233.25 OFFCURVE",
"201.15 72.92 OFFCURVE",
"112 -93 CURVE"
);
},
{
closed = 1;
nodes = (
"489 397 OFFCURVE",
"535 228 OFFCURVE",
"627 57 CURVE",
"678 88 LINE",
"587.72 249.05 OFFCURVE",
"542.38 407.72 OFFCURVE",
"542 564 CURVE SMOOTH",
"542.17 692.03 OFFCURVE",
"576.84 829.03 OFFCURVE",
"646 975 CURVE",
"594 1000 LINE",
"524.32 839.44 OFFCURVE",
"489.32 694.1 OFFCURVE",
"489 564 CURVE SMOOTH"
);
}
);
vertWidth = 1000;
width = 769;
}
);
note = u1B174;
unicode = 1B174;
},
{
glyphname = u1B175;
layers = (
{
hints = (
{
horizontal = 1;
place = "{-1, 21}";
target = up;
type = BottomGhost;
},
{
place = "{539, 56}";
type = Stem;
}
);
layerId = "ADFD292A-F9BB-471F-8DBA-A614A3A5AC29";
paths = (
{
closed = 1;
nodes = (
"659 22 LINE",
"619.94 114.18 OFFCURVE",
"588.61 183.52 OFFCURVE",
"565 230 CURVE SMOOTH",
"539.44 280.08 OFFCURVE",
"502.77 343.08 OFFCURVE",
"455 419 CURVE SMOOTH",
"413.88 485.77 OFFCURVE",
"378.54 538.77 OFFCURVE",
"349 578 CURVE SMOOTH",
"319.6 616.82 OFFCURVE",
"278.26 666.49 OFFCURVE",
"225 727 CURVE",
"183 688 LINE",
"241.92 619.53 OFFCURVE",
"289.26 561.53 OFFCURVE",
"325 514 CURVE SMOOTH",
"356.08 470.21 OFFCURVE",
"390.42 415.88 OFFCURVE",
"428 351 CURVE SMOOTH",
"498.63 230.25 OFFCURVE",
"558.63 112.92 OFFCURVE",
"608 -1 CURVE"
);
},
{
closed = 1;
nodes = (
"428 415 LINE",
"359.24 257.67 OFFCURVE",
"246.57 91.67 OFFCURVE",
"90 -83 CURVE",
"133 -120 LINE",
"202.7 -44.49 OFFCURVE",
"263.37 29.51 OFFCURVE",
"315 102 CURVE SMOOTH",
"380.77 196.49 OFFCURVE",
"430.77 280.49 OFFCURVE",
"465 354 CURVE"
);
},
{
closed = 1;
nodes = (
"465 351 LINE",
"506.34 437.82 OFFCURVE",
"536.34 530.82 OFFCURVE",
"555 630 CURVE SMOOTH",
"572.41 723.11 OFFCURVE",
"585.74 845.78 OFFCURVE",
"595 998 CURVE",
"539 1000 LINE",
"530.48 857.58 OFFCURVE",
"519.48 746.58 OFFCURVE",
"506 667 CURVE SMOOTH",
"489.33 579.16 OFFCURVE",
"463.33 494.16 OFFCURVE",
"428 412 CURVE"
);
}
);
vertWidth = 1000;
width = 769;
}
);
note = u1B175;
unicode = 1B175;
},
{
glyphname = u1B176;
layers = (
{
hints = (
{
horizontal = 1;
place = "{353, 98}";
type = Stem;
},
{
place = "{157, 90}";
type = Stem;
},
{
place = "{529, 59}";
type = Stem;
}
);
layerId = "ADFD292A-F9BB-471F-8DBA-A614A3A5AC29";
paths = (
{
closed = 1;
nodes = (
"388 -120 LINE",
"521.33 52.67 OFFCURVE",
"588 257.67 OFFCURVE",
"588 495 CURVE SMOOTH",
"588 649 OFFCURVE",
"554 817.33 OFFCURVE",
"486 1000 CURVE",
"426 980 LINE",
"494.67 790 OFFCURVE",
"529 628 OFFCURVE",
"529 494 CURVE SMOOTH",
"529 280 OFFCURVE",
"465 88.67 OFFCURVE",
"337 -80 CURVE"
);
},
{
closed = 1;
nodes = (
"215.33 353 OFFCURVE",
"226.17 358 OFFCURVE",
"234.5 368 CURVE SMOOTH",
"242.83 378 OFFCURVE",
"247 389 OFFCURVE",
"247 401 CURVE SMOOTH",
"247 414.33 OFFCURVE",
"242.83 426 OFFCURVE",
"234.5 436 CURVE SMOOTH",
"226.17 446 OFFCURVE",
"215.33 451 OFFCURVE",
"202 451 CURVE SMOOTH",
"190.67 451 OFFCURVE",
"180.33 445.83 OFFCURVE",
"171 435.5 CURVE SMOOTH",
"161.67 425.17 OFFCURVE",
"157 413.67 OFFCURVE",
"157 401 CURVE SMOOTH",
"157 389.67 OFFCURVE",
"161.67 378.83 OFFCURVE",
"171 368.5 CURVE SMOOTH",
"180.33 358.17 OFFCURVE",
"190.67 353 OFFCURVE",
"202 353 CURVE SMOOTH"
);
}
);
vertWidth = 1000;
width = 769;
}
);
note = u1B176;
unicode = 1B176;
},
{
glyphname = u1B177;
layers = (
{
hints = (
{
horizontal = 1;
place = "{355, 97}";
type = Stem;
},
{
place = "{203, 57}";
type = Stem;
},
{
place = "{543, 90}";
type = Stem;
}
);
layerId = "ADFD292A-F9BB-471F-8DBA-A614A3A5AC29";
paths = (
{
closed = 1;
nodes = (
"435 -87 LINE",
"318.33 63.67 OFFCURVE",
"260 238.33 OFFCURVE",
"260 437 CURVE SMOOTH",
"260 529.67 OFFCURVE",
"271.83 615.5 OFFCURVE",
"295.5 694.5 CURVE SMOOTH",
"319.17 773.5 OFFCURVE",
"356.67 864.33 OFFCURVE",
"408 967 CURVE",
"354 1000 LINE",
"302.67 892.67 OFFCURVE",
"264.67 796.83 OFFCURVE",
"240 712.5 CURVE SMOOTH",
"215.33 628.17 OFFCURVE",
"203 537.33 OFFCURVE",
"203 440 CURVE SMOOTH",
"203 220 OFFCURVE",
"265 29.67 OFFCURVE",
"389 -131 CURVE"
);
},
{
closed = 1;
nodes = (
"601.33 355 OFFCURVE",
"612.17 360 OFFCURVE",
"620.5 370 CURVE SMOOTH",
"628.83 380 OFFCURVE",
"633 391 OFFCURVE",
"633 403 CURVE SMOOTH",
"633 416.33 OFFCURVE",
"628.83 427.83 OFFCURVE",
"620.5 437.5 CURVE SMOOTH",
"612.17 447.17 OFFCURVE",
"601.33 452 OFFCURVE",
"588 452 CURVE SMOOTH",
"576.67 452 OFFCURVE",
"566.33 447 OFFCURVE",
"557 437 CURVE SMOOTH",
"547.67 427 OFFCURVE",
"543 415.67 OFFCURVE",
"543 403 CURVE SMOOTH",
"543 391.67 OFFCURVE",
"547.67 380.83 OFFCURVE",
"557 370.5 CURVE SMOOTH",
"566.33 360.17 OFFCURVE",
"576.67 355 OFFCURVE",
"588 355 CURVE SMOOTH"
);
}
);
vertWidth = 1000;
width = 769;
}
);
note = u1B177;
unicode = 1B177;
},
{
glyphname = u1B178;
layers = (
{
hints = (
{
place = "{209, 56}";
type = Stem;
},
{
place = "{426, 57}";
type = Stem;
},
{
place = "{569, 55}";
type = Stem;
}
);
layerId = "ADFD292A-F9BB-471F-8DBA-A614A3A5AC29";
paths = (
{
closed = 1;
nodes = (
"246 -120 LINE",
"326.67 -32.67 OFFCURVE",
"386.33 73.17 OFFCURVE",
"425 197.5 CURVE SMOOTH",
"463.67 321.83 OFFCURVE",
"483 469.33 OFFCURVE",
"483 640 CURVE SMOOTH",
"483 744 OFFCURVE",
"476 864 OFFCURVE",
"462 1000 CURVE",
"406 993 LINE",
"419.33 848.33 OFFCURVE",
"426 730.67 OFFCURVE",
"426 640 CURVE SMOOTH",
"426 476 OFFCURVE",
"407.83 335.33 OFFCURVE",
"371.5 218 CURVE SMOOTH",
"335.17 100.67 OFFCURVE",
"278.67 1 OFFCURVE",
"202 -81 CURVE"
);
},
{
closed = 1;
nodes = (
"123 54 LINE",
"217.67 152 OFFCURVE",
"265 273 OFFCURVE",
"265 417 CURVE SMOOTH",
"265 485.67 OFFCURVE",
"254.33 559.67 OFFCURVE",
"233 639 CURVE",
"179 620 LINE",
"199 544 OFFCURVE",
"209 476.33 OFFCURVE",
"209 417 CURVE SMOOTH",
"209 287 OFFCURVE",
"167.33 179 OFFCURVE",
"84 93 CURVE"
);
},
{
closed = 1;
nodes = (
"569 140.33 OFFCURVE",
"597.67 31.67 OFFCURVE",
"655 -77 CURVE",
"703 -48 LINE",
"650.33 52.67 OFFCURVE",
"624 151.67 OFFCURVE",
"624 249 CURVE SMOOTH",
"624 329 OFFCURVE",
"642.33 415.33 OFFCURVE",
"679 508 CURVE",
"630 534 LINE",
"589.33 436 OFFCURVE",
"569 341 OFFCURVE",
"569 249 CURVE SMOOTH"
);
}
);
vertWidth = 1000;
width = 769;
}
);
note = u1B178;
unicode = 1B178;
},
{
glyphname = u1B179;
layers = (
{
hints = (
{
place = "{359, 60}";
type = Stem;
},
{
place = "{454, 58}";
type = Stem;
},
{
place = "{574, 60}";
type = Stem;
}
);
layerId = "ADFD292A-F9BB-471F-8DBA-A614A3A5AC29";
paths = (
{
closed = 1;
nodes = (
"180 459 LINE",
"301.33 513.67 OFFCURVE",
"400.83 585.83 OFFCURVE",
"478.5 675.5 CURVE SMOOTH",
"556.17 765.17 OFFCURVE",
"608 870 OFFCURVE",
"634 990 CURVE",
"574 1000 LINE",
"531.33 784 OFFCURVE",
"392.67 622.67 OFFCURVE",
"158 516 CURVE"
);
},
{
closed = 1;
nodes = (
"390 -120 LINE",
"409.33 -38 OFFCURVE",
"419 54 OFFCURVE",
"419 156 CURVE SMOOTH",
"419 230 OFFCURVE",
"415.33 297.67 OFFCURVE",
"408 359 CURVE",
"348 330 LINE",
"355.33 269.33 OFFCURVE",
"359 211.33 OFFCURVE",
"359 156 CURVE SMOOTH",
"359 62 OFFCURVE",
"349.67 -26 OFFCURVE",
"331 -108 CURVE"
);
},
{
closed = 1;
nodes = (
"159 185 LINE",
"279.67 235 OFFCURVE",
"368.67 289.83 OFFCURVE",
"426 349.5 CURVE SMOOTH",
"483.33 409.17 OFFCURVE",
"512 478.33 OFFCURVE",
"512 557 CURVE SMOOTH",
"512 601 OFFCURVE",
"502.67 650.33 OFFCURVE",
"484 705 CURVE",
"431 683 LINE",
"446.33 638.33 OFFCURVE",
"454 597 OFFCURVE",
"454 559 CURVE SMOOTH",
"454 493 OFFCURVE",
"428.67 434.33 OFFCURVE",
"378 383 CURVE SMOOTH",
"327.33 331.67 OFFCURVE",
"248.33 285 OFFCURVE",
"141 243 CURVE"
);
}
);
vertWidth = 1000;
width = 769;
}
);
note = u1B179;
unicode = 1B179;
},
{
glyphname = u1B17A;
layers = (
{
hints = (
{
place = "{409, 54}";
type = Stem;
},
{
place = "{536, 56}";
type = Stem;
}
);
layerId = "ADFD292A-F9BB-471F-8DBA-A614A3A5AC29";
paths = (
{
closed = 1;
nodes = (
"642 301 LINE",
"558.03 493.79 OFFCURVE",
"424.36 676.12 OFFCURVE",
"241 848 CURVE",
"201 810 LINE",
"388.32 629.5 OFFCURVE",
"518.65 451.83 OFFCURVE",
"592 277 CURVE"
);
},
{
closed = 1;
nodes = (
"434 -120 LINE",
"453.18 -53.96 OFFCURVE",
"462.85 31.04 OFFCURVE",
"463 135 CURVE SMOOTH",
"462.96 218.16 OFFCURVE",
"458.62 283.16 OFFCURVE",
"450 330 CURVE",
"397 323 LINE",
"405 267 OFFCURVE",
"409 202 OFFCURVE",
"409 128 CURVE SMOOTH",
"409 32 OFFCURVE",
"400 -48 OFFCURVE",
"382 -112 CURVE"
);
},
{
closed = 1;
nodes = (
"160 237 LINE",
"293.07 341.37 OFFCURVE",
"393.74 451.7 OFFCURVE",
"462 568 CURVE",
"423 612 LINE",
"357.05 495.72 OFFCURVE",
"257.72 385.38 OFFCURVE",
"125 281 CURVE"
);
},
{
closed = 1;
nodes = (
"462 566 LINE",
"529.26 686.98 OFFCURVE",
"572.59 830.65 OFFCURVE",
"592 997 CURVE",
"536 1000 LINE",
"518.76 850.86 OFFCURVE",
"481.09 720.86 OFFCURVE",
"423 610 CURVE"
);
}
);
vertWidth = 1000;
width = 769;
}
);
note = u1B17A;
unicode = 1B17A;
},
{
glyphname = u1B17B;
layers = (
{
hints = (
{
place = "{576, 54}";
type = Stem;
}
);
layerId = "ADFD292A-F9BB-471F-8DBA-A614A3A5AC29";
paths = (
{
closed = 1;
nodes = (
"305 802 LINE",
"251 782 LINE",
"529 21 LINE",
"583 41 LINE"
);
},
{
closed = 1;
nodes = (
"143 -120 LINE",
"272.33 10.49 OFFCURVE",
"379 152.49 OFFCURVE",
"463 306 CURVE",
"422 349 LINE",
"341.47 196.17 OFFCURVE",
"235.13 52.5 OFFCURVE",
"103 -82 CURVE"
);
},
{
closed = 1;
nodes = (
"371 537 LINE",
"314.79 477.93 OFFCURVE",
"239.12 415.26 OFFCURVE",
"144 349 CURVE",
"174 303 LINE",
"261 363 OFFCURVE",
"334 423 OFFCURVE",
"393 483 CURVE"
);
},
{
closed = 1;
nodes = (
"393 478 LINE",
"416.5 500.93 OFFCURVE",
"438.42 524.79 OFFCURVE",
"458.74 549.59 CURVE SMOOTH",
"555.29 668.21 OFFCURVE",
"612.37 817.34 OFFCURVE",
"630 997 CURVE",
"576 1000 LINE",
"573.29 969.66 OFFCURVE",
"568.62 936.66 OFFCURVE",
"562 901 CURVE SMOOTH",
"533.63 758.21 OFFCURVE",
"470.3 634.87 OFFCURVE",
"372 531 CURVE"
);
}
);
vertWidth = 1000;
width = 769;
}
);
note = u1B17B;
unicode = 1B17B;
},
{
glyphname = u1B17C;
layers = (
{
hints = (
{
place = "{482, 54}";
type = Stem;
}
);
layerId = "ADFD292A-F9BB-471F-8DBA-A614A3A5AC29";
paths = (
{
closed = 1;
nodes = (
"672 -67 LINE",
"626.86 9.01 OFFCURVE",
"564.53 93.67 OFFCURVE",
"485 187 CURVE",
"518.69 254.74 OFFCURVE",
"535.69 328.74 OFFCURVE",
"536 409 CURVE SMOOTH",
"535.9 481.03 OFFCURVE",
"523.56 561.36 OFFCURVE",
"499 650 CURVE",
"499 651 LINE",
"549.77 741.05 OFFCURVE",
"591.43 853.38 OFFCURVE",
"624 988 CURVE",
"571 1000 LINE",
"537.57 873.7 OFFCURVE",
"493.24 761.03 OFFCURVE",
"438 662 CURVE SMOOTH",
"383.47 566.1 OFFCURVE",
"309.47 473.77 OFFCURVE",
"216 385 CURVE",
"216 383 LINE",
"283 324 OFFCURVE",
"350 257 OFFCURVE",
"417 182 CURVE",
"393.65 145.68 OFFCURVE",
"363.31 110.68 OFFCURVE",
"326 77 CURVE SMOOTH",
"267.53 26.59 OFFCURVE",
"191.19 -22.41 OFFCURVE",
"97 -70 CURVE",
"124 -120 LINE",
"277.95 -42.84 OFFCURVE",
"387.95 43.83 OFFCURVE",
"454 140 CURVE",
"523.53 56.08 OFFCURVE",
"580.19 -22.26 OFFCURVE",
"624 -95 CURVE"
);
},
{
closed = 1;
nodes = (
"362.83 453.09 OFFCURVE",
"418.16 523.09 OFFCURVE",
"461 589 CURVE",
"474.84 527.38 OFFCURVE",
"481.84 468.05 OFFCURVE",
"482 411 CURVE SMOOTH",
"482 346 OFFCURVE",
"470 286 OFFCURVE",
"446 231 CURVE",
"395.77 286.72 OFFCURVE",
"345.43 336.05 OFFCURVE",
"295 379 CURVE"
);
}
);
vertWidth = 1000;
width = 769;
}
);
note = u1B17C;
unicode = 1B17C;
},
{
glyphname = u1B17D;
layers = (
{
hints = (
{
horizontal = 1;
place = "{201, 92}";
type = Stem;
},
{
place = "{381, 57}";
type = Stem;
},
{
place = "{471, 55}";
type = Stem;
},
{
place = "{590, 85}";
type = Stem;
}
);
layerId = "ADFD292A-F9BB-471F-8DBA-A614A3A5AC29";
paths = (
{
closed = 1;
nodes = (
"471 1000 LINE",
"452.42 827.45 OFFCURVE",
"414.09 680.45 OFFCURVE",
"356 559 CURVE SMOOTH",
"299.4 439.2 OFFCURVE",
"217.4 327.87 OFFCURVE",
"110 225 CURVE",
"147 185 LINE",
"239.04 273.2 OFFCURVE",
"313.38 367.2 OFFCURVE",
"370 467 CURVE",
"377.27 386.83 OFFCURVE",
"380.93 318.5 OFFCURVE",
"381 262 CURVE SMOOTH",
"380.93 148.92 OFFCURVE",
"367.93 26.25 OFFCURVE",
"342 -106 CURVE",
"397 -120 LINE",
"424.19 19.28 OFFCURVE",
"437.86 146.61 OFFCURVE",
"438 262 CURVE SMOOTH",
"437.96 341.88 OFFCURVE",
"431.29 440.88 OFFCURVE",
"418 559 CURVE",
"475.67 688.31 OFFCURVE",
"511.67 834.65 OFFCURVE",
"526 998 CURVE"
);
},
{
closed = 1;
nodes = (
"656.42 287.23 OFFCURVE",
"645.75 291.56 OFFCURVE",
"632 293 CURVE",
"623.38 292.7 OFFCURVE",
"613.71 288.04 OFFCURVE",
"603 279 CURVE",
"595.81 270.55 OFFCURVE",
"591.48 259.55 OFFCURVE",
"590 246 CURVE",
"590.3 236.13 OFFCURVE",
"594.63 226.13 OFFCURVE",
"603 216 CURVE SMOOTH",
"611.75 207.52 OFFCURVE",
"621.42 202.52 OFFCURVE",
"632 201 CURVE",
"642.87 201.29 OFFCURVE",
"653.2 205.96 OFFCURVE",
"663 215 CURVE",
"669.62 223.81 OFFCURVE",
"673.62 234.14 OFFCURVE",
"675 246 CURVE SMOOTH",
"674.79 257.74 OFFCURVE",
"671.12 269.08 OFFCURVE",
"664 280 CURVE"
);
}
);
vertWidth = 1000;
width = 769;
}
);
note = u1B17D;
unicode = 1B17D;
},
{
glyphname = u1B17E;
layers = (
{
hints = (
{
place = "{287, 55}";
type = Stem;
},
{
place = "{500, 59}";
type = Stem;
}
);
layerId = "ADFD292A-F9BB-471F-8DBA-A614A3A5AC29";
paths = (
{
closed = 1;
nodes = (
"271 -120 LINE",
"318.01 -17.66 OFFCURVE",
"341.68 80.34 OFFCURVE",
"342 174 CURVE SMOOTH",
"341.78 288.71 OFFCURVE",
"306.45 395.04 OFFCURVE",
"236 493 CURVE",
"225 467 LINE",
"308.85 524.42 OFFCURVE",
"380.18 595.42 OFFCURVE",
"439 680 CURVE SMOOTH",
"496.34 762.26 OFFCURVE",
"545.34 864.6 OFFCURVE",
"586 987 CURVE",
"537 1000 LINE",
"499.98 886.26 OFFCURVE",
"451.64 787.93 OFFCURVE",
"392 705 CURVE SMOOTH",
"332.49 622.94 OFFCURVE",
"258.82 550.94 OFFCURVE",
"171 489 CURVE",
"217.85 426.02 OFFCURVE",
"248.85 369.36 OFFCURVE",
"264 319 CURVE SMOOTH",
"279.13 267.25 OFFCURVE",
"286.8 217.59 OFFCURVE",
"287 170 CURVE SMOOTH",
"286.83 85.49 OFFCURVE",
"265.16 -3.85 OFFCURVE",
"222 -98 CURVE"
);
},
{
closed = 1;
nodes = (
"380 663 LINE",
"459.58 540.31 OFFCURVE",
"499.58 413.64 OFFCURVE",
"500 283 CURVE SMOOTH",
"499.97 253.53 OFFCURVE",
"498.64 229.19 OFFCURVE",
"496 210 CURVE",
"553 203 LINE",
"556.91 223.92 OFFCURVE",
"558.91 252.25 OFFCURVE",
"559 288 CURVE SMOOTH",
"558.89 356.04 OFFCURVE",
"546.89 426.7 OFFCURVE",
"523 500 CURVE SMOOTH",
"497.94 572.9 OFFCURVE",
"465.61 639.24 OFFCURVE",
"426 699 CURVE"
);
}
);
vertWidth = 1000;
width = 769;
}
);
note = u1B17E;
unicode = 1B17E;
},
{
glyphname = u1B17F;
layers = (
{
hints = (
{
horizontal = 1;
place = "{284, 99}";
type = Stem;
},
{
place = "{82, 89}";
type = Stem;
},
{
place = "{415, 61}";
type = Stem;
},
{
place = "{608, 90}";
type = Stem;
}
);
layerId = "ADFD292A-F9BB-471F-8DBA-A614A3A5AC29";
paths = (
{
closed = 1;
nodes = (
"162 -120 LINE",
"267.33 -12 OFFCURVE",
"343.17 102.83 OFFCURVE",
"389.5 224.5 CURVE SMOOTH",
"435.83 346.17 OFFCURVE",
"464.67 505.67 OFFCURVE",
"476 703 CURVE SMOOTH",
"481.33 788.33 OFFCURVE",
"483 887.33 OFFCURVE",
"481 1000 CURVE",
"423 1002 LINE",
"423 892.67 OFFCURVE",
"420.33 794.67 OFFCURVE",
"415 708 CURVE SMOOTH",
"404.33 518 OFFCURVE",
"377.67 365.83 OFFCURVE",
"335 251.5 CURVE SMOOTH",
"292.33 137.17 OFFCURVE",
"221 28.33 OFFCURVE",
"121 -75 CURVE"
);
},
{
closed = 1;
nodes = (
"141 284 OFFCURVE",
"151.83 288.83 OFFCURVE",
"159.5 298.5 CURVE SMOOTH",
"167.17 308.17 OFFCURVE",
"171 319.67 OFFCURVE",
"171 333 CURVE SMOOTH",
"171 347.67 OFFCURVE",
"167.17 359.67 OFFCURVE",
"159.5 369 CURVE SMOOTH",
"151.83 378.33 OFFCURVE",
"141 383 OFFCURVE",
"127 383 CURVE SMOOTH",
"113.67 383 OFFCURVE",
"102.83 378.33 OFFCURVE",
"94.5 369 CURVE SMOOTH",
"86.17 359.67 OFFCURVE",
"82 347.67 OFFCURVE",
"82 333 CURVE SMOOTH",
"82 319.67 OFFCURVE",
"86.17 308.17 OFFCURVE",
"94.5 298.5 CURVE SMOOTH",
"102.83 288.83 OFFCURVE",
"113.67 284 OFFCURVE",
"127 284 CURVE SMOOTH"
);
},
{
closed = 1;
nodes = (
"608 321.67 OFFCURVE",
"612.33 310.17 OFFCURVE",
"621 300.5 CURVE SMOOTH",
"629.67 290.83 OFFCURVE",
"640.33 286 OFFCURVE",
"653 286 CURVE SMOOTH",
"667 286 OFFCURVE",
"678 290.83 OFFCURVE",
"686 300.5 CURVE SMOOTH",
"694 310.17 OFFCURVE",
"698 321.67 OFFCURVE",
"698 335 CURVE SMOOTH",
"698 349.67 OFFCURVE",
"694.17 361.67 OFFCURVE",
"686.5 371 CURVE SMOOTH",
"678.83 380.33 OFFCURVE",
"667.67 385 OFFCURVE",
"653 385 CURVE SMOOTH",
"640.33 385 OFFCURVE",
"629.67 380.33 OFFCURVE",
"621 371 CURVE SMOOTH",
"612.33 361.67 OFFCURVE",
"608 349.67 OFFCURVE",
"608 335 CURVE SMOOTH"
);
}
);
vertWidth = 1000;
width = 769;
}
);
note = u1B17F;
unicode = 1B17F;
},
{
glyphname = u1B180;
layers = (
{
hints = (
{
place = "{577, 58}";
type = Stem;
}
);
layerId = "ADFD292A-F9BB-471F-8DBA-A614A3A5AC29";
paths = (
{
closed = 1;
nodes = (
"336 366 LINE",
"286.42 312.51 OFFCURVE",
"223.09 257.51 OFFCURVE",
"146 201 CURVE",
"180 148 LINE",
"240.31 191.18 OFFCURVE",
"300.64 242.84 OFFCURVE",
"361 303 CURVE"
);
},
{
closed = 1;
nodes = (
"262 -120 LINE",
"338.62 -66.6 OFFCURVE",
"405.62 -14.94 OFFCURVE",
"463 35 CURVE SMOOTH",
"512.28 77.98 OFFCURVE",
"568.61 134.31 OFFCURVE",
"632 204 CURVE",
"584 240 LINE",
"478.32 120.4 OFFCURVE",
"359.65 17.4 OFFCURVE",
"228 -69 CURVE"
);
},
{
closed = 1;
nodes = (
"239 708 LINE",
"184 688 LINE",
"421 38 LINE",
"464 90 LINE"
);
},
{
closed = 1;
nodes = (
"369 298 LINE",
"454.46 389.57 OFFCURVE",
"519.12 492.57 OFFCURVE",
"563 607 CURVE SMOOTH",
"605 720 OFFCURVE",
"629 851 OFFCURVE",
"635 1000 CURVE",
"577 1000 LINE",
"572 863 OFFCURVE",
"551 743 OFFCURVE",
"514 640 CURVE SMOOTH",
"476.58 536.28 OFFCURVE",
"419.91 443.28 OFFCURVE",
"344 361 CURVE"
);
}
);
vertWidth = 1000;
width = 769;
}
);
note = u1B180;
unicode = 1B180;
},
{
glyphname = u1B181;
layers = (
{
hints = (
{
place = "{432, 57}";
type = Stem;
},
{
place = "{565, 56}";
type = Stem;
}
);
layerId = "ADFD292A-F9BB-471F-8DBA-A614A3A5AC29";
paths = (
{
closed = 1;
nodes = (
"156 418 LINE",
"264.67 321.33 OFFCURVE",
"350.83 233.83 OFFCURVE",
"414.5 155.5 CURVE SMOOTH",
"478.17 77.17 OFFCURVE",
"532.67 -14.67 OFFCURVE",
"578 -120 CURVE",
"629 -96 LINE",
"541.67 100.67 OFFCURVE",
"408 275.67 OFFCURVE",
"228 429 CURVE",
"232 422 LINE",
"295.33 475.33 OFFCURVE",
"352.33 532.67 OFFCURVE",
"403 594 CURVE",
"377 647 LINE",
"315.67 573.67 OFFCURVE",
"242 499.33 OFFCURVE",
"156 424 CURVE"
);
},
{
closed = 1;
nodes = (
"430 619 LINE",
"514 733 OFFCURVE",
"577.67 856.33 OFFCURVE",
"621 989 CURVE",
"565 1000 LINE",
"525 876 OFFCURVE",
"470 767 OFFCURVE",
"400 673 CURVE"
);
},
{
closed = 1;
nodes = (
"437 189 LINE",
"471.67 248.33 OFFCURVE",
"489 319.33 OFFCURVE",
"489 402 CURVE SMOOTH",
"489 502.67 OFFCURVE",
"467.5 588 OFFCURVE",
"424.5 658 CURVE SMOOTH",
"381.5 728 OFFCURVE",
"314.67 788 OFFCURVE",
"224 838 CURVE",
"198 793 LINE",
"278 743 OFFCURVE",
"337 686.83 OFFCURVE",
"375 624.5 CURVE SMOOTH",
"413 562.17 OFFCURVE",
"432 488.67 OFFCURVE",
"432 404 CURVE SMOOTH",
"432 340.67 OFFCURVE",
"420 286.33 OFFCURVE",
"396 241 CURVE"
);
},
{
closed = 1;
nodes = (
"383 207 LINE",
"329.67 131.67 OFFCURVE",
"247 68 OFFCURVE",
"135 16 CURVE",
"164 -32 LINE",
"274.67 18.67 OFFCURVE",
"361.67 83.67 OFFCURVE",
"425 163 CURVE"
);
}
);
vertWidth = 1000;
width = 769;
}
);
note = u1B181;
unicode = 1B181;
},
{
glyphname = u1B182;
layers = (
{
hints = (
{
place = "{499, 53}";
type = Stem;
}
);
layerId = "ADFD292A-F9BB-471F-8DBA-A614A3A5AC29";
paths = (
{
closed = 1;
nodes = (
"339 406 LINE",
"423.82 500.25 OFFCURVE",
"489.82 591.92 OFFCURVE",
"537 681 CURVE SMOOTH",
"584 769 OFFCURVE",
"623 873 OFFCURVE",
"654 993 CURVE",
"599 1000 LINE",
"569.86 892.75 OFFCURVE",
"532.86 796.08 OFFCURVE",
"488 710 CURVE SMOOTH",
"444.42 625.98 OFFCURVE",
"386.76 542.31 OFFCURVE",
"315 459 CURVE"
);
},
{
closed = 1;
nodes = (
"183 713 LINE",
"486 -120 LINE",
"538 -102 LINE",
"235 732 LINE"
);
},
{
closed = 1;
nodes = (
"435 134 LINE",
"512.52 222.85 OFFCURVE",
"551.52 331.18 OFFCURVE",
"552 459 CURVE SMOOTH",
"551.89 534.36 OFFCURVE",
"537.22 619.69 OFFCURVE",
"508 715 CURVE",
"474 653 LINE",
"490.49 588.63 OFFCURVE",
"498.83 523.63 OFFCURVE",
"499 458 CURVE SMOOTH",
"498.78 359.35 OFFCURVE",
"470.45 272.02 OFFCURVE",
"414 196 CURVE"
);
},
{
closed = 1;
nodes = (
"396 181 LINE",
"316.56 106.77 OFFCURVE",
"221.89 44.77 OFFCURVE",
"112 -5 CURVE",
"130 -55 LINE",
"231.33 -8.76 OFFCURVE",
"326.66 50.9 OFFCURVE",
"416 124 CURVE"
);
}
);
vertWidth = 1000;
width = 769;
}
);
note = u1B182;
unicode = 1B182;
},
{
glyphname = u1B183;
layers = (
{
hints = (
{
place = "{523, 55}";
type = Stem;
}
);
layerId = "ADFD292A-F9BB-471F-8DBA-A614A3A5AC29";
paths = (
{
closed = 1;
nodes = (
"130 217 LINE",
"270.5 313.21 OFFCURVE",
"376.83 423.87 OFFCURVE",
"449 549 CURVE SMOOTH",
"519 672 OFFCURVE",
"562 822 OFFCURVE",
"578 999 CURVE",
"523 1000 LINE",
"510.81 841.43 OFFCURVE",
"470.48 702.76 OFFCURVE",
"402 584 CURVE SMOOTH",
"333.91 467.26 OFFCURVE",
"232.24 360.6 OFFCURVE",
"97 264 CURVE"
);
},
{
closed = 1;
nodes = (
"209 -120 LINE",
"355.81 -18.67 OFFCURVE",
"500.14 113.33 OFFCURVE",
"642 276 CURVE",
"596 313 LINE",
"470.44 164.7 OFFCURVE",
"330.11 36.36 OFFCURVE",
"175 -72 CURVE"
);
},
{
closed = 1;
nodes = (
"449 105 LINE",
"327 438 LINE",
"284 397 LINE",
"398 80 LINE"
);
}
);
vertWidth = 1000;
width = 769;
}
);
note = u1B183;
unicode = 1B183;
},
{
glyphname = u1B184;
layers = (
{
hints = (
{
horizontal = 1;
place = "{104, 95}";
type = Stem;
},
{
place = "{252, 87}";
type = Stem;
},
{
place = "{499, 56}";
type = Stem;
},
{
place = "{513, 54}";
type = Stem;
}
);
layerId = "ADFD292A-F9BB-471F-8DBA-A614A3A5AC29";
paths = (
{
closed = 1;
nodes = (
"194 275 LINE",
"284 368.33 OFFCURVE",
"359.83 477.33 OFFCURVE",
"421.5 602 CURVE SMOOTH",
"483.17 726.67 OFFCURVE",
"527.67 856.33 OFFCURVE",
"555 991 CURVE",
"499 1000 LINE",
"473.67 872 OFFCURVE",
"432 749 OFFCURVE",
"374 631 CURVE SMOOTH",
"316 513 OFFCURVE",
"242.33 408 OFFCURVE",
"153 316 CURVE"
);
},
{
closed = 1;
nodes = (
"308.33 104 OFFCURVE",
"319 108.67 OFFCURVE",
"327 118 CURVE SMOOTH",
"335 127.33 OFFCURVE",
"339 138.33 OFFCURVE",
"339 151 CURVE SMOOTH",
"339 164.33 OFFCURVE",
"335 175.67 OFFCURVE",
"327 185 CURVE SMOOTH",
"319 194.33 OFFCURVE",
"308.33 199 OFFCURVE",
"295 199 CURVE SMOOTH",
"283.67 199 OFFCURVE",
"273.67 194.33 OFFCURVE",
"265 185 CURVE SMOOTH",
"256.33 175.67 OFFCURVE",
"252 164.33 OFFCURVE",
"252 151 CURVE SMOOTH",
"252 138.33 OFFCURVE",
"256.17 127.33 OFFCURVE",
"264.5 118 CURVE SMOOTH",
"272.83 108.67 OFFCURVE",
"283 104 OFFCURVE",
"295 104 CURVE SMOOTH"
);
},
{
closed = 1;
nodes = (
"362 -120 LINE",
"428 -54.67 OFFCURVE",
"478.67 20.5 OFFCURVE",
"514 105.5 CURVE SMOOTH",
"549.33 190.5 OFFCURVE",
"567 278 OFFCURVE",
"567 368 CURVE SMOOTH",
"567 511.33 OFFCURVE",
"532 638 OFFCURVE",
"462 748 CURVE",
"431 696 LINE",
"485.67 604.67 OFFCURVE",
"513 494.67 OFFCURVE",
"513 366 CURVE SMOOTH",
"513 283.33 OFFCURVE",
"496 202.5 OFFCURVE",
"462 123.5 CURVE SMOOTH",
"428 44.5 OFFCURVE",
"381.67 -24.33 OFFCURVE",
"323 -83 CURVE"
);
}
);
vertWidth = 1000;
width = 769;
}
);
note = u1B184;
unicode = 1B184;
},
{
glyphname = u1B185;
layers = (
{
hints = (
{
place = "{371, 55}";
type = Stem;
}
);
layerId = "ADFD292A-F9BB-471F-8DBA-A614A3A5AC29";
paths = (
{
closed = 1;
nodes = (
"141 286 LINE",
"193.15 328.25 OFFCURVE",
"240.15 377.25 OFFCURVE",
"282 433 CURVE SMOOTH",
"320.55 485.64 OFFCURVE",
"349.22 539.3 OFFCURVE",
"368 594 CURVE SMOOTH",
"387.78 650.73 OFFCURVE",
"402.45 712.06 OFFCURVE",
"412 778 CURVE SMOOTH",
"420.52 837.04 OFFCURVE",
"425.85 910.71 OFFCURVE",
"428 999 CURVE",
"373 1000 LINE",
"369.89 890.44 OFFCURVE",
"361.22 799.78 OFFCURVE",
"347 728 CURVE SMOOTH",
"331.81 652.6 OFFCURVE",
"305.14 580.93 OFFCURVE",
"267 513 CURVE SMOOTH",
"233.6 453.61 OFFCURVE",
"179.93 392.28 OFFCURVE",
"106 329 CURVE"
);
},
{
closed = 1;
nodes = (
"395 -120 LINE",
"415.53 -28.73 OFFCURVE",
"425.86 71.27 OFFCURVE",
"426 180 CURVE SMOOTH",
"425.96 246.47 OFFCURVE",
"422.29 310.8 OFFCURVE",
"415 373 CURVE",
"360 364 LINE",
"367.26 306.64 OFFCURVE",
"370.92 245.31 OFFCURVE",
"371 180 CURVE SMOOTH",
"370.93 77.63 OFFCURVE",
"361.27 -19.04 OFFCURVE",
"342 -110 CURVE"
);
},
{
closed = 1;
nodes = (
"337 636 LINE",
"430.73 544.11 OFFCURVE",
"521.06 433.11 OFFCURVE",
"608 303 CURVE",
"654 335 LINE",
"576.57 449.52 OFFCURVE",
"481.57 564.19 OFFCURVE",
"369 679 CURVE"
);
}
);
vertWidth = 1000;
width = 769;
}
);
note = u1B185;
unicode = 1B185;
},
{
glyphname = u1B186;
layers = (
{
hints = (
{
place = "{565, 57}";
type = Stem;
}
);
layerId = "ADFD292A-F9BB-471F-8DBA-A614A3A5AC29";
paths = (
{
closed = 1;
nodes = (
"282 293 LINE",
"385.33 384.33 OFFCURVE",
"464.5 488.17 OFFCURVE",
"519.5 604.5 CURVE SMOOTH",
"574.5 720.83 OFFCURVE",
"608.67 852.33 OFFCURVE",
"622 999 CURVE",
"565 1000 LINE",
"541 742 OFFCURVE",
"445.67 533 OFFCURVE",
"279 373 CURVE"
);
},
{
closed = 1;
nodes = (
"173 -120 LINE",
"268.33 58.67 OFFCURVE",
"316 232.33 OFFCURVE",
"316 401 CURVE SMOOTH",
"316 526.33 OFFCURVE",
"283.67 666.67 OFFCURVE",
"219 822 CURVE",
"165 801 LINE",
"226.33 652.33 OFFCURVE",
"257 519.33 OFFCURVE",
"257 402 CURVE SMOOTH",
"257 244.67 OFFCURVE",
"212.67 80.67 OFFCURVE",
"124 -90 CURVE"
);
},
{
closed = 1;
nodes = (
"428 489 LINE",
"583 11 LINE",
"638 27 LINE",
"470 545 LINE"
);
}
);
vertWidth = 1000;
width = 769;
}
);
note = u1B186;
unicode = 1B186;
},
{
glyphname = u1B187;
layers = (
{
hints = (
{
place = "{379, 54}";
type = Stem;
}
);
layerId = "ADFD292A-F9BB-471F-8DBA-A614A3A5AC29";
paths = (
{
closed = 1;
nodes = (
"211 826 LINE",
"322.63 593.49 OFFCURVE",
"378.63 391.15 OFFCURVE",
"379 219 CURVE SMOOTH",
"378.86 110.49 OFFCURVE",
"357.2 4.15 OFFCURVE",
"314 -100 CURVE",
"369 -120 LINE",
"411.42 -4.25 OFFCURVE",
"432.75 111.42 OFFCURVE",
"433 227 CURVE SMOOTH",
"432.9 321.36 OFFCURVE",
"418.9 418.69 OFFCURVE",
"391 519 CURVE SMOOTH",
"363.24 617.91 OFFCURVE",
"321.24 729.24 OFFCURVE",
"265 853 CURVE"
);
},
{
closed = 1;
nodes = (
"382 489 LINE",
"535.74 617.3 OFFCURVE",
"631.41 784.64 OFFCURVE",
"669 991 CURVE",
"615 1000 LINE",
"582.91 817.9 OFFCURVE",
"501.24 667.9 OFFCURVE",
"370 550 CURVE"
);
},
{
closed = 1;
nodes = (
"346 537 LINE",
"287 494 OFFCURVE",
"219 454 OFFCURVE",
"142 417 CURVE",
"163 367 LINE",
"238.14 404.12 OFFCURVE",
"302.48 440.79 OFFCURVE",
"356 477 CURVE"
);
},
{
closed = 1;
nodes = (
"418 253 LINE",
"505.77 311.3 OFFCURVE",
"581.43 374.63 OFFCURVE",
"645 443 CURVE",
"605 479 LINE",
"549.01 418.32 OFFCURVE",
"488.01 364.65 OFFCURVE",
"422 318 CURVE"
);
},
{
closed = 1;
nodes = (
"396 303 LINE",
"391.03 299.15 OFFCURVE",
"384.45 294.5 OFFCURVE",
"376.26 289.03 CURVE SMOOTH",
"308.52 244.32 OFFCURVE",
"225.43 201.31 OFFCURVE",
"127 160 CURVE",
"146 109 LINE",
"165.45 117.08 OFFCURVE",
"185.97 126.04 OFFCURVE",
"207.55 135.88 CURVE SMOOTH",
"298.56 177.52 OFFCURVE",
"360.38 209.89 OFFCURVE",
"393 233 CURVE"
);
}
);
vertWidth = 1000;
width = 769;
}
);
note = u1B187;
unicode = 1B187;
},
{
glyphname = u1B188;
layers = (
{
hints = (
{
horizontal = 1;
place = "{-4, 97}";
type = Stem;
},
{
place = "{83, 89}";
type = Stem;
},
{
place = "{550, 58}";
type = Stem;
}
);
layerId = "ADFD292A-F9BB-471F-8DBA-A614A3A5AC29";
paths = (
{
closed = 1;
nodes = (
"545 996 LINE",
"548.31 928.45 OFFCURVE",
"549.97 855.45 OFFCURVE",
"550 777 CURVE SMOOTH",
"549.9 443.34 OFFCURVE",
"510.57 171.68 OFFCURVE",
"432 -38 CURVE",
"238 496 LINE",
"183 480 LINE",
"400 -113 LINE",
"460 -120 LINE",
"505.05 -18.16 OFFCURVE",
"539.72 98.84 OFFCURVE",
"564 231 CURVE SMOOTH",
"593.22 388.44 OFFCURVE",
"607.88 570.44 OFFCURVE",
"608 777 CURVE SMOOTH",
"607.99 847.2 OFFCURVE",
"606.66 921.53 OFFCURVE",
"604 1000 CURVE"
);
},
{
closed = 1;
nodes = (
"114.95 92.75 OFFCURVE",
"104.28 88.41 OFFCURVE",
"96 80 CURVE SMOOTH",
"87.83 71.41 OFFCURVE",
"83.49 59.41 OFFCURVE",
"83 44 CURVE SMOOTH",
"83.25 30.51 OFFCURVE",
"87.58 19.18 OFFCURVE",
"96 10 CURVE SMOOTH",
"104.21 1.22 OFFCURVE",
"114.88 -3.45 OFFCURVE",
"128 -4 CURVE SMOOTH",
"141.12 -3.71 OFFCURVE",
"152.12 0.95 OFFCURVE",
"161 10 CURVE SMOOTH",
"167.93 19.31 OFFCURVE",
"171.59 30.65 OFFCURVE",
"172 44 CURVE SMOOTH",
"171.79 58.02 OFFCURVE",
"168.12 70.02 OFFCURVE",
"161 80 CURVE SMOOTH",
"153.35 88.13 OFFCURVE",
"142.35 92.46 OFFCURVE",
"128 93 CURVE SMOOTH"
);
}
);
vertWidth = 1000;
width = 769;
}
);
note = u1B188;
unicode = 1B188;
},
{
glyphname = u1B189;
layers = (
{
hints = (
{
place = "{369, 57}";
type = Stem;
}
);
layerId = "ADFD292A-F9BB-471F-8DBA-A614A3A5AC29";
paths = (
{
closed = 1;
nodes = (
"149 381 LINE",
"281.46 459.27 OFFCURVE",
"386.46 548.6 OFFCURVE",
"464 649 CURVE SMOOTH",
"539.9 748.15 OFFCURVE",
"591.57 862.48 OFFCURVE",
"619 992 CURVE",
"565 1000 LINE",
"539.75 878.57 OFFCURVE",
"491.75 772.23 OFFCURVE",
"421 681 CURVE SMOOTH",
"350.61 590.1 OFFCURVE",
"251.28 506.1 OFFCURVE",
"123 429 CURVE"
);
},
{
closed = 1;
nodes = (
"159 131 LINE",
"230.06 165.22 OFFCURVE",
"302.73 207.55 OFFCURVE",
"377 258 CURVE",
"369 326 LINE",
"296 273 OFFCURVE",
"218 225 OFFCURVE",
"135 182 CURVE"
);
},
{
closed = 1;
nodes = (
"362 -120 LINE",
"404.4 -14.17 OFFCURVE",
"425.73 91.49 OFFCURVE",
"426 197 CURVE SMOOTH",
"425.88 305.13 OFFCURVE",
"403.88 428.79 OFFCURVE",
"360 568 CURVE",
"309 536 LINE",
"328.39 474.32 OFFCURVE",
"342.39 421.32 OFFCURVE",
"351 377 CURVE SMOOTH",
"363 315 OFFCURVE",
"369 254 OFFCURVE",
"369 194 CURVE SMOOTH",
"368.87 87.81 OFFCURVE",
"347.53 -10.52 OFFCURVE",
"305 -101 CURVE"
);
},
{
closed = 1;
nodes = (
"415 285 LINE",
"508.09 357.94 OFFCURVE",
"578.76 423.28 OFFCURVE",
"627 481 CURVE",
"584 514 LINE",
"522.3 446.54 OFFCURVE",
"463.3 392.2 OFFCURVE",
"407 351 CURVE"
);
}
);
vertWidth = 1000;
width = 769;
}
);
note = u1B189;
unicode = 1B189;
},
{
glyphname = u1B18A;
layers = (
{
layerId = "ADFD292A-F9BB-471F-8DBA-A614A3A5AC29";
paths = (
{
closed = 1;
nodes = (
"183 401 LINE",
"300.86 459.61 OFFCURVE",
"404.52 538.94 OFFCURVE",
"494 639 CURVE SMOOTH",
"582.23 739.51 OFFCURVE",
"644.9 852.84 OFFCURVE",
"682 979 CURVE",
"625 1000 LINE",
"592.66 882.41 OFFCURVE",
"534.32 775.74 OFFCURVE",
"450 680 CURVE SMOOTH",
"365.21 584.48 OFFCURVE",
"266.55 509.15 OFFCURVE",
"154 454 CURVE"
);
},
{
closed = 1;
nodes = (
"100 -120 LINE",
"277.36 -42.31 OFFCURVE",
"424.36 42.35 OFFCURVE",
"541 134 CURVE",
"510 181 LINE",
"380.32 85.09 OFFCURVE",
"236.32 2.76 OFFCURVE",
"78 -66 CURVE"
);
},
{
closed = 1;
nodes = (
"168 160 LINE",
"328.45 236.88 OFFCURVE",
"460.79 327.21 OFFCURVE",
"565 431 CURVE",
"522 475 LINE",
"423.76 375 OFFCURVE",
"298.1 288.33 OFFCURVE",
"145 215 CURVE"
);
}
);
vertWidth = 1000;
width = 736;
}
);
note = u1B18A;
unicode = 1B18A;
},
{
glyphname = u1B18B;
layers = (
{
hints = (
{
place = "{317, 57}";
type = Stem;
},
{
place = "{536, 54}";
type = Stem;
},
{
place = "{325, 55}";
type = Stem;
}
);
layerId = "ADFD292A-F9BB-471F-8DBA-A614A3A5AC29";
paths = (
{
closed = 1;
nodes = (
"336 -120 LINE",
"361.11 -43.37 OFFCURVE",
"373.77 29.63 OFFCURVE",
"374 99 CURVE SMOOTH",
"374 239 OFFCURVE",
"326 365 OFFCURVE",
"230 477 CURVE",
"230 458 LINE",
"280.42 526.81 OFFCURVE",
"316.76 603.15 OFFCURVE",
"339 687 CURVE SMOOTH",
"362.22 776.18 OFFCURVE",
"375.89 879.51 OFFCURVE",
"380 997 CURVE",
"325 1001 LINE",
"317.85 763.01 OFFCURVE",
"262.85 583.68 OFFCURVE",
"160 463 CURVE",
"263.1 359.51 OFFCURVE",
"315.44 236.51 OFFCURVE",
"317 94 CURVE SMOOTH",
"316.89 31.94 OFFCURVE",
"305.89 -33.72 OFFCURVE",
"284 -103 CURVE"
);
},
{
closed = 1;
nodes = (
"411 462 LINE",
"492.77 370.03 OFFCURVE",
"534.43 271.36 OFFCURVE",
"536 166 CURVE SMOOTH",
"535.97 117.5 OFFCURVE",
"533.3 64.83 OFFCURVE",
"528 8 CURVE",
"581 3 LINE",
"586.92 56.63 OFFCURVE",
"589.92 109.3 OFFCURVE",
"590 161 CURVE SMOOTH",
"589.76 264.21 OFFCURVE",
"552.09 367.21 OFFCURVE",
"477 470 CURVE",
"478 466 LINE",
"542.44 561.04 OFFCURVE",
"579.77 696.04 OFFCURVE",
"590 871 CURVE",
"537 871 LINE",
"532 782 OFFCURVE",
"520 706 OFFCURVE",
"501 643 CURVE SMOOTH",
"481.8 581.76 OFFCURVE",
"451.8 522.1 OFFCURVE",
"411 464 CURVE"
);
}
);
vertWidth = 1000;
width = 769;
}
);
note = u1B18B;
unicode = 1B18B;
},
{
glyphname = u1B18C;
layers = (
{
hints = (
{
horizontal = 1;
place = "{324, 97}";
type = Stem;
},
{
horizontal = 1;
place = "{477, 97}";
type = Stem;
},
{
place = "{102, 88}";
type = Stem;
},
{
place = "{303, 57}";
type = Stem;
},
{
place = "{458, 54}";
type = Stem;
},
{
place = "{604, 88}";
type = Stem;
}
);
layerId = "ADFD292A-F9BB-471F-8DBA-A614A3A5AC29";
paths = (
{
closed = 1;
nodes = (
"207 -120 LINE",
"309 44.67 OFFCURVE",
"360 209.67 OFFCURVE",
"360 375 CURVE SMOOTH",
"360 519.67 OFFCURVE",
"317.67 669.67 OFFCURVE",
"233 825 CURVE",
"184 795 LINE",
"263.33 647.67 OFFCURVE",
"303 507.67 OFFCURVE",
"303 375 CURVE SMOOTH",
"303 223 OFFCURVE",
"255.67 69.33 OFFCURVE",
"161 -86 CURVE"
);
},
{
closed = 1;
nodes = (
"160 324 OFFCURVE",
"170.83 328.67 OFFCURVE",
"178.5 338 CURVE SMOOTH",
"186.17 347.33 OFFCURVE",
"190 358.67 OFFCURVE",
"190 372 CURVE SMOOTH",
"190 386.67 OFFCURVE",
"186.17 398.5 OFFCURVE",
"178.5 407.5 CURVE SMOOTH",
"170.83 416.5 OFFCURVE",
"160 421 OFFCURVE",
"146 421 CURVE SMOOTH",
"133.33 421 OFFCURVE",
"122.83 416.5 OFFCURVE",
"114.5 407.5 CURVE SMOOTH",
"106.17 398.5 OFFCURVE",
"102 386.67 OFFCURVE",
"102 372 CURVE SMOOTH",
"102 358.67 OFFCURVE",
"106.17 347.33 OFFCURVE",
"114.5 338 CURVE SMOOTH",
"122.83 328.67 OFFCURVE",
"133.33 324 OFFCURVE",
"146 324 CURVE SMOOTH"
);
},
{
closed = 1;
nodes = (
"649 110 LINE",
"557.67 262.67 OFFCURVE",
"512 416.33 OFFCURVE",
"512 571 CURVE SMOOTH",
"512 703 OFFCURVE",
"545.67 836.67 OFFCURVE",
"613 972 CURVE",
"563 1000 LINE",
"493 853.33 OFFCURVE",
"458 710.33 OFFCURVE",
"458 571 CURVE SMOOTH",
"458 409.67 OFFCURVE",
"505.33 245.67 OFFCURVE",
"600 79 CURVE"
);
},
{
closed = 1;
nodes = (
"604 511.67 OFFCURVE",
"608.17 500.33 OFFCURVE",
"616.5 491 CURVE SMOOTH",
"624.83 481.67 OFFCURVE",
"635.33 477 OFFCURVE",
"648 477 CURVE SMOOTH",
"662 477 OFFCURVE",
"672.83 481.67 OFFCURVE",
"680.5 491 CURVE SMOOTH",
"688.17 500.33 OFFCURVE",
"692 511.67 OFFCURVE",
"692 525 CURVE SMOOTH",
"692 557.67 OFFCURVE",
"677.33 574 OFFCURVE",
"648 574 CURVE SMOOTH",
"635.33 574 OFFCURVE",
"624.83 569.5 OFFCURVE",
"616.5 560.5 CURVE SMOOTH",
"608.17 551.5 OFFCURVE",
"604 539.67 OFFCURVE",
"604 525 CURVE SMOOTH"
);
}
);
vertWidth = 1000;
width = 769;
}
);
note = u1B18C;
unicode = 1B18C;
},
{
glyphname = u1B18D;
layers = (
{
hints = (
{
place = "{290, 54}";
type = Stem;
}
);
layerId = "ADFD292A-F9BB-471F-8DBA-A614A3A5AC29";
paths = (
{
closed = 1;
nodes = (
"273 -120 LINE",
"320.01 -20.66 OFFCURVE",
"343.68 76 OFFCURVE",
"344 170 CURVE SMOOTH",
"344 229 OFFCURVE",
"335 287 OFFCURVE",
"317 344 CURVE SMOOTH",
"297.78 400.3 OFFCURVE",
"272.45 449.3 OFFCURVE",
"241 491 CURVE",
"229 460 LINE",
"311.73 519 OFFCURVE",
"382.06 590.67 OFFCURVE",
"440 675 CURVE SMOOTH",
"498.23 762.03 OFFCURVE",
"546.56 865.37 OFFCURVE",
"585 985 CURVE",
"534 999 LINE",
"463 778 OFFCURVE",
"343 608 OFFCURVE",
"174 489 CURVE",
"220.85 426.02 OFFCURVE",
"251.85 369.36 OFFCURVE",
"267 319 CURVE SMOOTH",
"282.13 267.25 OFFCURVE",
"289.8 217.59 OFFCURVE",
"290 170 CURVE SMOOTH",
"289.83 91.21 OFFCURVE",
"267.5 4.55 OFFCURVE",
"223 -90 CURVE"
);
},
{
closed = 1;
nodes = (
"582 171 LINE",
"602.15 268.62 OFFCURVE",
"601.48 363.62 OFFCURVE",
"580 456 CURVE SMOOTH",
"558.81 543.17 OFFCURVE",
"517.81 629.83 OFFCURVE",
"457 716 CURVE",
"413 684 LINE",
"467.79 606.08 OFFCURVE",
"506.79 521.74 OFFCURVE",
"530 431 CURVE SMOOTH",
"552.64 340.77 OFFCURVE",
"552.64 256.1 OFFCURVE",
"530 177 CURVE",
"560 199 LINE",
"518.28 227.05 OFFCURVE",
"486.94 261.05 OFFCURVE",
"466 301 CURVE SMOOTH",
"447 337 OFFCURVE",
"432 387 OFFCURVE",
"421 451 CURVE",
"367 434 LINE",
"380.92 364.92 OFFCURVE",
"400.58 308.26 OFFCURVE",
"426 264 CURVE SMOOTH",
"448.72 224.55 OFFCURVE",
"484.38 188.55 OFFCURVE",
"533 156 CURVE"
);
}
);
vertWidth = 1000;
width = 769;
}
);
note = u1B18D;
unicode = 1B18D;
},
{
glyphname = u1B18E;
layers = (
{
hints = (
{
horizontal = 1;
place = "{-120, 95}";
type = Stem;
},
{
place = "{373, 87}";
type = Stem;
},
{
place = "{548, 56}";
type = Stem;
}
);
layerId = "ADFD292A-F9BB-471F-8DBA-A614A3A5AC29";
paths = (
{
closed = 1;
nodes = (
"429.51 -119.7 OFFCURVE",
"440.17 -115.03 OFFCURVE",
"449 -106 CURVE SMOOTH",
"455.91 -96.75 OFFCURVE",
"459.58 -85.75 OFFCURVE",
"460 -73 CURVE SMOOTH",
"459.78 -60.29 OFFCURVE",
"456.12 -48.96 OFFCURVE",
"449 -39 CURVE SMOOTH",
"440.79 -30.22 OFFCURVE",
"430.12 -25.55 OFFCURVE",
"417 -25 CURVE SMOOTH",
"405.19 -25.3 OFFCURVE",
"394.86 -29.96 OFFCURVE",
"386 -39 CURVE SMOOTH",
"377.85 -47.53 OFFCURVE",
"373.52 -58.86 OFFCURVE",
"373 -73 CURVE SMOOTH",
"373.24 -85.8 OFFCURVE",
"377.58 -96.8 OFFCURVE",
"386 -106 CURVE SMOOTH",
"394.15 -114.76 OFFCURVE",
"404.48 -119.43 OFFCURVE",
"417 -120 CURVE SMOOTH"
);
},
{
closed = 1;
nodes = (
"252 823 LINE",
"530 62 LINE",
"584 81 LINE",
"306 842 LINE"
);
},
{
closed = 1;
nodes = (
"187 -47 LINE",
"290.06 76.23 OFFCURVE",
"379.06 215.56 OFFCURVE",
"454 371 CURVE",
"410 414 LINE",
"340.23 260.96 OFFCURVE",
"251.9 119.63 OFFCURVE",
"145 -10 CURVE"
);
},
{
closed = 1;
nodes = (
"151 381 LINE",
"227.35 425.54 OFFCURVE",
"303.02 478.54 OFFCURVE",
"378 540 CURVE",
"352 596 LINE",
"292.53 540.63 OFFCURVE",
"217.2 485.29 OFFCURVE",
"126 430 CURVE"
);
},
{
closed = 1;
nodes = (
"548 1000 LINE",
"526 852.36 OFFCURVE",
"467.33 721.02 OFFCURVE",
"372 606 CURVE",
"396 549 LINE",
"509.47 678.84 OFFCURVE",
"578.8 826.51 OFFCURVE",
"604 992 CURVE"
);
}
);
vertWidth = 1000;
width = 769;
}
);
note = u1B18E;
unicode = 1B18E;
},
{
glyphname = u1B18F;
layers = (
{
hints = (
{
horizontal = 1;
place = "{292, 92}";
type = Stem;
},
{
place = "{74, 84}";
type = Stem;
},
{
place = "{516, 52}";
type = Stem;
},
{
place = "{612, 84}";
type = Stem;
},
{
horizontal = 1;
place = "{380, 92}";
type = Stem;
}
);
layerId = "ADFD292A-F9BB-471F-8DBA-A614A3A5AC29";
paths = (
{
closed = 1;
nodes = (
"130 292 OFFCURVE",
"140.5 296.5 OFFCURVE",
"147.5 305.5 CURVE SMOOTH",
"154.5 314.5 OFFCURVE",
"158 325.33 OFFCURVE",
"158 338 CURVE SMOOTH",
"158 351.33 OFFCURVE",
"154.5 362.33 OFFCURVE",
"147.5 371 CURVE SMOOTH",
"140.5 379.67 OFFCURVE",
"130 384 OFFCURVE",
"116 384 CURVE SMOOTH",
"104 384 OFFCURVE",
"94 379.67 OFFCURVE",
"86 371 CURVE SMOOTH",
"78 362.33 OFFCURVE",
"74 351.33 OFFCURVE",
"74 338 CURVE SMOOTH",
"74 325.33 OFFCURVE",
"78 314.5 OFFCURVE",
"86 305.5 CURVE SMOOTH",
"94 296.5 OFFCURVE",
"104 292 OFFCURVE",
"116 292 CURVE SMOOTH"
);
},
{
closed = 1;
nodes = (
"612 413.33 OFFCURVE",
"616 402.5 OFFCURVE",
"624 393.5 CURVE SMOOTH",
"632 384.5 OFFCURVE",
"642 380 OFFCURVE",
"654 380 CURVE SMOOTH",
"668 380 OFFCURVE",
"678.5 384.5 OFFCURVE",
"685.5 393.5 CURVE SMOOTH",
"692.5 402.5 OFFCURVE",
"696 413.33 OFFCURVE",
"696 426 CURVE SMOOTH",
"696 439.33 OFFCURVE",
"692.5 450.33 OFFCURVE",
"685.5 459 CURVE SMOOTH",
"678.5 467.67 OFFCURVE",
"668 472 OFFCURVE",
"654 472 CURVE SMOOTH",
"642 472 OFFCURVE",
"632 467.67 OFFCURVE",
"624 459 CURVE SMOOTH",
"616 450.33 OFFCURVE",
"612 439.33 OFFCURVE",
"612 426 CURVE SMOOTH"
);
},
{
closed = 1;
nodes = (
"131 692 LINE",
"302.33 499.33 OFFCURVE",
"443 272 OFFCURVE",
"553 10 CURVE",
"600 39 LINE",
"484.67 310.33 OFFCURVE",
"340.67 541.67 OFFCURVE",
"168 733 CURVE"
);
},
{
closed = 1;
nodes = (
"426 349 LINE",
"467.33 437.67 OFFCURVE",
"498.83 533.17 OFFCURVE",
"520.5 635.5 CURVE SMOOTH",
"542.17 737.83 OFFCURVE",
"558 858 OFFCURVE",
"568 996 CURVE",
"516 1000 LINE",
"504 866.67 OFFCURVE",
"488.33 751.83 OFFCURVE",
"469 655.5 CURVE SMOOTH",
"449.67 559.17 OFFCURVE",
"423.33 476.33 OFFCURVE",
"390 407 CURVE"
);
},
{
closed = 1;
nodes = (
"381 391 LINE",
"289.67 219.67 OFFCURVE",
"173.67 62.67 OFFCURVE",
"33 -80 CURVE",
"74 -120 LINE",
"206.67 14.67 OFFCURVE",
"321 164.67 OFFCURVE",
"417 330 CURVE"
);
}
);
vertWidth = 1000;
width = 769;
}
);
note = u1B18F;
unicode = 1B18F;
},
{
glyphname = u1B190;
layers = (
{
hints = (
{
horizontal = 1;
place = "{-120, 58}";
type = Stem;
},
{
horizontal = 1;
place = "{134, 58}";
type = Stem;
},
{
place = "{476, 56}";
type = Stem;
},
{
place = "{319, 57}";
type = Stem;
},
{
place = "{492, 56}";
type = Stem;
},
{
place = "{272, 61}";
type = Stem;
}
);
layerId = "ADFD292A-F9BB-471F-8DBA-A614A3A5AC29";
paths = (
{
closed = 1;
nodes = (
"676 238 LINE",
"580.49 372.64 OFFCURVE",
"532.49 504.31 OFFCURVE",
"532 633 CURVE SMOOTH",
"532.18 736.43 OFFCURVE",
"563.18 850.77 OFFCURVE",
"625 976 CURVE",
"570 1000 LINE",
"507.68 874.04 OFFCURVE",
"476.34 751.7 OFFCURVE",
"476 633 CURVE SMOOTH",
"476.23 492.98 OFFCURVE",
"526.23 349.31 OFFCURVE",
"626 202 CURVE"
);
},
{
closed = 1;
nodes = (
"464.2 -119.65 OFFCURVE",
"490.53 -105.65 OFFCURVE",
"514 -78 CURVE SMOOTH",
"536.28 -50.45 OFFCURVE",
"547.61 -11.45 OFFCURVE",
"548 39 CURVE SMOOTH",
"547.81 86.73 OFFCURVE",
"536.81 124.39 OFFCURVE",
"515 152 CURVE SMOOTH",
"492.49 178 OFFCURVE",
"465.82 191.33 OFFCURVE",
"435 192 CURVE SMOOTH",
"404.2 191.68 OFFCURVE",
"377.2 178.35 OFFCURVE",
"354 152 CURVE SMOOTH",
"331.07 124.66 OFFCURVE",
"319.41 86.99 OFFCURVE",
"319 39 CURVE SMOOTH",
"319.2 -9.99 OFFCURVE",
"330.87 -48.99 OFFCURVE",
"354 -78 CURVE SMOOTH",
"377 -106 OFFCURVE",
"404 -120 OFFCURVE",
"435 -120 CURVE SMOOTH"
);
},
{
closed = 1;
nodes = (
"418.58 -61.56 OFFCURVE",
"403.91 -52.23 OFFCURVE",
"391 -34 CURVE SMOOTH",
"381.34 -19.05 OFFCURVE",
"376.34 4.28 OFFCURVE",
"376 36 CURVE SMOOTH",
"376.1 66.37 OFFCURVE",
"381.1 89.37 OFFCURVE",
"391 105 CURVE SMOOTH",
"403.06 123.48 OFFCURVE",
"417.73 133.15 OFFCURVE",
"435 134 CURVE SMOOTH",
"451.46 134 OFFCURVE",
"465.79 124.33 OFFCURVE",
"478 105 CURVE SMOOTH",
"487.02 88.97 OFFCURVE",
"491.68 65.97 OFFCURVE",
"492 36 CURVE SMOOTH",
"491.9 5.25 OFFCURVE",
"487.24 -18.09 OFFCURVE",
"478 -34 CURVE SMOOTH",
"465.76 -51.84 OFFCURVE",
"451.43 -61.17 OFFCURVE",
"435 -62 CURVE SMOOTH"
);
},
{
closed = 1;
nodes = (
"187 121 LINE",
"283.82 244.11 OFFCURVE",
"332.49 370.78 OFFCURVE",
"333 501 CURVE SMOOTH",
"332.8 614.06 OFFCURVE",
"295.8 734.73 OFFCURVE",
"222 863 CURVE",
"170 831 LINE",
"238 711 OFFCURVE",
"272 601 OFFCURVE",
"272 501 CURVE SMOOTH",
"271.74 384.11 OFFCURVE",
"228.07 270.78 OFFCURVE",
"141 161 CURVE"
);
}
);
vertWidth = 1000;
width = 769;
}
);
note = u1B190;
unicode = 1B190;
},
{
glyphname = u1B191;
layers = (
{
hints = (
{
place = "{478, 56}";
type = Stem;
}
);
layerId = "ADFD292A-F9BB-471F-8DBA-A614A3A5AC29";
paths = (
{
closed = 1;
nodes = (
"192 469 LINE",
"326.74 522.47 OFFCURVE",
"430.4 591.13 OFFCURVE",
"503 675 CURVE SMOOTH",
"576.17 759.49 OFFCURVE",
"626.84 863.82 OFFCURVE",
"655 988 CURVE",
"601 1000 LINE",
"577 888 OFFCURVE",
"530 793 OFFCURVE",
"460 715 CURVE SMOOTH",
"389.87 636.15 OFFCURVE",
"292.53 571.15 OFFCURVE",
"168 520 CURVE"
);
},
{
closed = 1;
nodes = (
"169 228 LINE",
"300.79 284.03 OFFCURVE",
"394.79 341.36 OFFCURVE",
"451 400 CURVE SMOOTH",
"505.81 459.17 OFFCURVE",
"533.47 528.5 OFFCURVE",
"534 608 CURVE SMOOTH",
"533.84 645.11 OFFCURVE",
"523.84 686.78 OFFCURVE",
"504 733 CURVE",
"459 700 LINE",
"471.38 668.26 OFFCURVE",
"477.71 638.26 OFFCURVE",
"478 610 CURVE SMOOTH",
"478 542 OFFCURVE",
"453 483 OFFCURVE",
"403 433 CURVE SMOOTH",
"353.47 382.77 OFFCURVE",
"268.47 332.43 OFFCURVE",
"148 282 CURVE"
);
},
{
closed = 1;
nodes = (
"356 376 LINE",
"381.19 201.96 OFFCURVE",
"378.19 39.3 OFFCURVE",
"347 -112 CURVE",
"401 -120 LINE",
"431.1 26.07 OFFCURVE",
"434.77 195.41 OFFCURVE",
"412 388 CURVE"
);
},
{
closed = 1;
nodes = (
"419 127 LINE",
"468.33 161.06 OFFCURVE",
"529.66 207.4 OFFCURVE",
"603 266 CURVE",
"569 308 LINE",
"534.3 278.99 OFFCURVE",
"485.3 242.66 OFFCURVE",
"422 199 CURVE"
);
},
{
closed = 1;
nodes = (
"382 177 LINE",
"313.05 130.41 OFFCURVE",
"239.72 86.41 OFFCURVE",
"162 45 CURVE",
"186 -4 LINE",
"256.46 30.32 OFFCURVE",
"321.8 68.32 OFFCURVE",
"382 110 CURVE"
);
}
);
vertWidth = 1000;
width = 769;
}
);
note = u1B191;
unicode = 1B191;
},
{
glyphname = u1B192;
layers = (
{
hints = (
{
horizontal = 1;
place = "{111, 92}";
type = Stem;
},
{
place = "{94, 85}";
type = Stem;
},
{
place = "{351, 58}";
type = Stem;
},
{
place = "{543, 58}";
type = Stem;
}
);
layerId = "ADFD292A-F9BB-471F-8DBA-A614A3A5AC29";
paths = (
{
closed = 1;
nodes = (
"337 -120 LINE",
"385 -21.33 OFFCURVE",
"409 75.33 OFFCURVE",
"409 170 CURVE SMOOTH",
"409 288.67 OFFCURVE",
"375 394.33 OFFCURVE",
"307 487 CURVE",
"298 467 LINE",
"386 524.33 OFFCURVE",
"458.67 594.83 OFFCURVE",
"516 678.5 CURVE SMOOTH",
"573.33 762.17 OFFCURVE",
"621.67 862.67 OFFCURVE",
"661 980 CURVE",
"608 1000 LINE",
"572 886 OFFCURVE",
"525.83 789.83 OFFCURVE",
"469.5 711.5 CURVE SMOOTH",
"413.17 633.17 OFFCURVE",
"335 559 OFFCURVE",
"235 489 CURVE",
"281.67 426.33 OFFCURVE",
"312.67 369.67 OFFCURVE",
"328 319 CURVE SMOOTH",
"343.33 268.33 OFFCURVE",
"351 218.67 OFFCURVE",
"351 170 CURVE SMOOTH",
"351 82.67 OFFCURVE",
"328.67 -6.33 OFFCURVE",
"284 -97 CURVE"
);
},
{
closed = 1;
nodes = (
"150.33 111 OFFCURVE",
"160.67 115.5 OFFCURVE",
"168 124.5 CURVE SMOOTH",
"175.33 133.5 OFFCURVE",
"179 144.33 OFFCURVE",
"179 157 CURVE SMOOTH",
"179 170.33 OFFCURVE",
"175.33 181.33 OFFCURVE",
"168 190 CURVE SMOOTH",
"160.67 198.67 OFFCURVE",
"150.33 203 OFFCURVE",
"137 203 CURVE SMOOTH",
"125 203 OFFCURVE",
"114.83 198.5 OFFCURVE",
"106.5 189.5 CURVE SMOOTH",
"98.17 180.5 OFFCURVE",
"94 169.67 OFFCURVE",
"94 157 CURVE SMOOTH",
"94 144.33 OFFCURVE",
"98.17 133.5 OFFCURVE",
"106.5 124.5 CURVE SMOOTH",
"114.83 115.5 OFFCURVE",
"125 111 OFFCURVE",
"137 111 CURVE SMOOTH"
);
},
{
closed = 1;
nodes = (
"438 631 LINE",
"470.67 588.33 OFFCURVE",
"496.33 538.5 OFFCURVE",
"515 481.5 CURVE SMOOTH",
"533.67 424.5 OFFCURVE",
"543 367.33 OFFCURVE",
"543 310 CURVE SMOOTH",
"543 268 OFFCURVE",
"541.67 232.33 OFFCURVE",
"539 203 CURVE",
"597 199 LINE",
"599.67 225 OFFCURVE",
"601 261.67 OFFCURVE",
"601 309 CURVE SMOOTH",
"601 371.67 OFFCURVE",
"590.5 434.83 OFFCURVE",
"569.5 498.5 CURVE SMOOTH",
"548.5 562.17 OFFCURVE",
"519.33 618.67 OFFCURVE",
"482 668 CURVE"
);
}
);
vertWidth = 1000;
width = 769;
}
);
note = u1B192;
unicode = 1B192;
},
{
glyphname = u1B193;
layers = (
{
hints = (
{
horizontal = 1;
place = "{48, 90}";
type = Stem;
},
{
horizontal = 1;
place = "{511, 90}";
type = Stem;
},
{
place = "{90, 83}";
type = Stem;
},
{
place = "{340, 82}";
type = Stem;
},
{
place = "{529, 61}";
type = Stem;
}
);
layerId = "ADFD292A-F9BB-471F-8DBA-A614A3A5AC29";
paths = (
{
closed = 1;
nodes = (
"458 -120 LINE",
"546 74.67 OFFCURVE",
"590 368.67 OFFCURVE",
"590 762 CURVE SMOOTH",
"590 837.33 OFFCURVE",
"588.33 916.67 OFFCURVE",
"585 1000 CURVE",
"526 996 LINE",
"528 922 OFFCURVE",
"529 844.67 OFFCURVE",
"529 764 CURVE SMOOTH",
"529 386.67 OFFCURVE",
"491.33 112.33 OFFCURVE",
"416 -59 CURVE",
"438 -59 LINE",
"239 486 LINE",
"186 467 LINE",
"397 -113 LINE"
);
},
{
closed = 1;
nodes = (
"144.67 48 OFFCURVE",
"154.67 52.5 OFFCURVE",
"162 61.5 CURVE SMOOTH",
"169.33 70.5 OFFCURVE",
"173 81 OFFCURVE",
"173 93 CURVE SMOOTH",
"173 105.67 OFFCURVE",
"169.33 116.33 OFFCURVE",
"162 125 CURVE SMOOTH",
"154.67 133.67 OFFCURVE",
"144.67 138 OFFCURVE",
"132 138 CURVE SMOOTH",
"120.67 138 OFFCURVE",
"110.83 133.67 OFFCURVE",
"102.5 125 CURVE SMOOTH",
"94.17 116.33 OFFCURVE",
"90 105.67 OFFCURVE",
"90 93 CURVE SMOOTH",
"90 81 OFFCURVE",
"94 70.5 OFFCURVE",
"102 61.5 CURVE SMOOTH",
"110 52.5 OFFCURVE",
"120 48 OFFCURVE",
"132 48 CURVE SMOOTH"
);
},
{
closed = 1;
nodes = (
"340 544 OFFCURVE",
"344 533.5 OFFCURVE",
"352 524.5 CURVE SMOOTH",
"360 515.5 OFFCURVE",
"369.67 511 OFFCURVE",
"381 511 CURVE SMOOTH",
"393.67 511 OFFCURVE",
"403.67 515.5 OFFCURVE",
"411 524.5 CURVE SMOOTH",
"418.33 533.5 OFFCURVE",
"422 544 OFFCURVE",
"422 556 CURVE SMOOTH",
"422 568.67 OFFCURVE",
"418.33 579.33 OFFCURVE",
"411 588 CURVE SMOOTH",
"403.67 596.67 OFFCURVE",
"393.67 601 OFFCURVE",
"381 601 CURVE SMOOTH",
"369.67 601 OFFCURVE",
"360 596.67 OFFCURVE",
"352 588 CURVE SMOOTH",
"344 579.33 OFFCURVE",
"340 568.67 OFFCURVE",
"340 556 CURVE SMOOTH"
);
}
);
vertWidth = 1000;
width = 769;
}
);
note = u1B193;
unicode = 1B193;
},
{
glyphname = u1B194;
layers = (
{
hints = (
{
place = "{571, 52}";
type = Stem;
}
);
layerId = "ADFD292A-F9BB-471F-8DBA-A614A3A5AC29";
paths = (
{
closed = 1;
nodes = (
"552 -23 LINE",
"603 -5 LINE",
"291 851 LINE",
"240 833 LINE"
);
},
{
closed = 1;
nodes = (
"147 -120 LINE",
"269 -26.67 OFFCURVE",
"384.67 89 OFFCURVE",
"494 227 CURVE",
"454 268 LINE",
"359.33 141.33 OFFCURVE",
"246.33 25.67 OFFCURVE",
"115 -79 CURVE"
);
},
{
closed = 1;
nodes = (
"207 207 LINE",
"294.33 261.67 OFFCURVE",
"367.33 314.33 OFFCURVE",
"426 365 CURVE",
"407 421 LINE",
"347.67 369 OFFCURVE",
"271.67 314 OFFCURVE",
"179 256 CURVE"
);
},
{
closed = 1;
nodes = (
"166 427 LINE",
"242 468.33 OFFCURVE",
"306.33 511.33 OFFCURVE",
"359 556 CURVE",
"341 615 LINE",
"273.67 558.33 OFFCURVE",
"207 512.33 OFFCURVE",
"141 477 CURVE"
);
},
{
closed = 1;
nodes = (
"447 378 LINE",
"529.67 449.33 OFFCURVE",
"596.33 518.67 OFFCURVE",
"647 586 CURVE",
"602 618 LINE",
"550.67 552 OFFCURVE",
"492.33 490.33 OFFCURVE",
"427 433 CURVE"
);
},
{
closed = 1;
nodes = (
"379 565 LINE",
"509 685.67 OFFCURVE",
"590.33 827.67 OFFCURVE",
"623 991 CURVE",
"571 1000 LINE",
"536.33 853.33 OFFCURVE",
"465.33 727.33 OFFCURVE",
"358 622 CURVE"
);
}
);
vertWidth = 1000;
width = 769;
}
);
note = u1B194;
unicode = 1B194;
},
{
glyphname = u1B195;
layers = (
{
hints = (
{
horizontal = 1;
place = "{406, 99}";
type = Stem;
},
{
horizontal = 1;
place = "{506, 99}";
type = Stem;
},
{
place = "{113, 92}";
type = Stem;
},
{
place = "{427, 54}";
type = Stem;
},
{
place = "{591, 92}";
type = Stem;
},
{
place = "{393, 58}";
type = Stem;
}
);
layerId = "ADFD292A-F9BB-471F-8DBA-A614A3A5AC29";
paths = (
{
closed = 1;
nodes = (
"137 7 LINE",
"249.73 120.97 OFFCURVE",
"331.73 250.3 OFFCURVE",
"383 395 CURVE SMOOTH",
"433.24 540.04 OFFCURVE",
"465.9 741.7 OFFCURVE",
"481 1000 CURVE",
"427 1000 LINE",
"411.9 755.45 OFFCURVE",
"380.57 564.45 OFFCURVE",
"333 427 CURVE SMOOTH",
"284 288 OFFCURVE",
"205 162 OFFCURVE",
"96 49 CURVE"
);
},
{
closed = 1;
nodes = (
"451 -120 LINE",
"452.88 69.25 OFFCURVE",
"425.21 262.59 OFFCURVE",
"368 460 CURVE",
"329 395 LINE",
"373.49 239.4 OFFCURVE",
"394.83 68.73 OFFCURVE",
"393 -117 CURVE"
);
},
{
closed = 1;
nodes = (
"171.8 506.27 OFFCURVE",
"183.13 510.94 OFFCURVE",
"193 520 CURVE SMOOTH",
"201 529 OFFCURVE",
"205 541 OFFCURVE",
"205 556 CURVE SMOOTH",
"204.77 569.8 OFFCURVE",
"200.77 581.47 OFFCURVE",
"193 591 CURVE SMOOTH",
"183.83 599.81 OFFCURVE",
"172.5 604.48 OFFCURVE",
"159 605 CURVE SMOOTH",
"147.52 604.72 OFFCURVE",
"136.85 600.05 OFFCURVE",
"127 591 CURVE SMOOTH",
"118.17 580.82 OFFCURVE",
"113.51 569.16 OFFCURVE",
"113 556 CURVE SMOOTH",
"113.28 542.51 OFFCURVE",
"117.94 530.85 OFFCURVE",
"127 521 CURVE SMOOTH",
"135.78 511.62 OFFCURVE",
"146.45 506.62 OFFCURVE",
"159 506 CURVE SMOOTH"
);
},
{
closed = 1;
nodes = (
"650.11 406.28 OFFCURVE",
"661.44 411.28 OFFCURVE",
"671 421 CURVE SMOOTH",
"678.55 429.91 OFFCURVE",
"682.55 441.58 OFFCURVE",
"683 456 CURVE SMOOTH",
"682.77 469.8 OFFCURVE",
"678.77 481.47 OFFCURVE",
"671 491 CURVE SMOOTH",
"661.83 499.81 OFFCURVE",
"650.5 504.48 OFFCURVE",
"637 505 CURVE SMOOTH",
"625.52 504.72 OFFCURVE",
"614.85 500.05 OFFCURVE",
"605 491 CURVE SMOOTH",
"596.17 480.82 OFFCURVE",
"591.51 469.16 OFFCURVE",
"591 456 CURVE SMOOTH",
"591.28 442.51 OFFCURVE",
"595.94 430.85 OFFCURVE",
"605 421 CURVE SMOOTH",
"613.78 411.62 OFFCURVE",
"624.45 406.62 OFFCURVE",
"637 406 CURVE SMOOTH"
);
}
);
vertWidth = 1000;
width = 769;
}
);
note = u1B195;
unicode = 1B195;
},
{
glyphname = u1B196;
layers = (
{
layerId = "ADFD292A-F9BB-471F-8DBA-A614A3A5AC29";
paths = (
{
closed = 1;
nodes = (
"253 757 LINE",
"397.02 505.32 OFFCURVE",
"465.68 213.32 OFFCURVE",
"459 -119 CURVE",
"516 -120 LINE",
"514.92 61.4 OFFCURVE",
"496.25 227.4 OFFCURVE",
"460 378 CURVE SMOOTH",
"422.79 531.45 OFFCURVE",
"363.12 679.12 OFFCURVE",
"281 821 CURVE",
"232 814 LINE",
"179.39 644.94 OFFCURVE",
"122.72 494.27 OFFCURVE",
"62 362 CURVE",
"116 338 LINE",
"175.22 473.59 OFFCURVE",
"228.22 614.93 OFFCURVE",
"275 762 CURVE"
);
},
{
closed = 1;
nodes = (
"415 472 LINE",
"467.37 624.34 OFFCURVE",
"512.7 772.34 OFFCURVE",
"551 916 CURVE",
"541 916 LINE",
"591 740.27 OFFCURVE",
"623.66 555.6 OFFCURVE",
"639 362 CURVE",
"695 365 LINE",
"677.15 579.3 OFFCURVE",
"635.48 790.97 OFFCURVE",
"570 1000 CURVE",
"519 1002 LINE",
"479.4 858.42 OFFCURVE",
"435.07 712.42 OFFCURVE",
"386 564 CURVE"
);
},
{
closed = 1;
nodes = (
"376 546 LINE",
"318.16 369.44 OFFCURVE",
"257.82 203.77 OFFCURVE",
"195 49 CURVE",
"246 31 LINE",
"311.23 194.62 OFFCURVE",
"363.9 334.62 OFFCURVE",
"404 451 CURVE"
);
}
);
vertWidth = 1000;
width = 769;
}
);
note = u1B196;
unicode = 1B196;
},
{
glyphname = u1B197;
layers = (
{
layerId = "ADFD292A-F9BB-471F-8DBA-A614A3A5AC29";
paths = (
{
closed = 1;
nodes = (
"284 -120 LINE",
"298.22 -111.06 OFFCURVE",
"313.14 -101.45 OFFCURVE",
"328.76 -91.18 CURVE SMOOTH",
"470.63 2.29 OFFCURVE",
"578.71 87.02 OFFCURVE",
"653 163 CURVE",
"611 202 LINE",
"521.27 111.45 OFFCURVE",
"402.94 20.78 OFFCURVE",
"256 -70 CURVE"
);
},
{
closed = 1;
nodes = (
"199 753 LINE",
"457 46 LINE",
"501 88 LINE",
"253 771 LINE"
);
},
{
closed = 1;
nodes = (
"347 443 LINE",
"497.45 588.8 OFFCURVE",
"592.45 771.47 OFFCURVE",
"632 991 CURVE",
"575 1000 LINE",
"536.06 797.4 OFFCURVE",
"452.73 630.4 OFFCURVE",
"325 499 CURVE"
);
},
{
closed = 1;
nodes = (
"312 493 LINE",
"259.95 444.01 OFFCURVE",
"198.28 396.01 OFFCURVE",
"127 349 CURVE",
"156 304 LINE",
"214.94 341.03 OFFCURVE",
"275.27 385.36 OFFCURVE",
"337 437 CURVE"
);
},
{
closed = 1;
nodes = (
"430 252 LINE",
"487.2 304.08 OFFCURVE",
"539.53 359.08 OFFCURVE",
"587 417 CURVE",
"542 452 LINE",
"502.02 402.88 OFFCURVE",
"459.02 356.21 OFFCURVE",
"413 312 CURVE"
);
},
{
closed = 1;
nodes = (
"395 300 LINE",
"337.46 249.62 OFFCURVE",
"277.13 204.62 OFFCURVE",
"214 165 CURVE",
"243 118 LINE",
"289.54 146.8 OFFCURVE",
"343.21 186.47 OFFCURVE",
"404 237 CURVE"
);
}
);
vertWidth = 1000;
width = 769;
}
);
note = u1B197;
unicode = 1B197;
},
{
glyphname = u1B198;
layers = (
{
hints = (
{
place = "{281, 59}";
type = Stem;
},
{
place = "{402, 56}";
type = Stem;
},
{
place = "{519, 54}";
type = Stem;
},
{
place = "{570, 53}";
type = Stem;
}
);
layerId = "ADFD292A-F9BB-471F-8DBA-A614A3A5AC29";
paths = (
{
closed = 1;
nodes = (
"268 -120 LINE",
"316 -20.67 OFFCURVE",
"340 76 OFFCURVE",
"340 170 CURVE SMOOTH",
"340 229.33 OFFCURVE",
"330.33 287.33 OFFCURVE",
"311 344 CURVE SMOOTH",
"291.67 400.67 OFFCURVE",
"265.67 450.33 OFFCURVE",
"233 493 CURVE",
"221 463 LINE",
"302.33 525.67 OFFCURVE",
"371.83 598.5 OFFCURVE",
"429.5 681.5 CURVE SMOOTH",
"487.17 764.5 OFFCURVE",
"535 865.33 OFFCURVE",
"573 984 CURVE",
"519 1000 LINE",
"483 886 OFFCURVE",
"436 787.83 OFFCURVE",
"378 705.5 CURVE SMOOTH",
"320 623.17 OFFCURVE",
"249 551 OFFCURVE",
"165 489 CURVE",
"212.33 426.33 OFFCURVE",
"243.5 369.83 OFFCURVE",
"258.5 319.5 CURVE SMOOTH",
"273.5 269.17 OFFCURVE",
"281 219.33 OFFCURVE",
"281 170 CURVE SMOOTH",
"281 83.33 OFFCURVE",
"258.33 -4.33 OFFCURVE",
"213 -93 CURVE"
);
},
{
closed = 1;
nodes = (
"517 603 LINE",
"440.33 531 OFFCURVE",
"402 450.33 OFFCURVE",
"402 361 CURVE SMOOTH",
"402 279 OFFCURVE",
"429 209.67 OFFCURVE",
"483 153 CURVE",
"538 153 LINE",
"594.67 216.33 OFFCURVE",
"623 291.67 OFFCURVE",
"623 379 CURVE SMOOTH",
"623 443 OFFCURVE",
"607.5 506.83 OFFCURVE",
"576.5 570.5 CURVE SMOOTH",
"545.5 634.17 OFFCURVE",
"501.67 691.33 OFFCURVE",
"445 742 CURVE",
"413 700 LINE",
"517.67 600 OFFCURVE",
"570 492.33 OFFCURVE",
"570 377 CURVE SMOOTH",
"570 307 OFFCURVE",
"551.33 248.33 OFFCURVE",
"514 201 CURVE",
"476.67 246.33 OFFCURVE",
"458 298.67 OFFCURVE",
"458 358 CURVE SMOOTH",
"458 431.33 OFFCURVE",
"486.33 496 OFFCURVE",
"543 552 CURVE"
);
}
);
vertWidth = 1000;
width = 769;
}
);
note = u1B198;
unicode = 1B198;
},
{
glyphname = u1B199;
layers = (
{
hints = (
{
place = "{391, 58}";
type = Stem;
}
);
layerId = "ADFD292A-F9BB-471F-8DBA-A614A3A5AC29";
paths = (
{
closed = 1;
nodes = (
"158 298 LINE",
"260.22 382.6 OFFCURVE",
"333.22 477.27 OFFCURVE",
"377 582 CURVE SMOOTH",
"419.8 685.89 OFFCURVE",
"443.8 824.56 OFFCURVE",
"449 998 CURVE",
"391 1000 LINE",
"386 836 OFFCURVE",
"364 706 OFFCURVE",
"325 610 CURVE SMOOTH",
"284.98 513.52 OFFCURVE",
"216.64 425.19 OFFCURVE",
"120 345 CURVE"
);
},
{
closed = 1;
nodes = (
"174 -120 LINE",
"339.72 10.4 OFFCURVE",
"429.39 188.73 OFFCURVE",
"443 415 CURVE",
"387 416 LINE",
"381.87 310.1 OFFCURVE",
"358.87 216.43 OFFCURVE",
"318 135 CURVE SMOOTH",
"277.07 53.59 OFFCURVE",
"216.74 -18.75 OFFCURVE",
"137 -82 CURVE"
);
},
{
closed = 1;
nodes = (
"628 -94 LINE",
"551.36 41.44 OFFCURVE",
"471.69 156.78 OFFCURVE",
"389 252 CURVE",
"380 179 LINE",
"452.53 95.53 OFFCURVE",
"517.86 -4.14 OFFCURVE",
"576 -120 CURVE"
);
},
{
closed = 1;
nodes = (
"375 632 LINE",
"472.23 542.6 OFFCURVE",
"551.9 441.6 OFFCURVE",
"614 329 CURVE",
"664 357 LINE",
"592.72 478.21 OFFCURVE",
"501.39 589.21 OFFCURVE",
"390 690 CURVE"
);
}
);
vertWidth = 1000;
width = 769;
}
);
note = u1B199;
unicode = 1B199;
},
{
glyphname = u1B19A;
layers = (
{
hints = (
{
place = "{222, 49}";
type = Stem;
},
{
place = "{474, 54}";
type = Stem;
},
{
place = "{627, 52}";
type = Stem;
}
);
layerId = "ADFD292A-F9BB-471F-8DBA-A614A3A5AC29";
paths = (
{
closed = 1;
nodes = (
"225 322 LINE",
"318.33 413.33 OFFCURVE",
"388.83 513.67 OFFCURVE",
"436.5 623 CURVE SMOOTH",
"484.17 732.33 OFFCURVE",
"514.67 857 OFFCURVE",
"528 997 CURVE",
"474 1000 LINE",
"451.33 754.67 OFFCURVE",
"367.33 554 OFFCURVE",
"222 398 CURVE"
);
},
{
closed = 1;
nodes = (
"137 -120 LINE",
"226.33 49.33 OFFCURVE",
"271 214.33 OFFCURVE",
"271 375 CURVE SMOOTH",
"271 507 OFFCURVE",
"240 647.67 OFFCURVE",
"178 797 CURVE",
"127 772 LINE",
"186.33 631.33 OFFCURVE",
"216 499 OFFCURVE",
"216 375 CURVE SMOOTH",
"216 225.67 OFFCURVE",
"173.67 70.33 OFFCURVE",
"89 -91 CURVE"
);
},
{
closed = 1;
nodes = (
"301 449 LINE",
"460 11 LINE",
"512 5 LINE",
"583.33 101.67 OFFCURVE",
"639 224 OFFCURVE",
"679 372 CURVE",
"627 383 LINE",
"600.33 266.33 OFFCURVE",
"556.33 161.67 OFFCURVE",
"495 69 CURVE",
"341 499 LINE"
);
}
);
vertWidth = 1000;
width = 769;
}
);
note = u1B19A;
unicode = 1B19A;
},
{
glyphname = u1B19B;
layers = (
{
hints = (
{
horizontal = 1;
place = "{209, 94}";
type = Stem;
},
{
horizontal = 1;
place = "{480, 94}";
type = Stem;
},
{
place = "{131, 87}";
type = Stem;
},
{
place = "{580, 53}";
type = Stem;
},
{
place = "{140, 87}";
type = Stem;
}
);
layerId = "ADFD292A-F9BB-471F-8DBA-A614A3A5AC29";
paths = (
{
closed = 1;
nodes = (
"188.33 209 OFFCURVE",
"198.83 213.5 OFFCURVE",
"206.5 222.5 CURVE SMOOTH",
"214.17 231.5 OFFCURVE",
"218 242.67 OFFCURVE",
"218 256 CURVE SMOOTH",
"218 269.33 OFFCURVE",
"214.17 280.5 OFFCURVE",
"206.5 289.5 CURVE SMOOTH",
"198.83 298.5 OFFCURVE",
"188.33 303 OFFCURVE",
"175 303 CURVE SMOOTH",
"162.33 303 OFFCURVE",
"151.83 298.5 OFFCURVE",
"143.5 289.5 CURVE SMOOTH",
"135.17 280.5 OFFCURVE",
"131 269.33 OFFCURVE",
"131 256 CURVE SMOOTH",
"131 243.33 OFFCURVE",
"135.17 232.33 OFFCURVE",
"143.5 223 CURVE SMOOTH",
"151.83 213.67 OFFCURVE",
"162.33 209 OFFCURVE",
"175 209 CURVE SMOOTH"
);
},
{
closed = 1;
nodes = (
"197.33 480 OFFCURVE",
"207.83 484.5 OFFCURVE",
"215.5 493.5 CURVE SMOOTH",
"223.17 502.5 OFFCURVE",
"227 513.33 OFFCURVE",
"227 526 CURVE SMOOTH",
"227 540 OFFCURVE",
"223 551.5 OFFCURVE",
"215 560.5 CURVE SMOOTH",
"207 569.5 OFFCURVE",
"196.67 574 OFFCURVE",
"184 574 CURVE SMOOTH",
"171.33 574 OFFCURVE",
"160.83 569.5 OFFCURVE",
"152.5 560.5 CURVE SMOOTH",
"144.17 551.5 OFFCURVE",
"140 540 OFFCURVE",
"140 526 CURVE SMOOTH",
"140 512.67 OFFCURVE",
"144.17 501.67 OFFCURVE",
"152.5 493 CURVE SMOOTH",
"160.83 484.33 OFFCURVE",
"171.33 480 OFFCURVE",
"184 480 CURVE SMOOTH"
);
},
{
closed = 1;
nodes = (
"606 -120 LINE",
"658 -101 LINE",
"318 831 LINE",
"267 812 LINE"
);
},
{
closed = 1;
nodes = (
"480 357 LINE",
"556 521.67 OFFCURVE",
"607 735.33 OFFCURVE",
"633 998 CURVE",
"580 1000 LINE",
"561.33 782 OFFCURVE",
"519.67 593 OFFCURVE",
"455 433 CURVE"
);
},
{
closed = 1;
nodes = (
"432 395 LINE",
"365.33 256.33 OFFCURVE",
"270.33 120.67 OFFCURVE",
"147 -12 CURVE",
"187 -51 LINE",
"295 65 OFFCURVE",
"385.67 189 OFFCURVE",
"459 321 CURVE"
);
}
);
vertWidth = 1000;
width = 769;
}
);
note = u1B19B;
unicode = 1B19B;
},
{
glyphname = u1B19C;
layers = (
{
hints = (
{
place = "{231, 57}";
type = Stem;
},
{
place = "{500, 56}";
type = Stem;
},
{
place = "{467, 55}";
type = Stem;
}
);
layerId = "ADFD292A-F9BB-471F-8DBA-A614A3A5AC29";
paths = (
{
closed = 1;
nodes = (
"333 396 LINE",
"389 387 LINE",
"476.95 544.46 OFFCURVE",
"532.61 747.46 OFFCURVE",
"556 996 CURVE",
"500 1000 LINE",
"478.88 758.99 OFFCURVE",
"428.55 572.99 OFFCURVE",
"349 442 CURVE",
"376 442 LINE",
"229 839 LINE",
"177 821 LINE"
);
},
{
closed = 1;
nodes = (
"202 -120 LINE",
"258.92 -37.76 OFFCURVE",
"287.58 53.24 OFFCURVE",
"288 153 CURVE SMOOTH",
"287.79 259.89 OFFCURVE",
"257.79 356.56 OFFCURVE",
"198 443 CURVE",
"147 407 LINE",
"202.61 323.87 OFFCURVE",
"230.61 239.54 OFFCURVE",
"231 154 CURVE SMOOTH",
"230.77 75.32 OFFCURVE",
"205.1 -5.35 OFFCURVE",
"154 -88 CURVE"
);
},
{
closed = 1;
nodes = (
"467.11 148.39 OFFCURVE",
"474.77 100.39 OFFCURVE",
"490 49 CURVE SMOOTH",
"505.25 -1.49 OFFCURVE",
"525.58 -46.49 OFFCURVE",
"551 -86 CURVE",
"600 -55 LINE",
"548.38 29.85 OFFCURVE",
"522.38 112.52 OFFCURVE",
"522 193 CURVE SMOOTH",
"522.23 279.69 OFFCURVE",
"548.9 362.69 OFFCURVE",
"602 442 CURVE",
"554 475 LINE",
"525.89 432.14 OFFCURVE",
"504.56 386.8 OFFCURVE",
"490 339 CURVE SMOOTH",
"474.87 288.26 OFFCURVE",
"467.2 239.59 OFFCURVE",
"467 193 CURVE SMOOTH"
);
}
);
vertWidth = 1000;
width = 769;
}
);
note = u1B19C;
unicode = 1B19C;
},
{
glyphname = u1B19D;
layers = (
{
hints = (
{
place = "{391, 57}";
type = Stem;
}
);
layerId = "ADFD292A-F9BB-471F-8DBA-A614A3A5AC29";
paths = (
{
closed = 1;
nodes = (
"140 293 LINE",
"251.33 389.67 OFFCURVE",
"329.5 491.67 OFFCURVE",
"374.5 599 CURVE SMOOTH",
"419.5 706.33 OFFCURVE",
"444 839.33 OFFCURVE",
"448 998 CURVE",
"391 1000 LINE",
"385.67 844.67 OFFCURVE",
"363 718.83 OFFCURVE",
"323 622.5 CURVE SMOOTH",
"283 526.17 OFFCURVE",
"209 430.33 OFFCURVE",
"101 335 CURVE"
);
},
{
closed = 1;
nodes = (
"373 653 LINE",
"424.33 601.67 OFFCURVE",
"469.83 549.33 OFFCURVE",
"509.5 496 CURVE SMOOTH",
"549.17 442.67 OFFCURVE",
"592.67 376 OFFCURVE",
"640 296 CURVE",
"689 325 LINE",
"639.67 405.67 OFFCURVE",
"592.5 474.83 OFFCURVE",
"547.5 532.5 CURVE SMOOTH",
"502.5 590.17 OFFCURVE",
"449 650 OFFCURVE",
"387 712 CURVE"
);
},
{
closed = 1;
nodes = (
"224 396 LINE",
"295.33 332 OFFCURVE",
"361.5 257 OFFCURVE",
"422.5 171 CURVE SMOOTH",
"483.5 85 OFFCURVE",
"533.67 -3.33 OFFCURVE",
"573 -94 CURVE",
"625 -73 LINE",
"543.67 110.33 OFFCURVE",
"421 281 OFFCURVE",
"257 439 CURVE"
);
},
{
closed = 1;
nodes = (
"436 233 LINE",
"478 306.33 OFFCURVE",
"511.33 385.67 OFFCURVE",
"536 471 CURVE",
"496 516 LINE",
"475.33 434 OFFCURVE",
"442.67 354.33 OFFCURVE",
"398 277 CURVE"
);
},
{
closed = 1;
nodes = (
"388 268 LINE",
"307.33 141.33 OFFCURVE",
"198 25.67 OFFCURVE",
"60 -79 CURVE",
"93 -121 LINE",
"235.67 -13.67 OFFCURVE",
"346.33 101.33 OFFCURVE",
"425 224 CURVE"
);
}
);
vertWidth = 1000;
width = 769;
}
);
note = u1B19D;
unicode = 1B19D;
},
{
glyphname = u1B19E;
layers = (
{
hints = (
{
place = "{401, 11.5}";
type = Stem;
},
{
place = "{532, 54}";
type = Stem;
}
);
layerId = "ADFD292A-F9BB-471F-8DBA-A614A3A5AC29";
paths = (
{
closed = 1;
nodes = (
"174 355 LINE",
"289.33 437 OFFCURVE",
"380.17 529.17 OFFCURVE",
"446.5 631.5 CURVE SMOOTH",
"512.83 733.83 OFFCURVE",
"559.33 854.33 OFFCURVE",
"586 993 CURVE",
"532 1000 LINE",
"506.67 870 OFFCURVE",
"462.83 757.83 OFFCURVE",
"400.5 663.5 CURVE SMOOTH",
"338.17 569.17 OFFCURVE",
"252.67 482.67 OFFCURVE",
"144 404 CURVE"
);
},
{
closed = 1;
nodes = (
"222 79 LINE",
"279.33 120.33 OFFCURVE",
"328.67 161.67 OFFCURVE",
"370 203 CURVE",
"373 281 LINE",
"319.67 224.33 OFFCURVE",
"259.67 172 OFFCURVE",
"193 124 CURVE"
);
},
{
closed = 1;
nodes = (
"375 -120 LINE",
"473.67 -39.33 OFFCURVE",
"558 45 OFFCURVE",
"628 133 CURVE",
"587 168 LINE",
"511 77.33 OFFCURVE",
"440 5.67 OFFCURVE",
"374 -47 CURVE",
"390 -61 LINE",
"406.67 73.67 OFFCURVE",
"414.17 183.33 OFFCURVE",
"412.5 268 CURVE SMOOTH",
"410.83 352.67 OFFCURVE",
"401 463.67 OFFCURVE",
"383 601 CURVE",
"338 548 LINE",
"367.33 312 OFFCURVE",
"365.33 99.67 OFFCURVE",
"332 -89 CURVE"
);
},
{
closed = 1;
nodes = (
"399 218 LINE",
"474.33 295.33 OFFCURVE",
"537 368.67 OFFCURVE",
"587 438 CURVE",
"544 467 LINE",
"493.33 403.67 OFFCURVE",
"445.67 347.33 OFFCURVE",
"401 298 CURVE"
);
}
);
vertWidth = 1000;
width = 769;
}
);
note = u1B19E;
unicode = 1B19E;
},
{
glyphname = u1B19F;
layers = (
{
hints = (
{
place = "{156, 56}";
type = Stem;
},
{
place = "{530, 54}";
type = Stem;
},
{
place = "{592, 49}";
type = Stem;
}
);
layerId = "ADFD292A-F9BB-471F-8DBA-A614A3A5AC29";
paths = (
{
closed = 1;
nodes = (
"706 -51 LINE",
"664.48 22.73 OFFCURVE",
"608.15 99.73 OFFCURVE",
"537 180 CURVE SMOOTH",
"536.06 181.13 LINE SMOOTH",
"534.68 182.38 OFFCURVE",
"533.66 183.34 OFFCURVE",
"533 184 CURVE",
"566.73 253.84 OFFCURVE",
"583.73 338.51 OFFCURVE",
"584 438 CURVE SMOOTH",
"583.9 505.22 OFFCURVE",
"571.23 587.56 OFFCURVE",
"546 685 CURVE",
"586.41 774.11 OFFCURVE",
"618.08 875.11 OFFCURVE",
"641 988 CURVE",
"592 1000 LINE",
"561.17 870.07 OFFCURVE",
"519.17 754.74 OFFCURVE",
"466 654 CURVE SMOOTH",
"412.33 552 OFFCURVE",
"341.67 457 OFFCURVE",
"254 369 CURVE",
"254 367 LINE",
"324.47 313.3 OFFCURVE",
"393.14 250.64 OFFCURVE",
"460 179 CURVE",
"416.88 125.47 OFFCURVE",
"374.88 81.47 OFFCURVE",
"334 47 CURVE SMOOTH",
"290.59 9.52 OFFCURVE",
"231.92 -28.81 OFFCURVE",
"158 -68 CURVE",
"187 -120 LINE",
"251.88 -86.97 OFFCURVE",
"309.55 -48.97 OFFCURVE",
"360 -6 CURVE SMOOTH",
"408.53 36.44 OFFCURVE",
"454.53 84.1 OFFCURVE",
"498 137 CURVE",
"564.68 60.12 OFFCURVE",
"617.68 -12.55 OFFCURVE",
"657 -81 CURVE"
);
},
{
closed = 1;
nodes = (
"337 371 LINE",
"403.46 443.39 OFFCURVE",
"460.79 523.39 OFFCURVE",
"509 611 CURVE",
"522.84 545.48 OFFCURVE",
"529.84 487.48 OFFCURVE",
"530 437 CURVE SMOOTH",
"529.88 358.6 OFFCURVE",
"517.21 289.26 OFFCURVE",
"492 229 CURVE",
"435.34 288.66 OFFCURVE",
"383.34 336 OFFCURVE",
"336 371 CURVE"
);
},
{
closed = 1;
nodes = (
"161 48 LINE",
"194.65 104.8 OFFCURVE",
"211.65 170.13 OFFCURVE",
"212 244 CURVE SMOOTH",
"211.79 325.4 OFFCURVE",
"189.13 398.06 OFFCURVE",
"144 462 CURVE",
"99 430 LINE",
"136.59 375.22 OFFCURVE",
"155.59 313.56 OFFCURVE",
"156 245 CURVE SMOOTH",
"156 184 OFFCURVE",
"141 127 OFFCURVE",
"111 74 CURVE"
);
}
);
vertWidth = 1000;
width = 769;
}
);
note = u1B19F;
unicode = 1B19F;
},
{
glyphname = u1B1A0;
layers = (
{
hints = (
{
place = "{379, 58}";
type = Stem;
}
);
layerId = "ADFD292A-F9BB-471F-8DBA-A614A3A5AC29";
paths = (
{
closed = 1;
nodes = (
"431 -120 LINE",
"434.95 -62.33 OFFCURVE",
"436.95 -4 OFFCURVE",
"437 55 CURVE SMOOTH",
"436.88 356.84 OFFCURVE",
"389.88 617.51 OFFCURVE",
"296 837 CURVE",
"238 828 LINE",
"187.33 667 OFFCURVE",
"132 520 OFFCURVE",
"72 387 CURVE",
"125 363 LINE",
"188.38 511.65 OFFCURVE",
"238.71 644.65 OFFCURVE",
"276 762 CURVE",
"263 762 LINE",
"340.11 562.32 OFFCURVE",
"378.78 328.66 OFFCURVE",
"379 61 CURVE SMOOTH",
"378.98 1.66 OFFCURVE",
"376.98 -57.67 OFFCURVE",
"373 -117 CURVE"
);
},
{
closed = 1;
nodes = (
"405 396 LINE",
"460.6 570.59 OFFCURVE",
"509.27 750.59 OFFCURVE",
"551 936 CURVE",
"537 926 LINE",
"586.77 750.56 OFFCURVE",
"619.77 566.23 OFFCURVE",
"636 373 CURVE",
"692 378 LINE",
"674.72 588.47 OFFCURVE",
"633.05 797.47 OFFCURVE",
"567 1005 CURVE",
"514 1005 LINE",
"472.29 824.34 OFFCURVE",
"426.62 649.67 OFFCURVE",
"377 481 CURVE"
);
}
);
vertWidth = 1000;
width = 769;
}
);
note = u1B1A0;
unicode = 1B1A0;
},
{
glyphname = u1B1A1;
layers = (
{
hints = (
{
horizontal = 1;
place = "{574, 97}";
type = Stem;
},
{
place = "{258, 88}";
type = Stem;
},
{
place = "{521, 56}";
type = Stem;
}
);
layerId = "ADFD292A-F9BB-471F-8DBA-A614A3A5AC29";
paths = (
{
closed = 1;
nodes = (
"153 55 LINE",
"284 186 OFFCURVE",
"381 324 OFFCURVE",
"444 469 CURVE SMOOTH",
"507.67 614.82 OFFCURVE",
"552.01 790.49 OFFCURVE",
"577 996 CURVE",
"521 1000 LINE",
"496.92 801.05 OFFCURVE",
"454.92 632.39 OFFCURVE",
"395 494 CURVE SMOOTH",
"334 355 OFFCURVE",
"240 222 OFFCURVE",
"113 95 CURVE"
);
},
{
closed = 1;
nodes = (
"388 -114 LINE",
"437 -120 LINE",
"473.53 -80.32 OFFCURVE",
"509.53 -33.99 OFFCURVE",
"545 19 CURVE SMOOTH",
"581.48 75.35 OFFCURVE",
"611.14 127.69 OFFCURVE",
"634 176 CURVE",
"585 201 LINE",
"535.92 99.98 OFFCURVE",
"478.59 10.65 OFFCURVE",
"413 -67 CURVE",
"435 -83 LINE",
"296 299 LINE",
"257 234 LINE"
);
},
{
closed = 1;
nodes = (
"258.25 608.51 OFFCURVE",
"262.58 597.18 OFFCURVE",
"271 588 CURVE SMOOTH",
"279.15 579.24 OFFCURVE",
"289.48 574.57 OFFCURVE",
"302 574 CURVE SMOOTH",
"315.12 574.29 OFFCURVE",
"326.12 578.95 OFFCURVE",
"335 588 CURVE SMOOTH",
"341.93 597.31 OFFCURVE",
"345.59 608.65 OFFCURVE",
"346 622 CURVE SMOOTH",
"345.78 635.4 OFFCURVE",
"342.11 647.07 OFFCURVE",
"335 657 CURVE SMOOTH",
"326.78 665.8 OFFCURVE",
"315.78 670.46 OFFCURVE",
"302 671 CURVE SMOOTH",
"289.64 670.75 OFFCURVE",
"279.31 666.42 OFFCURVE",
"271 658 CURVE SMOOTH",
"262.83 649.41 OFFCURVE",
"258.49 637.41 OFFCURVE",
"258 622 CURVE SMOOTH"
);
}
);
vertWidth = 1000;
width = 769;
}
);
note = u1B1A1;
unicode = 1B1A1;
},
{
glyphname = u1B1A2;
layers = (
{
hints = (
{
place = "{506, 58}";
type = Stem;
},
{
place = "{644, 55}";
type = Stem;
}
);
layerId = "ADFD292A-F9BB-471F-8DBA-A614A3A5AC29";
paths = (
{
closed = 1;
nodes = (
"422 -120 LINE",
"544 59.33 OFFCURVE",
"636.33 255.67 OFFCURVE",
"699 469 CURVE",
"644 483 LINE",
"584 287.67 OFFCURVE",
"504.33 113.33 OFFCURVE",
"405 -40 CURVE",
"405 -38 LINE",
"124 359 LINE",
"78 327 LINE",
"391 -118 LINE"
);
},
{
closed = 1;
nodes = (
"519 128 LINE",
"554 179 LINE",
"204 677 LINE",
"155 645 LINE"
);
},
{
closed = 1;
nodes = (
"421 355 LINE",
"497.67 551.67 OFFCURVE",
"545.33 764.67 OFFCURVE",
"564 994 CURVE",
"506 1000 LINE",
"486.67 785.33 OFFCURVE",
"445.67 588 OFFCURVE",
"383 408 CURVE"
);
},
{
closed = 1;
nodes = (
"364 376 LINE",
"332.67 299.33 OFFCURVE",
"292.33 220.33 OFFCURVE",
"243 139 CURVE",
"277 88 LINE",
"331 170 OFFCURVE",
"373.67 247.33 OFFCURVE",
"405 320 CURVE"
);
}
);
vertWidth = 1000;
width = 769;
}
);
note = u1B1A2;
unicode = 1B1A2;
},
{
glyphname = u1B1A3;
layers = (
{
hints = (
{
horizontal = 1;
place = "{222, 50}";
type = Stem;
},
{
place = "{426, 52}";
type = Stem;
},
{
place = "{494, 56}";
type = Stem;
},
{
place = "{558, 50}";
type = Stem;
}
);
layerId = "ADFD292A-F9BB-471F-8DBA-A614A3A5AC29";
paths = (
{
closed = 1;
nodes = (
"218 321 LINE",
"311.31 380 OFFCURVE",
"391.64 439 OFFCURVE",
"459 498 CURVE SMOOTH",
"523.99 554.39 OFFCURVE",
"583.99 617.72 OFFCURVE",
"639 688 CURVE",
"596 721 LINE",
"496 590 OFFCURVE",
"360 472 OFFCURVE",
"188 367 CURVE"
);
},
{
closed = 1;
nodes = (
"156 472 LINE",
"262.7 546.25 OFFCURVE",
"348.03 625.25 OFFCURVE",
"412 709 CURVE SMOOTH",
"475 793 OFFCURVE",
"521 888 OFFCURVE",
"550 994 CURVE",
"494 1000 LINE",
"468.33 904.78 OFFCURVE",
"424.99 816.78 OFFCURVE",
"364 736 CURVE SMOOTH",
"301.41 655.5 OFFCURVE",
"220.75 582.5 OFFCURVE",
"122 517 CURVE"
);
},
{
closed = 1;
nodes = (
"217 222 LINE",
"232.33 219.44 OFFCURVE",
"243.99 217.11 OFFCURVE",
"252 215 CURVE SMOOTH",
"422.02 175.7 OFFCURVE",
"524.02 64.03 OFFCURVE",
"558 -120 CURVE",
"608 -109 LINE",
"587.1 -0.46 OFFCURVE",
"546.43 86.87 OFFCURVE",
"486 153 CURVE SMOOTH",
"428.68 213.87 OFFCURVE",
"342.35 253.54 OFFCURVE",
"227 272 CURVE"
);
},
{
closed = 1;
nodes = (
"439 163 LINE",
"464.72 218.75 OFFCURVE",
"477.72 280.08 OFFCURVE",
"478 347 CURVE SMOOTH",
"477.71 472.83 OFFCURVE",
"432.05 579.16 OFFCURVE",
"341 666 CURVE",
"306 628 LINE",
"386 547 OFFCURVE",
"426 453 OFFCURVE",
"426 346 CURVE SMOOTH",
"425.83 293.36 OFFCURVE",
"413.17 243.02 OFFCURVE",
"388 195 CURVE"
);
},
{
closed = 1;
nodes = (
"378 183 LINE",
"328.56 113.79 OFFCURVE",
"244.23 46.46 OFFCURVE",
"125 -19 CURVE",
"152 -70 LINE",
"271.3 -6.26 OFFCURVE",
"365.97 69.07 OFFCURVE",
"436 156 CURVE"
);
}
);
vertWidth = 1000;
width = 769;
}
);
note = u1B1A3;
unicode = 1B1A3;
},
{
glyphname = u1B1A4;
layers = (
{
layerId = "ADFD292A-F9BB-471F-8DBA-A614A3A5AC29";
paths = (
{
closed = 1;
nodes = (
"150 -120 LINE",
"298.67 -18 OFFCURVE",
"418 70 OFFCURVE",
"508 144 CURVE",
"461 185 LINE",
"365.67 102.33 OFFCURVE",
"251.67 16.67 OFFCURVE",
"119 -72 CURVE"
);
},
{
closed = 1;
nodes = (
"281 632 LINE",
"439.67 738 OFFCURVE",
"558.67 850.67 OFFCURVE",
"638 970 CURVE",
"592 1000 LINE",
"514 885.33 OFFCURVE",
"401.33 777.67 OFFCURVE",
"254 677 CURVE"
);
},
{
closed = 1;
nodes = (
"455 122 LINE",
"508 144 LINE",
"308 697 LINE",
"254 677 LINE"
);
},
{
closed = 1;
nodes = (
"402 375 LINE",
"528 477.67 OFFCURVE",
"611.33 547.67 OFFCURVE",
"652 585 CURVE",
"612 627 LINE",
"554 572.33 OFFCURVE",
"477 507.33 OFFCURVE",
"381 432 CURVE"
);
},
{
closed = 1;
nodes = (
"363 422 LINE",
"280.33 356 OFFCURVE",
"189.33 292.67 OFFCURVE",
"90 232 CURVE",
"121 182 LINE",
"202.33 231.33 OFFCURVE",
"288.67 292.33 OFFCURVE",
"380 365 CURVE"
);
}
);
vertWidth = 1000;
width = 769;
}
);
note = u1B1A4;
unicode = 1B1A4;
},
{
glyphname = u1B1A5;
layers = (
{
hints = (
{
place = "{236, 58}";
type = Stem;
},
{
place = "{482, 57}";
type = Stem;
}
);
layerId = "ADFD292A-F9BB-471F-8DBA-A614A3A5AC29";
paths = (
{
closed = 1;
nodes = (
"222 -120 LINE",
"270 -20.67 OFFCURVE",
"294 76 OFFCURVE",
"294 170 CURVE SMOOTH",
"294 229.33 OFFCURVE",
"285 287.83 OFFCURVE",
"267 345.5 CURVE SMOOTH",
"249 403.17 OFFCURVE",
"223 454.33 OFFCURVE",
"189 499 CURVE",
"174 461 LINE",
"266 534.33 OFFCURVE",
"341.17 612.83 OFFCURVE",
"399.5 696.5 CURVE SMOOTH",
"457.83 780.17 OFFCURVE",
"507 877.33 OFFCURVE",
"547 988 CURVE",
"493 1000 LINE",
"456.33 898 OFFCURVE",
"408.5 805.83 OFFCURVE",
"349.5 723.5 CURVE SMOOTH",
"290.5 641.17 OFFCURVE",
"214 563 OFFCURVE",
"120 489 CURVE",
"167.33 426.33 OFFCURVE",
"198.5 369.83 OFFCURVE",
"213.5 319.5 CURVE SMOOTH",
"228.5 269.17 OFFCURVE",
"236 219.33 OFFCURVE",
"236 170 CURVE SMOOTH",
"236 84.67 OFFCURVE",
"215 -2.33 OFFCURVE",
"173 -91 CURVE"
);
},
{
closed = 1;
nodes = (
"341 629 LINE",
"435 482.33 OFFCURVE",
"482 338 OFFCURVE",
"482 196 CURVE SMOOTH",
"482 130 OFFCURVE",
"473.33 64.67 OFFCURVE",
"456 0 CURVE",
"510 -14 LINE",
"529.33 58 OFFCURVE",
"539 128.33 OFFCURVE",
"539 197 CURVE SMOOTH",
"539 349.67 OFFCURVE",
"486.33 507.67 OFFCURVE",
"381 671 CURVE"
);
},
{
closed = 1;
nodes = (
"484 386 LINE",
"570.67 471.33 OFFCURVE",
"634.33 550 OFFCURVE",
"675 622 CURVE",
"631 647 LINE",
"600.33 597 OFFCURVE",
"547 530.67 OFFCURVE",
"471 448 CURVE"
);
},
{
closed = 1;
nodes = (
"461 442 LINE",
"404.33 387.33 OFFCURVE",
"336 334 OFFCURVE",
"256 282 CURVE",
"262 220 LINE",
"342 271.33 OFFCURVE",
"413 325 OFFCURVE",
"475 381 CURVE"
);
}
);
vertWidth = 1000;
width = 769;
}
);
note = u1B1A5;
unicode = 1B1A5;
},
{
glyphname = u1B1A6;
layers = (
{
layerId = "ADFD292A-F9BB-471F-8DBA-A614A3A5AC29";
paths = (
{
closed = 1;
nodes = (
"514 1 LINE",
"520 67 OFFCURVE",
"523 131 OFFCURVE",
"523 193 CURVE SMOOTH",
"522.89 431.69 OFFCURVE",
"482.22 669.69 OFFCURVE",
"401 907 CURVE",
"348 889 LINE",
"427.77 656.52 OFFCURVE",
"467.77 429.19 OFFCURVE",
"468 207 CURVE SMOOTH",
"467.97 158.44 OFFCURVE",
"465.31 91.44 OFFCURVE",
"460 6 CURVE"
);
},
{
closed = 1;
nodes = (
"321 139 LINE",
"405.13 197.55 OFFCURVE",
"465.8 246.21 OFFCURVE",
"503 285 CURVE SMOOTH",
"495 276 LINE SMOOTH",
"558.59 341.69 OFFCURVE",
"617.59 419.02 OFFCURVE",
"672 508 CURVE",
"626 537 LINE",
"572.8 452.8 OFFCURVE",
"527.13 391.47 OFFCURVE",
"489 353 CURVE",
"494 361 LINE SMOOTH",
"493.58 360.5 OFFCURVE",
"492.88 359.68 OFFCURVE",
"491.9 358.51 CURVE SMOOTH",
"445.78 304.22 OFFCURVE",
"387.14 253.72 OFFCURVE",
"316 207 CURVE",
"313 208 LINE",
"278.51 182.43 OFFCURVE",
"223.17 148.76 OFFCURVE",
"147 107 CURVE",
"173 56 LINE",
"214.94 77.51 OFFCURVE",
"263.6 106.18 OFFCURVE",
"319 142 CURVE"
);
},
{
closed = 1;
nodes = (
"301 401 LINE",
"360.36 445.64 OFFCURVE",
"411.7 492.97 OFFCURVE",
"455 543 CURVE",
"465 550 LINE",
"555.13 669.18 OFFCURVE",
"612.46 817.51 OFFCURVE",
"637 995 CURVE",
"582 1000 LINE",
"564.95 855.89 OFFCURVE",
"520.95 729.55 OFFCURVE",
"450 621 CURVE",
"441 616 LINE",
"398.74 558.24 OFFCURVE",
"348.74 506.9 OFFCURVE",
"291 462 CURVE",
"286 463 LINE",
"229.51 420.42 OFFCURVE",
"175.51 384.08 OFFCURVE",
"124 354 CURVE",
"151 308 LINE",
"204.23 338.06 OFFCURVE",
"253.56 370.06 OFFCURVE",
"299 404 CURVE"
);
},
{
closed = 1;
nodes = (
"326 -120 LINE",
"334.6 -24.09 OFFCURVE",
"338.94 68.91 OFFCURVE",
"339 159 CURVE SMOOTH",
"338.9 351 OFFCURVE",
"308.9 542.66 OFFCURVE",
"249 734 CURVE",
"195 719 LINE",
"254.79 514.99 OFFCURVE",
"284.79 323.99 OFFCURVE",
"285 146 CURVE SMOOTH",
"285 65 OFFCURVE",
"280 -22 OFFCURVE",
"270 -115 CURVE"
);
}
);
vertWidth = 1000;
width = 769;
}
);
note = u1B1A6;
unicode = 1B1A6;
},
{
glyphname = u1B1A7;
layers = (
{
hints = (
{
place = "{554, 56}";
type = Stem;
}
);
layerId = "ADFD292A-F9BB-471F-8DBA-A614A3A5AC29";
paths = (
{
closed = 1;
nodes = (
"614 219 LINE",
"573.3 179.3 OFFCURVE",
"525.63 137.97 OFFCURVE",
"471 95 CURVE",
"416 245 LINE",
"481.03 301.13 OFFCURVE",
"536.36 358.8 OFFCURVE",
"582 418 CURVE",
"543 451 LINE",
"493.14 391.06 OFFCURVE",
"444.47 339.72 OFFCURVE",
"397 297 CURVE",
"341 451 LINE",
"490.89 599.23 OFFCURVE",
"580.55 780.23 OFFCURVE",
"610 994 CURVE",
"554 1000 LINE",
"510.81 722.99 OFFCURVE",
"366.81 506.65 OFFCURVE",
"122 351 CURVE",
"152 303 LINE",
"204.29 336 OFFCURVE",
"253.29 372.67 OFFCURVE",
"299 413 CURVE",
"355 261 LINE",
"289.52 207.86 OFFCURVE",
"237.19 170.19 OFFCURVE",
"198 148 CURVE",
"226 103 LINE",
"268.18 128.74 OFFCURVE",
"317.52 163.41 OFFCURVE",
"374 207 CURVE",
"427 61 LINE",
"363.8 13.9 OFFCURVE",
"296.13 -31.44 OFFCURVE",
"224 -75 CURVE",
"250 -120 LINE",
"321.38 -77.51 OFFCURVE",
"391.38 -30.84 OFFCURVE",
"460 20 CURVE SMOOTH",
"527.55 70.74 OFFCURVE",
"590.88 125.07 OFFCURVE",
"650 183 CURVE"
);
}
);
vertWidth = 1000;
width = 769;
}
);
note = u1B1A7;
unicode = 1B1A7;
},
{
glyphname = u1B1A8;
layers = (
{
hints = (
{
horizontal = 1;
place = "{-12, 88}";
type = Stem;
},
{
horizontal = 1;
place = "{104, 88}";
type = Stem;
},
{
place = "{168, 81}";
type = Stem;
},
{
place = "{378, 53}";
type = Stem;
},
{
place = "{559, 54}";
type = Stem;
},
{
place = "{543, 81}";
type = Stem;
}
);
layerId = "ADFD292A-F9BB-471F-8DBA-A614A3A5AC29";
paths = (
{
closed = 1;
nodes = (
"153 406 LINE",
"287.67 487.33 OFFCURVE",
"391 574.17 OFFCURVE",
"463 666.5 CURVE SMOOTH",
"535 758.83 OFFCURVE",
"585 868 OFFCURVE",
"613 994 CURVE",
"559 1000 LINE",
"531.67 884.67 OFFCURVE",
"484.33 784.17 OFFCURVE",
"417 698.5 CURVE SMOOTH",
"349.67 612.83 OFFCURVE",
"252.67 532 OFFCURVE",
"126 456 CURVE"
);
},
{
closed = 1;
nodes = (
"220.67 -12 OFFCURVE",
"230.67 -7.83 OFFCURVE",
"238 0.5 CURVE SMOOTH",
"245.33 8.83 OFFCURVE",
"249 19.33 OFFCURVE",
"249 32 CURVE SMOOTH",
"249 44.67 OFFCURVE",
"245.33 55.17 OFFCURVE",
"238 63.5 CURVE SMOOTH",
"230.67 71.83 OFFCURVE",
"220.67 76 OFFCURVE",
"208 76 CURVE SMOOTH",
"196.67 76 OFFCURVE",
"187.17 71.83 OFFCURVE",
"179.5 63.5 CURVE SMOOTH",
"171.83 55.17 OFFCURVE",
"168 44.67 OFFCURVE",
"168 32 CURVE SMOOTH",
"168 20 OFFCURVE",
"171.83 9.67 OFFCURVE",
"179.5 1 CURVE SMOOTH",
"187.17 -7.67 OFFCURVE",
"196.67 -12 OFFCURVE",
"208 -12 CURVE SMOOTH"
);
},
{
closed = 1;
nodes = (
"595.67 104 OFFCURVE",
"605.67 108.17 OFFCURVE",
"613 116.5 CURVE SMOOTH",
"620.33 124.83 OFFCURVE",
"624 135.33 OFFCURVE",
"624 148 CURVE SMOOTH",
"624 160.67 OFFCURVE",
"620.33 171.17 OFFCURVE",
"613 179.5 CURVE SMOOTH",
"605.67 187.83 OFFCURVE",
"595.67 192 OFFCURVE",
"583 192 CURVE SMOOTH",
"571.67 192 OFFCURVE",
"562.17 187.83 OFFCURVE",
"554.5 179.5 CURVE SMOOTH",
"546.83 171.17 OFFCURVE",
"543 160.67 OFFCURVE",
"543 148 CURVE SMOOTH",
"543 136 OFFCURVE",
"546.83 125.67 OFFCURVE",
"554.5 117 CURVE SMOOTH",
"562.17 108.33 OFFCURVE",
"571.67 104 OFFCURVE",
"583 104 CURVE SMOOTH"
);
},
{
closed = 1;
nodes = (
"316 531 LINE",
"357.33 409 OFFCURVE",
"378 298 OFFCURVE",
"378 198 CURVE SMOOTH",
"378 98 OFFCURVE",
"357.33 -0.33 OFFCURVE",
"316 -97 CURVE",
"365 -120 LINE",
"409 -12.67 OFFCURVE",
"431 93 OFFCURVE",
"431 197 CURVE SMOOTH",
"431 304.33 OFFCURVE",
"409 428 OFFCURVE",
"365 568 CURVE"
);
},
{
closed = 1;
nodes = (
"405 325 LINE",
"484.33 384.33 OFFCURVE",
"551.67 442.67 OFFCURVE",
"607 500 CURVE",
"565 537 LINE",
"512.33 481.67 OFFCURVE",
"456.33 432.33 OFFCURVE",
"397 389 CURVE"
);
},
{
closed = 1;
nodes = (
"373 373 LINE",
"324.33 337 OFFCURVE",
"256.33 293 OFFCURVE",
"169 241 CURVE",
"197 197 LINE",
"266.33 235.67 OFFCURVE",
"327 273.67 OFFCURVE",
"379 311 CURVE"
);
}
);
vertWidth = 1000;
width = 769;
}
);
note = u1B1A8;
unicode = 1B1A8;
},
{
glyphname = u1B1A9;
layers = (
{
hints = (
{
place = "{473, 53}";
type = Stem;
},
{
place = "{537, 54}";
type = Stem;
},
{
place = "{459, 53}";
type = Stem;
}
);
layerId = "ADFD292A-F9BB-471F-8DBA-A614A3A5AC29";
paths = (
{
closed = 1;
nodes = (
"187 -120 LINE",
"295.67 -74.67 OFFCURVE",
"379.33 -23 OFFCURVE",
"438 35 CURVE SMOOTH",
"496.67 93 OFFCURVE",
"526 163.67 OFFCURVE",
"526 247 CURVE SMOOTH",
"526 283.67 OFFCURVE",
"520.33 320 OFFCURVE",
"509 356 CURVE",
"465 305 LINE",
"470.33 277 OFFCURVE",
"473 257 OFFCURVE",
"473 245 CURVE SMOOTH",
"473 178.33 OFFCURVE",
"444.17 118.5 OFFCURVE",
"386.5 65.5 CURVE SMOOTH",
"328.83 12.5 OFFCURVE",
"254 -31.67 OFFCURVE",
"162 -67 CURVE"
);
},
{
closed = 1;
nodes = (
"386 214 LINE",
"432 243 LINE",
"359 443 LINE",
"310 421 LINE"
);
},
{
closed = 1;
nodes = (
"198 80 LINE",
"409.33 166 OFFCURVE",
"552 298.33 OFFCURVE",
"626 477 CURVE",
"573 495 LINE",
"507 336.33 OFFCURVE",
"374.67 216 OFFCURVE",
"176 134 CURVE"
);
},
{
closed = 1;
nodes = (
"185 283 LINE",
"289 335 OFFCURVE",
"369.5 394.33 OFFCURVE",
"426.5 461 CURVE SMOOTH",
"483.5 527.67 OFFCURVE",
"512 607 OFFCURVE",
"512 699 CURVE SMOOTH",
"512 744.33 OFFCURVE",
"505.67 787.67 OFFCURVE",
"493 829 CURVE",
"449 778 LINE",
"455.67 746.67 OFFCURVE",
"459 718.33 OFFCURVE",
"459 693 CURVE SMOOTH",
"459 617 OFFCURVE",
"430.83 548.5 OFFCURVE",
"374.5 487.5 CURVE SMOOTH",
"318.17 426.5 OFFCURVE",
"245.67 375.67 OFFCURVE",
"157 335 CURVE"
);
},
{
closed = 1;
nodes = (
"198 490 LINE",
"389.33 606 OFFCURVE",
"520.33 770.67 OFFCURVE",
"591 984 CURVE",
"537 1000 LINE",
"474.33 802.67 OFFCURVE",
"350.33 649.67 OFFCURVE",
"165 541 CURVE"
);
}
);
vertWidth = 1000;
width = 769;
}
);
note = u1B1A9;
unicode = 1B1A9;
},
{
glyphname = u1B1AA;
layers = (
{
hints = (
{
horizontal = 1;
place = "{21, 59}";
type = Stem;
},
{
horizontal = 1;
place = "{248, 59}";
type = Stem;
},
{
horizontal = 1;
place = "{735, -20}";
target = down;
type = TopGhost;
},
{
place = "{49, 62}";
type = Stem;
},
{
place = "{202, 61}";
type = Stem;
},
{
place = "{455, 58}";
type = Stem;
},
{
place = "{542, 52}";
type = Stem;
},
{
place = "{638, 53}";
type = Stem;
}
);
layerId = "ADFD292A-F9BB-471F-8DBA-A614A3A5AC29";
paths = (
{
closed = 1;
nodes = (
"304 486 LINE",
"411.6 542.47 OFFCURVE",
"496.6 612.81 OFFCURVE",
"559 697 CURVE SMOOTH",
"619.79 779.97 OFFCURVE",
"663.79 877.31 OFFCURVE",
"691 989 CURVE",
"638 1000 LINE",
"586.57 792.71 OFFCURVE",
"465.24 638.38 OFFCURVE",
"274 537 CURVE"
);
},
{
closed = 1;
nodes = (
"185.86 21.35 OFFCURVE",
"210.53 34.35 OFFCURVE",
"232 60 CURVE SMOOTH",
"252.28 84.58 OFFCURVE",
"262.61 120.24 OFFCURVE",
"263 167 CURVE SMOOTH",
"262.81 210.44 OFFCURVE",
"252.47 244.78 OFFCURVE",
"232 270 CURVE SMOOTH",
"211.45 294 OFFCURVE",
"186.78 306.33 OFFCURVE",
"158 307 CURVE SMOOTH",
"128.54 306.68 OFFCURVE",
"103.21 294.34 OFFCURVE",
"82 270 CURVE SMOOTH",
"60.43 245.07 OFFCURVE",
"49.43 210.74 OFFCURVE",
"49 167 CURVE SMOOTH",
"49.21 121.29 OFFCURVE",
"60.21 85.62 OFFCURVE",
"82 60 CURVE SMOOTH",
"102.85 34.68 OFFCURVE",
"128.19 21.68 OFFCURVE",
"158 21 CURVE SMOOTH"
);
},
{
closed = 1;
nodes = (
"127.41 80.67 OFFCURVE",
"111.74 108.34 OFFCURVE",
"111 163 CURVE SMOOTH",
"111.37 218.33 OFFCURVE",
"127.04 246.67 OFFCURVE",
"158 248 CURVE SMOOTH",
"170.94 247.56 OFFCURVE",
"181.61 240.23 OFFCURVE",
"190 226 CURVE SMOOTH",
"198 211 OFFCURVE",
"202 190 OFFCURVE",
"202 163 CURVE SMOOTH",
"201.87 137.94 OFFCURVE",
"197.87 117.61 OFFCURVE",
"190 102 CURVE SMOOTH",
"182.24 88.26 OFFCURVE",
"171.57 80.92 OFFCURVE",
"158 80 CURVE SMOOTH"
);
},
{
closed = 1;
nodes = (
"484 -120 LINE",
"503.19 -19.74 OFFCURVE",
"512.86 68.26 OFFCURVE",
"513 144 CURVE SMOOTH",
"512.97 227.39 OFFCURVE",
"509.64 304.05 OFFCURVE",
"503 374 CURVE",
"446 347 LINE",
"451.94 283.28 OFFCURVE",
"454.94 215.61 OFFCURVE",
"455 144 CURVE SMOOTH",
"454.93 71.49 OFFCURVE",
"445.59 -12.51 OFFCURVE",
"427 -108 CURVE"
);
},
{
closed = 1;
nodes = (
"322 214 LINE",
"412.78 260.55 OFFCURVE",
"481.11 313.55 OFFCURVE",
"527 373 CURVE SMOOTH",
"571.24 431.38 OFFCURVE",
"593.57 500.71 OFFCURVE",
"594 581 CURVE SMOOTH",
"593.9 628.5 OFFCURVE",
"585.56 679.84 OFFCURVE",
"569 735 CURVE",
"524 686 LINE",
"535.79 645.42 OFFCURVE",
"541.79 608.09 OFFCURVE",
"542 574 CURVE SMOOTH",
"541.47 448.72 OFFCURVE",
"458.8 345.72 OFFCURVE",
"294 265 CURVE"
);
}
);
vertWidth = 1000;
width = 769;
}
);
note = u1B1AA;
unicode = 1B1AA;
},
{
glyphname = u1B1AB;
layers = (
{
hints = (
{
place = "{196, 57}";
type = Stem;
},
{
place = "{383, 54}";
type = Stem;
},
{
place = "{556, 54}";
type = Stem;
}
);
layerId = "ADFD292A-F9BB-471F-8DBA-A614A3A5AC29";
paths = (
{
closed = 1;
nodes = (
"183 -120 LINE",
"229.42 10.7 OFFCURVE",
"252.75 138.03 OFFCURVE",
"253 262 CURVE SMOOTH",
"252.92 356.66 OFFCURVE",
"240.25 457.32 OFFCURVE",
"215 564 CURVE",
"159 553 LINE",
"183.49 457.63 OFFCURVE",
"195.83 361.63 OFFCURVE",
"196 265 CURVE SMOOTH",
"195.88 154.92 OFFCURVE",
"174.21 34.26 OFFCURVE",
"131 -97 CURVE"
);
},
{
closed = 1;
nodes = (
"595 92 LINE",
"546.94 230.9 OFFCURVE",
"487.61 354.24 OFFCURVE",
"417 462 CURVE",
"398 398 LINE",
"454.52 300.66 OFFCURVE",
"502.52 191.99 OFFCURVE",
"542 72 CURVE"
);
},
{
closed = 1;
nodes = (
"354 990 LINE",
"373.24 842.9 OFFCURVE",
"382.9 710.9 OFFCURVE",
"383 594 CURVE SMOOTH",
"382.89 397.65 OFFCURVE",
"352.22 217.32 OFFCURVE",
"291 53 CURVE",
"345 33 LINE",
"406.12 210.69 OFFCURVE",
"436.79 400.03 OFFCURVE",
"437 601 CURVE SMOOTH",
"436.95 721.24 OFFCURVE",
"427.28 854.24 OFFCURVE",
"408 1000 CURVE"
);
},
{
closed = 1;
nodes = (
"420 672 LINE",
"459 704 OFFCURVE",
"495 738 OFFCURVE",
"528 774 CURVE",
"527 774 LINE",
"546.21 676.63 OFFCURVE",
"555.87 577.96 OFFCURVE",
"556 478 CURVE SMOOTH",
"555.97 432.52 OFFCURVE",
"553.3 371.86 OFFCURVE",
"548 296 CURVE",
"602 291 LINE",
"607.27 357.69 OFFCURVE",
"609.94 414.35 OFFCURVE",
"610 461 CURVE SMOOTH",
"610 583 OFFCURVE",
"595 712 OFFCURVE",
"565 848 CURVE",
"530 855 LINE",
"492.15 813.13 OFFCURVE",
"454.81 776.13 OFFCURVE",
"418 744 CURVE"
);
},
{
closed = 1;
nodes = (
"391 727 LINE",
"323.82 666.73 OFFCURVE",
"246.48 608.73 OFFCURVE",
"159 553 CURVE",
"184 501 LINE",
"245.49 540 OFFCURVE",
"316.15 591 OFFCURVE",
"396 654 CURVE"
);
}
);
vertWidth = 1000;
width = 769;
}
);
note = u1B1AB;
unicode = 1B1AB;
},
{
glyphname = u1B1AC;
layers = (
{
hints = (
{
place = "{509, 53}";
type = Stem;
}
);
layerId = "ADFD292A-F9BB-471F-8DBA-A614A3A5AC29";
paths = (
{
closed = 1;
nodes = (
"567.23 164.09 OFFCURVE",
"614.56 91.42 OFFCURVE",
"655 14 CURVE",
"701 40 LINE",
"657.8 121.33 OFFCURVE",
"606.14 200.33 OFFCURVE",
"546 277 CURVE SMOOTH",
"536 289 LINE",
"553.15 345.85 OFFCURVE",
"561.82 407.85 OFFCURVE",
"562 475 CURVE SMOOTH",
"562 557 OFFCURVE",
"548 637 OFFCURVE",
"520 715 CURVE",
"562.3 805.96 OFFCURVE",
"593.64 897.63 OFFCURVE",
"614 990 CURVE",
"562 1000 LINE",
"511.06 787.02 OFFCURVE",
"419.4 607.02 OFFCURVE",
"287 460 CURVE",
"356 402 OFFCURVE",
"418 342 OFFCURVE",
"473 280 CURVE",
"438.37 215.01 OFFCURVE",
"385.7 147.01 OFFCURVE",
"315 76 CURVE",
"311.86 79.8 OFFCURVE",
"307.03 85.97 OFFCURVE",
"300.5 94.5 CURVE SMOOTH",
"294.17 102.83 OFFCURVE",
"289.33 109 OFFCURVE",
"286 113 CURVE",
"322.86 180.01 OFFCURVE",
"352.53 240.68 OFFCURVE",
"375 295 CURVE",
"326 314 LINE",
"302.42 261.54 OFFCURVE",
"276.42 209.21 OFFCURVE",
"248 157 CURVE",
"205.17 204.84 OFFCURVE",
"161.17 247.5 OFFCURVE",
"116 285 CURVE",
"80 246 LINE",
"130.67 199.5 OFFCURVE",
"175.33 154.17 OFFCURVE",
"214 110 CURVE",
"166.37 33.99 OFFCURVE",
"118.7 -31.34 OFFCURVE",
"71 -86 CURVE",
"112 -120 LINE",
"155.96 -73.22 OFFCURVE",
"202.62 -11.55 OFFCURVE",
"252 65 CURVE",
"295.93 10.76 OFFCURVE",
"334.6 -44.24 OFFCURVE",
"368 -100 CURVE",
"414 -72 LINE",
"393.43 -37.46 OFFCURVE",
"370.43 -2.13 OFFCURVE",
"345 34 CURVE",
"414 99 OFFCURVE",
"470 165 OFFCURVE",
"513 232 CURVE"
);
},
{
closed = 1;
nodes = (
"358 465 LINE",
"403.62 514.82 OFFCURVE",
"445.62 574.49 OFFCURVE",
"484 644 CURVE",
"500.48 577.81 OFFCURVE",
"508.82 519.81 OFFCURVE",
"509 470 CURVE SMOOTH",
"508.91 429.62 OFFCURVE",
"503.24 386.62 OFFCURVE",
"492 341 CURVE",
"448.34 389.63 OFFCURVE",
"404.34 431.29 OFFCURVE",
"360 466 CURVE"
);
}
);
vertWidth = 1000;
width = 769;
}
);
note = u1B1AC;
unicode = 1B1AC;
},
{
glyphname = u1B1AD;
layers = (
{
hints = (
{
place = "{385, 55}";
type = Stem;
}
);
layerId = "ADFD292A-F9BB-471F-8DBA-A614A3A5AC29";
paths = (
{
closed = 1;
nodes = (
"106 428 LINE",
"214.67 514 OFFCURVE",
"293.17 596.83 OFFCURVE",
"341.5 676.5 CURVE SMOOTH",
"389.83 756.17 OFFCURVE",
"422.67 861 OFFCURVE",
"440 991 CURVE",
"385 1000 LINE",
"370.33 882 OFFCURVE",
"340 785.33 OFFCURVE",
"294 710 CURVE SMOOTH",
"248 634.67 OFFCURVE",
"175 555 OFFCURVE",
"75 471 CURVE"
);
},
{
closed = 1;
nodes = (
"181 -120 LINE",
"255.67 -74 OFFCURVE",
"328.33 -18.83 OFFCURVE",
"399 45.5 CURVE SMOOTH",
"469.67 109.83 OFFCURVE",
"530.67 176.33 OFFCURVE",
"582 245 CURVE",
"535 280 LINE",
"492.33 221.33 OFFCURVE",
"436 159.83 OFFCURVE",
"366 95.5 CURVE SMOOTH",
"296 31.17 OFFCURVE",
"223.33 -24.67 OFFCURVE",
"148 -72 CURVE"
);
},
{
closed = 1;
nodes = (
"255 132 LINE",
"360.33 210 OFFCURVE",
"447.33 297 OFFCURVE",
"516 393 CURVE",
"469 429 LINE",
"401.67 333 OFFCURVE",
"319 250.67 OFFCURVE",
"221 182 CURVE"
);
},
{
closed = 1;
nodes = (
"221 308 LINE",
"321.67 389.33 OFFCURVE",
"399.67 473 OFFCURVE",
"455 559 CURVE",
"407 594 LINE",
"353 514 OFFCURVE",
"278 434 OFFCURVE",
"182 354 CURVE"
);
},
{
closed = 1;
nodes = (
"353 800 LINE",
"415.67 742.67 OFFCURVE",
"465.83 691.33 OFFCURVE",
"503.5 646 CURVE SMOOTH",
"541.17 600.67 OFFCURVE",
"590.67 533.33 OFFCURVE",
"652 444 CURVE",
"698 473 LINE",
"644 552.33 OFFCURVE",
"596 617 OFFCURVE",
"554 667 CURVE SMOOTH",
"512 717 OFFCURVE",
"457.67 773.33 OFFCURVE",
"391 836 CURVE"
);
}
);
vertWidth = 1000;
width = 769;
}
);
note = u1B1AD;
unicode = 1B1AD;
},
{
glyphname = u1B1AE;
layers = (
{
hints = (
{
place = "{426, 55}";
type = Stem;
}
);
layerId = "ADFD292A-F9BB-471F-8DBA-A614A3A5AC29";
paths = (
{
closed = 1;
nodes = (
"249 407 LINE",
"375.67 569.67 OFFCURVE",
"453 766 OFFCURVE",
"481 996 CURVE",
"426 1000 LINE",
"401.33 783.33 OFFCURVE",
"333 602.33 OFFCURVE",
"221 457 CURVE",
"244 440 LINE",
"143 719 LINE",
"90 700 LINE",
"196 418 LINE"
);
},
{
closed = 1;
nodes = (
"253 -120 LINE",
"313 -68.67 OFFCURVE",
"370.67 -7.5 OFFCURVE",
"426 63.5 CURVE SMOOTH",
"481.33 134.5 OFFCURVE",
"528 206 OFFCURVE",
"566 278 CURVE",
"514 296 LINE",
"435.33 153.33 OFFCURVE",
"337.33 29 OFFCURVE",
"220 -77 CURVE"
);
},
{
closed = 1;
nodes = (
"260 138 LINE",
"358 239.33 OFFCURVE",
"435 345.33 OFFCURVE",
"491 456 CURVE",
"444 481 LINE",
"390.67 371.67 OFFCURVE",
"316 269.67 OFFCURVE",
"220 175 CURVE"
);
},
{
closed = 1;
nodes = (
"376 730 LINE",
"458 651.33 OFFCURVE",
"543.33 547.67 OFFCURVE",
"632 419 CURVE",
"678 450 LINE",
"594 572.67 OFFCURVE",
"499.67 682.67 OFFCURVE",
"395 780 CURVE"
);
}
);
vertWidth = 1000;
width = 769;
}
);
note = u1B1AE;
unicode = 1B1AE;
},
{
glyphname = u1B1AF;
layers = (
{
hints = (
{
horizontal = 1;
place = "{254, 94}";
type = Stem;
},
{
horizontal = 1;
place = "{741, 94}";
type = Stem;
},
{
place = "{124, 87}";
type = Stem;
},
{
place = "{324, 32}";
type = Stem;
},
{
place = "{366, 87}";
type = Stem;
},
{
place = "{571, 56}";
type = Stem;
}
);
layerId = "ADFD292A-F9BB-471F-8DBA-A614A3A5AC29";
paths = (
{
closed = 1;
nodes = (
"324 294 LINE",
"423.56 383.83 OFFCURVE",
"496.23 482.16 OFFCURVE",
"542 589 CURVE SMOOTH",
"587.43 696.01 OFFCURVE",
"615.77 832.34 OFFCURVE",
"627 998 CURVE",
"571 1000 LINE",
"561.92 853.16 OFFCURVE",
"538.92 732.49 OFFCURVE",
"502 638 CURVE SMOOTH",
"462.32 539.73 OFFCURVE",
"402.99 450.4 OFFCURVE",
"324 370 CURVE"
);
},
{
closed = 1;
nodes = (
"179.1 254.24 OFFCURVE",
"189.77 258.57 OFFCURVE",
"199 267 CURVE SMOOTH",
"207 276 OFFCURVE",
"211 287 OFFCURVE",
"211 300 CURVE SMOOTH",
"210.79 312.81 OFFCURVE",
"206.79 324.48 OFFCURVE",
"199 335 CURVE",
"190.5 343.17 OFFCURVE",
"179.83 347.51 OFFCURVE",
"167 348 CURVE SMOOTH",
"156.13 347.71 OFFCURVE",
"145.8 343.04 OFFCURVE",
"136 334 CURVE SMOOTH",
"128.46 325.15 OFFCURVE",
"124.46 313.82 OFFCURVE",
"124 300 CURVE SMOOTH",
"124 287 OFFCURVE",
"128 276 OFFCURVE",
"136 267 CURVE SMOOTH",
"144.46 258.9 OFFCURVE",
"154.79 254.57 OFFCURVE",
"167 254 CURVE SMOOTH"
);
},
{
closed = 1;
nodes = (
"245 -120 LINE",
"319 39 OFFCURVE",
"356 191 OFFCURVE",
"356 336 CURVE SMOOTH",
"355.83 488.04 OFFCURVE",
"315.83 645.7 OFFCURVE",
"236 809 CURVE",
"186 786 LINE",
"260.34 632.99 OFFCURVE",
"297.67 483.66 OFFCURVE",
"298 338 CURVE SMOOTH",
"297.84 200.58 OFFCURVE",
"262.5 56.58 OFFCURVE",
"192 -94 CURVE"
);
},
{
closed = 1;
nodes = (
"494 535 LINE",
"453 480 LINE",
"604 12 LINE",
"658 29 LINE"
);
},
{
closed = 1;
nodes = (
"366 774 OFFCURVE",
"370 763 OFFCURVE",
"378 754 CURVE SMOOTH",
"385.58 745.9 OFFCURVE",
"395.92 741.57 OFFCURVE",
"409 741 CURVE SMOOTH",
"421.1 741.24 OFFCURVE",
"431.77 745.57 OFFCURVE",
"441 754 CURVE SMOOTH",
"449 763 OFFCURVE",
"453 774 OFFCURVE",
"453 787 CURVE SMOOTH",
"452.79 799.81 OFFCURVE",
"448.79 811.48 OFFCURVE",
"441 822 CURVE",
"432.5 830.17 OFFCURVE",
"421.83 834.51 OFFCURVE",
"409 835 CURVE SMOOTH",
"398.13 834.71 OFFCURVE",
"387.8 830.04 OFFCURVE",
"378 821 CURVE SMOOTH",
"370.46 812.15 OFFCURVE",
"366.46 800.82 OFFCURVE",
"366 787 CURVE SMOOTH"
);
}
);
vertWidth = 1000;
width = 769;
}
);
note = u1B1AF;
unicode = 1B1AF;
},
{
glyphname = u1B1B0;
layers = (
{
hints = (
{
horizontal = 1;
place = "{501, 94}";
type = Stem;
},
{
horizontal = 1;
place = "{608, 94}";
type = Stem;
},
{
place = "{146, 87}";
type = Stem;
},
{
place = "{391, 56}";
type = Stem;
},
{
place = "{517, 53}";
type = Stem;
},
{
place = "{573, 87}";
type = Stem;
}
);
layerId = "ADFD292A-F9BB-471F-8DBA-A614A3A5AC29";
paths = (
{
closed = 1;
nodes = (
"201.81 501.3 OFFCURVE",
"212.14 505.96 OFFCURVE",
"221 515 CURVE SMOOTH",
"228.51 523.78 OFFCURVE",
"232.51 534.45 OFFCURVE",
"233 547 CURVE SMOOTH",
"232.77 560.8 OFFCURVE",
"228.77 572.47 OFFCURVE",
"221 582 CURVE SMOOTH",
"213.42 590.1 OFFCURVE",
"203.08 594.43 OFFCURVE",
"190 595 CURVE SMOOTH",
"177.64 594.75 OFFCURVE",
"167.31 590.42 OFFCURVE",
"159 582 CURVE SMOOTH",
"150.84 573.41 OFFCURVE",
"146.51 561.75 OFFCURVE",
"146 547 CURVE SMOOTH",
"146.24 534.9 OFFCURVE",
"150.57 524.23 OFFCURVE",
"159 515 CURVE SMOOTH",
"167.15 506.24 OFFCURVE",
"177.48 501.57 OFFCURVE",
"190 501 CURVE SMOOTH"
);
},
{
closed = 1;
nodes = (
"573.23 642.21 OFFCURVE",
"577.23 631.54 OFFCURVE",
"585 622 CURVE SMOOTH",
"593.15 613.24 OFFCURVE",
"603.48 608.57 OFFCURVE",
"616 608 CURVE SMOOTH",
"628.51 608.3 OFFCURVE",
"639.17 612.97 OFFCURVE",
"648 622 CURVE SMOOTH",
"655.51 630.78 OFFCURVE",
"659.51 641.45 OFFCURVE",
"660 654 CURVE SMOOTH",
"659.77 667.8 OFFCURVE",
"655.77 679.47 OFFCURVE",
"648 689 CURVE SMOOTH",
"640.35 697.11 OFFCURVE",
"629.69 701.45 OFFCURVE",
"616 702 CURVE SMOOTH",
"604.19 701.7 OFFCURVE",
"593.86 697.04 OFFCURVE",
"585 688 CURVE SMOOTH",
"577.46 679.1 OFFCURVE",
"573.46 667.76 OFFCURVE",
"573 654 CURVE SMOOTH"
);
},
{
closed = 1;
nodes = (
"624 300 LINE",
"578.4 406.16 OFFCURVE",
"520.4 505.82 OFFCURVE",
"450 599 CURVE SMOOTH",
"390.92 676.4 OFFCURVE",
"315.26 758.73 OFFCURVE",
"223 846 CURVE",
"186 807 LINE",
"268.3 732.69 OFFCURVE",
"344.3 648.03 OFFCURVE",
"414 553 CURVE SMOOTH",
"479.54 464.12 OFFCURVE",
"532.87 373.12 OFFCURVE",
"574 280 CURVE"
);
},
{
closed = 1;
nodes = (
"416 -120 LINE",
"436.51 -27.32 OFFCURVE",
"446.85 69.01 OFFCURVE",
"447 169 CURVE SMOOTH",
"446.95 227.57 OFFCURVE",
"442.62 282.57 OFFCURVE",
"434 334 CURVE",
"378 323 LINE",
"386.55 272.31 OFFCURVE",
"390.88 220.97 OFFCURVE",
"391 169 CURVE SMOOTH",
"390.93 74.09 OFFCURVE",
"381.6 -18.24 OFFCURVE",
"363 -108 CURVE"
);
},
{
closed = 1;
nodes = (
"144 239 LINE",
"266.38 326.05 OFFCURVE",
"364.72 425.72 OFFCURVE",
"439 538 CURVE",
"403 587 LINE",
"332.83 473.11 OFFCURVE",
"235.5 372.78 OFFCURVE",
"111 286 CURVE"
);
},
{
closed = 1;
nodes = (
"450 564 LINE",
"519 687 OFFCURVE",
"559 833 OFFCURVE",
"570 1002 CURVE",
"517 1002 LINE",
"507.89 853.43 OFFCURVE",
"474.56 722.76 OFFCURVE",
"417 610 CURVE"
);
}
);
vertWidth = 1000;
width = 769;
}
);
note = u1B1B0;
unicode = 1B1B0;
},
{
glyphname = u1B1B1;
layers = (
{
hints = (
{
place = "{271, 53}";
type = Stem;
},
{
place = "{469, 57}";
type = Stem;
}
);
layerId = "ADFD292A-F9BB-471F-8DBA-A614A3A5AC29";
paths = (
{
closed = 1;
nodes = (
"418 68 LINE",
"454.67 113.33 OFFCURVE",
"487.67 158.33 OFFCURVE",
"517 203 CURVE",
"496 266 LINE",
"484 248 OFFCURVE",
"467.17 223 OFFCURVE",
"445.5 191 CURVE SMOOTH",
"423.83 159 OFFCURVE",
"412.33 142 OFFCURVE",
"411 140 CURVE",
"411 137 LINE",
"381 338.33 OFFCURVE",
"310.67 559.67 OFFCURVE",
"200 801 CURVE",
"147 774 LINE",
"259.67 533.33 OFFCURVE",
"332.33 305.33 OFFCURVE",
"365 90 CURVE"
);
},
{
closed = 1;
nodes = (
"324 -120 LINE",
"323.33 20.67 OFFCURVE",
"286.33 148 OFFCURVE",
"213 262 CURVE",
"170 229 LINE",
"238 115 OFFCURVE",
"271.67 -0.67 OFFCURVE",
"271 -118 CURVE"
);
},
{
closed = 1;
nodes = (
"163 323 LINE",
"209 367.67 OFFCURVE",
"251 413.67 OFFCURVE",
"289 461 CURVE",
"266 520 LINE",
"228.67 471.33 OFFCURVE",
"182.33 420.33 OFFCURVE",
"127 367 CURVE"
);
},
{
closed = 1;
nodes = (
"572 19 LINE",
"620 39 LINE",
"451 503 LINE",
"403 483 LINE"
);
},
{
closed = 1;
nodes = (
"537 232 LINE",
"586.33 308 OFFCURVE",
"623.67 372 OFFCURVE",
"649 424 CURVE",
"599 450 LINE",
"574.33 398.67 OFFCURVE",
"546 347.67 OFFCURVE",
"514 297 CURVE"
);
},
{
closed = 1;
nodes = (
"308 486 LINE",
"418 633.33 OFFCURVE",
"490.67 803.33 OFFCURVE",
"526 996 CURVE",
"469 1000 LINE",
"437.67 828 OFFCURVE",
"377.67 677.33 OFFCURVE",
"289 548 CURVE"
);
}
);
vertWidth = 1000;
width = 769;
}
);
note = u1B1B1;
unicode = 1B1B1;
},
